<svg id="svg" version="1.1" xmlns="http://www.w3.org/2000/svg" xmlns:xlink="http://www.w3.org/1999/xlink" width="400" height="194.00447427293065" viewBox="0, 0, 400,194.00447427293065"><g id="svgg"><path id="path0" d="M243.490 25.169 C 238.603 25.923,235.983 28.852,235.976 33.566 L 235.973 35.902 236.649 37.271 C 237.812 39.623,239.890 41.029,244.653 42.684 C 248.252 43.934,249.217 44.659,249.217 46.111 C 249.217 49.113,243.943 49.283,240.397 46.394 L 239.406 45.587 237.291 47.805 L 235.175 50.022 236.531 51.323 C 242.652 57.197,253.832 55.333,255.677 48.131 C 257.135 42.441,254.531 38.922,247.006 36.411 C 242.868 35.030,241.717 33.895,242.958 32.420 C 244.309 30.815,247.992 31.075,249.754 32.901 C 250.489 33.663,250.422 33.688,252.956 31.679 C 255.617 29.570,255.529 29.876,253.915 28.343 C 251.344 25.902,247.106 24.611,243.490 25.169 M302.729 25.321 C 290.895 27.523,286.687 42.381,295.524 50.763 C 303.668 58.487,317.223 54.517,319.998 43.596 C 322.687 33.015,313.520 23.314,302.729 25.321 M58.345 39.805 L 58.345 54.049 64.328 54.049 C 68.859 54.049,70.611 53.986,71.541 53.791 C 86.349 50.676,86.850 30.088,72.215 26.101 C 70.904 25.744,70.258 25.705,64.564 25.636 L 58.345 25.561 58.345 39.805 M86.085 39.821 L 86.085 54.049 95.391 54.049 L 104.698 54.049 104.698 50.738 L 104.698 47.427 98.792 47.427 L 92.886 47.427 92.886 45.011 L 92.886 42.595 98.255 42.595 L 103.624 42.595 103.624 39.553 L 103.624 36.510 98.255 36.510 L 92.886 36.510 92.886 34.183 L 92.886 31.857 98.613 31.857 L 104.340 31.857 104.340 28.725 L 104.340 25.593 95.213 25.593 L 86.085 25.593 86.085 39.821 M108.456 39.821 L 108.456 54.049 118.031 54.049 L 127.606 54.049 127.606 50.649 L 127.606 47.248 121.521 47.248 L 115.436 47.248 115.436 36.421 L 115.436 25.593 111.946 25.593 L 108.456 25.593 108.456 39.821 M126.174 28.904 L 126.174 32.215 129.933 32.215 L 133.691 32.215 133.691 43.132 L 133.691 54.049 137.181 54.049 L 140.671 54.049 140.671 43.132 L 140.671 32.215 144.430 32.215 L 148.188 32.215 148.188 28.904 L 148.188 25.593 137.181 25.593 L 126.174 25.593 126.174 28.904 M151.603 39.597 C 149.036 47.300,146.935 53.704,146.935 53.829 C 146.935 54.007,147.753 54.046,150.715 54.008 L 154.494 53.960 154.817 52.886 C 154.994 52.295,155.310 51.228,155.519 50.515 L 155.899 49.217 159.997 49.217 L 164.095 49.217 164.540 50.694 C 164.785 51.506,165.100 52.573,165.240 53.065 L 165.496 53.960 169.280 54.008 C 171.362 54.035,173.065 53.995,173.065 53.920 C 173.065 53.845,170.951 47.440,168.368 39.688 L 163.671 25.593 159.971 25.593 L 156.271 25.593 151.603 39.597 M185.275 35.749 C 185.330 45.832,185.334 45.915,185.747 47.159 C 189.192 57.516,204.422 57.258,207.536 46.790 C 207.818 45.842,207.859 44.639,207.918 35.660 L 207.983 25.593 204.490 25.593 L 200.996 25.593 200.946 35.227 L 200.895 44.861 200.353 45.737 C 198.960 47.989,195.553 48.500,193.608 46.747 C 192.174 45.453,192.223 45.867,192.219 35.123 L 192.215 25.593 188.717 25.593 L 185.218 25.593 185.275 35.749 M212.081 39.821 L 212.081 54.049 215.570 54.049 L 219.060 54.049 219.060 49.420 L 219.060 44.790 222.327 44.697 C 225.014 44.621,225.815 44.534,226.846 44.210 C 236.322 41.231,235.542 27.725,225.786 25.858 C 224.726 25.656,222.941 25.593,218.239 25.593 L 212.081 25.593 212.081 39.821 M258.971 39.821 L 258.971 54.049 262.461 54.049 L 265.951 54.049 265.951 39.821 L 265.951 25.593 262.461 25.593 L 258.971 25.593 258.971 39.821 M270.425 39.821 L 270.425 54.049 280.000 54.049 L 289.575 54.049 289.575 50.649 L 289.575 47.248 283.490 47.248 L 277.405 47.248 277.405 36.421 L 277.405 25.593 273.915 25.593 L 270.425 25.593 270.425 39.821 M323.579 39.821 L 323.579 54.049 327.067 54.049 L 330.556 54.049 330.602 46.130 L 330.649 38.210 335.928 46.123 L 341.208 54.035 344.743 54.042 L 348.277 54.049 348.277 39.821 L 348.277 25.593 344.789 25.593 L 341.301 25.593 341.255 33.571 L 341.208 41.549 335.847 33.571 L 330.487 25.593 327.033 25.593 L 323.579 25.593 323.579 39.821 M307.919 32.511 C 311.473 33.584,313.884 37.501,313.217 41.120 C 312.059 47.407,304.588 49.788,300.153 45.284 C 294.526 39.570,300.229 30.190,307.919 32.511 M70.094 32.643 C 77.194 34.534,77.619 44.557,70.699 46.888 C 69.928 47.148,68.899 47.302,67.448 47.375 L 65.324 47.482 65.324 39.938 L 65.324 32.394 67.248 32.396 C 68.306 32.397,69.587 32.508,70.094 32.643 M224.793 32.796 C 225.812 33.311,226.398 34.177,226.398 35.168 C 226.398 37.154,225.014 37.942,221.528 37.942 L 219.060 37.942 219.060 35.168 L 219.060 32.394 221.528 32.394 C 223.732 32.394,224.081 32.437,224.793 32.796 M161.142 39.133 C 161.695 41.018,162.148 42.609,162.148 42.667 C 162.148 42.726,161.172 42.774,159.979 42.774 C 158.001 42.774,157.818 42.747,157.894 42.461 C 158.627 39.718,159.937 35.486,160.024 35.581 C 160.086 35.649,160.589 37.247,161.142 39.133 M111.371 64.501 C 105.053 66.555,104.519 75.703,110.551 78.530 C 112.209 79.306,115.400 79.258,117.081 78.430 C 122.542 75.741,122.544 67.615,117.085 64.928 C 115.693 64.242,112.825 64.028,111.371 64.501 M130.547 64.666 C 128.607 65.591,127.723 67.654,128.330 69.838 C 128.713 71.216,129.779 72.066,132.331 73.025 C 134.805 73.956,135.419 74.659,134.507 75.516 C 133.833 76.149,132.034 75.993,130.915 75.204 C 129.882 74.476,130.015 74.445,128.764 75.718 L 127.696 76.806 128.412 77.442 C 131.533 80.215,137.229 79.446,138.151 76.126 C 138.987 73.113,137.750 71.217,134.121 69.951 C 131.687 69.102,131.290 68.737,131.925 67.931 C 132.533 67.158,134.226 67.303,135.228 68.214 C 135.599 68.551,135.613 68.546,136.794 67.634 C 138.195 66.553,138.168 66.645,137.315 65.827 C 135.687 64.265,132.525 63.723,130.547 64.666 M237.188 64.501 C 230.870 66.555,230.336 75.703,236.368 78.530 C 238.873 79.703,242.623 79.107,244.648 77.214 C 245.806 76.131,245.804 76.123,244.133 75.121 C 242.560 74.179,242.470 74.153,242.137 74.554 C 240.159 76.937,235.705 74.918,235.705 71.639 C 235.705 68.437,240.192 66.457,242.137 68.801 C 242.484 69.219,242.608 69.174,244.146 68.066 L 245.559 67.049 244.793 66.267 C 243.095 64.532,239.593 63.719,237.188 64.501 M326.494 64.501 C 320.177 66.555,319.642 75.703,325.674 78.530 C 327.248 79.267,330.693 79.257,332.213 78.511 C 334.774 77.254,336.101 74.909,336.105 71.633 L 336.107 70.157 332.170 70.157 L 328.233 70.157 328.233 71.767 L 328.233 73.378 330.112 73.378 C 332.141 73.378,332.159 73.388,331.642 74.173 C 330.093 76.522,326.067 75.696,325.215 72.855 C 324.077 69.055,328.148 66.392,331.479 68.758 C 331.758 68.956,334.852 67.430,334.854 67.094 C 334.856 66.790,332.926 65.241,332.030 64.825 C 330.790 64.251,327.800 64.076,326.494 64.501 M58.345 71.588 L 58.345 78.747 60.134 78.747 L 61.924 78.747 61.924 71.588 L 61.924 64.430 60.134 64.430 L 58.345 64.430 58.345 71.588 M64.072 71.588 L 64.072 78.747 68.904 78.747 L 73.736 78.747 73.736 77.047 L 73.736 75.347 70.694 75.347 L 67.651 75.347 67.651 69.888 L 67.651 64.430 65.861 64.430 L 64.072 64.430 64.072 71.588 M75.168 71.588 L 75.168 78.747 80.000 78.747 L 84.832 78.747 84.832 77.047 L 84.832 75.347 81.790 75.347 L 78.747 75.347 78.747 69.888 L 78.747 64.430 76.957 64.430 L 75.168 64.430 75.168 71.588 M86.264 71.588 L 86.264 78.747 88.054 78.747 L 89.843 78.747 89.843 71.588 L 89.843 64.430 88.054 64.430 L 86.264 64.430 86.264 71.588 M91.991 71.588 L 91.991 78.747 93.781 78.747 L 95.570 78.747 95.571 74.765 L 95.571 70.783 98.211 74.761 L 100.850 78.738 102.685 78.743 L 104.519 78.747 104.519 71.588 L 104.519 64.430 102.733 64.430 L 100.947 64.430 100.898 68.304 L 100.850 72.179 98.273 68.304 L 95.695 64.430 93.843 64.430 L 91.991 64.430 91.991 71.588 M122.774 71.588 L 122.774 78.747 124.564 78.747 L 126.353 78.747 126.353 71.588 L 126.353 64.430 124.564 64.430 L 122.774 64.430 122.774 71.588 M145.176 69.664 C 145.231 74.565,145.259 74.952,145.617 75.727 C 147.620 80.058,153.946 80.243,156.050 76.031 L 156.600 74.932 156.600 69.681 L 156.600 64.430 154.899 64.430 L 153.199 64.430 153.191 68.680 C 153.180 74.730,152.915 75.526,150.909 75.526 C 148.907 75.526,148.725 74.990,148.725 69.089 L 148.725 64.430 146.921 64.430 L 145.117 64.430 145.176 69.664 M158.747 71.588 L 158.747 78.747 160.537 78.747 L 162.327 78.747 162.327 76.331 L 162.327 73.915 162.934 73.915 C 163.536 73.915,163.550 73.934,164.714 76.331 L 165.887 78.747 167.942 78.747 L 169.998 78.747 168.731 76.286 C 168.035 74.933,167.399 73.752,167.319 73.663 C 167.238 73.573,167.533 73.183,167.979 72.791 C 170.644 70.445,170.027 66.260,166.801 64.802 C 166.077 64.474,165.628 64.437,162.371 64.433 L 158.747 64.430 158.747 71.588 M171.275 71.588 L 171.275 78.747 175.078 78.745 C 179.425 78.743,180.062 78.585,181.318 77.191 C 182.808 75.537,182.557 72.455,180.841 71.330 L 180.369 71.021 180.732 70.634 C 181.987 69.293,181.741 66.754,180.230 65.461 C 179.161 64.546,178.537 64.430,174.700 64.430 L 171.275 64.430 171.275 71.588 M186.929 64.653 C 186.490 65.816,182.371 78.349,182.371 78.521 C 182.371 78.689,182.865 78.747,184.303 78.747 L 186.234 78.747 186.577 77.494 L 186.920 76.242 188.915 76.242 L 190.909 76.242 191.268 77.450 L 191.628 78.658 193.603 78.708 L 195.578 78.759 193.359 71.997 C 192.138 68.278,191.091 65.054,191.032 64.832 C 190.903 64.355,187.104 64.189,186.929 64.653 M196.510 71.588 L 196.510 78.747 198.300 78.747 L 200.089 78.747 200.090 74.765 L 200.090 70.783 202.730 74.761 L 205.369 78.738 207.204 78.743 L 209.038 78.747 209.038 71.588 L 209.038 64.430 207.252 64.430 L 205.466 64.430 205.417 68.304 L 205.369 72.179 202.792 68.304 L 200.214 64.430 198.362 64.430 L 196.510 64.430 196.510 71.588 M214.848 64.653 C 214.410 65.816,210.291 78.349,210.291 78.521 C 210.291 78.689,210.784 78.747,212.222 78.747 L 214.153 78.747 214.497 77.494 L 214.840 76.242 216.834 76.242 L 218.828 76.242 219.188 77.450 L 219.548 78.658 221.522 78.708 L 223.497 78.759 221.278 71.997 C 220.058 68.278,219.011 65.054,218.951 64.832 C 218.822 64.355,215.024 64.189,214.848 64.653 M246.801 71.588 L 246.801 78.747 248.591 78.747 L 250.380 78.747 250.380 76.063 L 250.380 73.378 252.617 73.378 L 254.855 73.378 254.855 76.063 L 254.855 78.747 256.644 78.747 L 258.434 78.747 258.434 71.588 L 258.434 64.430 256.644 64.430 L 254.855 64.430 254.855 67.204 L 254.855 69.978 252.617 69.978 L 250.380 69.978 250.380 67.204 L 250.380 64.430 248.591 64.430 L 246.801 64.430 246.801 71.588 M264.244 64.653 C 263.806 65.816,259.687 78.349,259.687 78.521 C 259.687 78.689,260.180 78.747,261.618 78.747 L 263.549 78.747 263.893 77.494 L 264.236 76.242 266.230 76.242 L 268.224 76.242 268.584 77.450 L 268.944 78.658 270.918 78.708 L 272.893 78.759 270.674 71.997 C 269.454 68.278,268.407 65.054,268.347 64.832 C 268.218 64.355,264.420 64.189,264.244 64.653 M273.826 71.588 L 273.826 78.747 275.612 78.747 L 277.398 78.747 277.446 74.728 L 277.494 70.708 279.095 73.475 L 280.696 76.242 281.690 76.240 L 282.685 76.239 284.295 73.448 L 285.906 70.658 285.954 74.703 L 286.002 78.747 287.699 78.747 L 289.396 78.747 289.396 71.588 L 289.396 64.430 287.619 64.430 L 285.843 64.430 283.821 67.919 C 282.708 69.839,281.745 71.409,281.680 71.409 C 281.615 71.409,280.659 69.839,279.557 67.919 L 277.553 64.430 275.689 64.430 L 273.826 64.430 273.826 71.588 M291.723 71.579 L 291.723 78.747 293.512 78.747 L 295.302 78.747 295.302 76.346 L 295.302 73.946 297.315 73.885 C 298.795 73.840,299.500 73.739,299.975 73.503 C 303.475 71.765,303.480 66.585,299.982 64.844 C 299.425 64.567,298.769 64.511,295.526 64.464 L 291.723 64.410 291.723 71.579 M306.482 64.653 C 306.043 65.816,301.924 78.349,301.924 78.521 C 301.924 78.689,302.417 78.747,303.855 78.747 L 305.787 78.747 306.130 77.494 L 306.473 76.242 308.467 76.242 L 310.461 76.242 310.821 77.450 L 311.181 78.658 313.156 78.708 L 315.130 78.759 312.911 71.997 C 311.691 68.278,310.644 65.054,310.584 64.832 C 310.456 64.355,306.657 64.189,306.482 64.653 M316.063 71.588 L 316.063 78.747 317.852 78.747 L 319.642 78.747 319.642 71.588 L 319.642 64.430 317.852 64.430 L 316.063 64.430 316.063 71.588 M337.718 71.588 L 337.718 78.747 339.508 78.747 L 341.298 78.747 341.298 74.765 L 341.299 70.783 343.938 74.761 L 346.577 78.738 348.412 78.743 L 350.246 78.747 350.246 71.588 L 350.246 64.430 348.460 64.430 L 346.674 64.430 346.625 68.304 L 346.577 72.179 344.000 68.304 L 341.422 64.430 339.570 64.430 L 337.718 64.430 337.718 71.588 M177.045 67.660 C 178.952 68.189,178.247 69.799,176.107 69.799 L 174.855 69.799 174.855 68.635 L 174.855 67.472 175.615 67.473 C 176.034 67.474,176.677 67.558,177.045 67.660 M165.344 68.035 C 166.850 68.976,165.903 70.444,163.667 70.633 L 162.327 70.746 162.327 69.173 L 162.327 67.599 163.647 67.699 C 164.372 67.754,165.136 67.905,165.344 68.035 M298.319 68.035 C 299.826 68.976,298.879 70.444,296.643 70.633 L 295.302 70.746 295.302 69.173 L 295.302 67.599 296.622 67.699 C 297.348 67.754,298.112 67.905,298.319 68.035 M115.376 68.303 C 117.050 69.098,117.916 71.065,117.380 72.855 C 116.533 75.681,112.761 76.481,110.868 74.236 C 108.208 71.081,111.659 66.539,115.376 68.303 M189.874 72.886 C 189.886 73.149,189.726 73.199,188.883 73.199 C 188.013 73.199,187.889 73.157,187.963 72.886 C 188.009 72.714,188.240 71.900,188.476 71.079 L 188.904 69.584 189.382 71.079 C 189.645 71.900,189.867 72.714,189.874 72.886 M217.794 72.886 C 217.805 73.149,217.646 73.199,216.802 73.199 C 215.932 73.199,215.809 73.157,215.882 72.886 C 215.929 72.714,216.159 71.900,216.395 71.079 L 216.823 69.584 217.302 71.079 C 217.565 71.900,217.786 72.714,217.794 72.886 M267.190 72.886 C 267.201 73.149,267.042 73.199,266.198 73.199 C 265.328 73.199,265.205 73.157,265.278 72.886 C 265.325 72.714,265.555 71.900,265.791 71.079 L 266.219 69.584 266.698 71.079 C 266.961 71.900,267.182 72.714,267.190 72.886 M309.427 72.886 C 309.438 73.149,309.279 73.199,308.436 73.199 C 307.565 73.199,307.442 73.157,307.515 72.886 C 307.562 72.714,307.793 71.900,308.028 71.079 L 308.456 69.584 308.935 71.079 C 309.198 71.900,309.419 72.714,309.427 72.886 M223.356 71.588 L 223.356 72.841 227.114 72.841 L 230.872 72.841 230.872 71.588 L 230.872 70.336 227.114 70.336 L 223.356 70.336 223.356 71.588 M177.593 73.032 C 179.682 73.612,178.761 75.309,176.264 75.480 L 174.855 75.577 174.855 74.209 L 174.855 72.841 175.884 72.842 C 176.450 72.843,177.219 72.928,177.593 73.032 " stroke="none" fill="#fcfcfc" fill-rule="evenodd"></path><path id="path1" d="M11.341 0.435 C 2.312 2.493,-2.070 14.461,3.042 23.102 C 4.084 24.864,3.906 24.806,6.755 24.316 C 9.063 23.919,12.226 23.811,15.175 24.028 C 15.735 24.070,15.784 24.022,16.185 23.039 L 16.607 22.007 15.897 21.160 C 13.304 18.067,13.147 14.674,15.528 13.185 C 17.477 11.966,20.137 12.050,21.519 13.375 C 21.789 13.633,22.031 13.810,22.056 13.768 C 22.416 13.179,26.321 5.230,26.315 5.101 C 26.297 4.698,22.691 2.444,20.733 1.611 C 17.809 0.367,13.826 -0.132,11.341 0.435 M31.244 0.944 C 29.066 4.661,12.349 43.815,12.349 45.200 C 12.349 45.433,15.034 49.025,15.492 49.405 C 15.802 49.662,17.326 49.611,32.785 48.827 L 40.604 48.431 42.026 45.468 C 43.880 41.608,43.807 42.122,42.895 39.348 C 42.462 38.033,41.959 36.321,41.776 35.544 L 41.443 34.130 41.881 33.844 C 43.577 32.733,46.282 28.492,45.679 27.889 C 45.319 27.529,42.391 26.818,40.881 26.723 L 39.256 26.621 38.668 24.183 C 38.345 22.842,37.930 21.217,37.746 20.573 C 36.205 15.179,36.200 15.044,37.563 15.739 C 39.714 16.836,40.929 20.229,39.838 22.091 C 39.224 23.139,39.451 25.897,40.162 26.026 C 40.368 26.064,41.145 26.186,41.889 26.297 C 42.632 26.408,43.740 26.650,44.349 26.835 C 44.959 27.020,45.490 27.118,45.529 27.053 C 46.568 25.324,46.990 18.559,46.206 16.197 C 44.546 11.190,39.046 6.104,35.270 6.082 C 34.277 6.077,33.996 5.737,33.268 3.669 C 31.844 -0.375,31.941 -0.245,31.244 0.944 M15.472 3.015 C 15.530 3.197,15.455 3.927,15.305 4.637 C 15.000 6.090,14.964 6.952,15.195 7.316 C 15.421 7.672,15.704 7.423,15.836 6.754 C 16.154 5.146,16.690 4.729,16.787 6.015 C 16.888 7.357,15.574 8.546,14.748 7.860 C 14.533 7.682,14.393 7.725,13.998 8.094 C 12.838 9.175,12.144 9.145,11.621 7.992 C 10.580 5.700,11.977 2.825,14.000 3.097 C 14.503 3.164,14.726 3.120,14.796 2.938 C 14.934 2.577,15.348 2.625,15.472 3.015 M18.709 5.451 C 18.463 6.623,18.437 7.036,18.597 7.229 C 18.846 7.530,17.952 8.359,17.676 8.083 C 17.354 7.761,17.870 4.241,18.291 3.885 C 18.949 3.330,19.064 3.762,18.709 5.451 M12.680 4.786 C 12.153 5.640,11.981 7.674,12.406 8.027 C 12.979 8.503,13.811 7.514,14.144 5.960 C 14.524 4.186,13.539 3.396,12.680 4.786 M22.462 5.265 C 22.745 5.547,23.021 5.664,23.259 5.602 C 23.979 5.413,23.656 6.397,22.614 7.562 C 21.655 8.635,21.847 9.532,22.832 8.578 C 23.429 7.999,23.800 8.106,23.452 8.757 C 22.968 9.660,21.926 9.928,21.655 9.217 C 21.514 8.846,21.367 8.770,20.793 8.770 C 19.837 8.770,19.428 8.299,19.556 7.347 C 19.806 5.479,21.478 4.281,22.462 5.265 M20.856 6.312 C 19.840 7.328,19.796 8.454,20.787 8.078 C 21.436 7.831,22.402 6.661,22.337 6.201 C 22.246 5.562,21.555 5.613,20.856 6.312 M8.158 7.964 C 8.200 9.924,9.319 10.587,10.840 9.555 C 11.630 9.019,12.045 9.133,12.138 9.910 C 12.212 10.532,11.302 10.942,9.761 10.980 C 8.241 11.018,8.177 11.656,9.623 12.362 C 10.851 12.960,11.039 13.150,10.750 13.498 C 10.417 13.899,5.525 11.327,5.402 10.687 C 5.309 10.202,5.840 10.132,6.504 10.542 C 8.066 11.507,8.535 10.366,7.243 8.741 C 6.379 7.655,6.512 7.088,7.605 7.196 C 8.102 7.244,8.144 7.304,8.158 7.964 M36.434 7.945 C 37.216 7.626,37.833 7.954,37.908 8.729 C 37.940 9.053,37.881 9.306,37.774 9.306 C 37.670 9.306,37.584 9.155,37.584 8.970 C 37.584 8.518,37.142 8.178,36.725 8.311 C 35.927 8.564,35.395 11.905,36.134 12.020 C 36.754 12.116,36.659 12.433,35.992 12.496 C 35.247 12.568,35.079 12.329,35.276 11.481 C 35.564 10.241,35.472 8.805,35.078 8.412 C 34.459 7.792,34.604 7.413,35.303 7.825 C 35.807 8.123,35.959 8.139,36.434 7.945 M38.928 10.025 C 38.989 10.125,39.357 10.368,39.744 10.565 C 40.510 10.956,40.687 11.454,40.059 11.454 C 39.536 11.454,39.016 11.954,39.016 12.456 C 39.016 12.925,38.708 13.187,38.455 12.933 C 38.345 12.823,38.517 12.481,38.933 11.983 C 39.540 11.257,39.562 11.188,39.266 10.971 C 38.774 10.611,38.589 10.683,38.021 11.450 C 37.529 12.115,37.216 12.348,37.233 12.036 C 37.237 11.962,37.479 11.623,37.770 11.282 C 38.393 10.553,38.426 10.380,37.942 10.380 C 37.743 10.380,37.584 10.261,37.584 10.112 C 37.584 9.801,38.743 9.726,38.928 10.025 M41.485 12.206 C 42.116 12.836,41.151 14.318,40.110 14.318 C 39.103 14.318,38.910 13.377,39.745 12.542 C 40.324 11.963,41.094 11.814,41.485 12.206 M40.268 12.662 C 39.543 13.025,39.328 13.680,39.887 13.827 C 40.621 14.019,41.882 12.866,41.324 12.513 C 40.991 12.302,40.989 12.302,40.268 12.662 M43.497 13.751 C 44.071 14.215,43.862 14.829,42.925 15.436 C 41.582 16.306,40.063 15.919,40.740 14.879 C 41.519 13.681,42.776 13.167,43.497 13.751 M7.840 14.049 C 9.137 14.576,9.459 14.601,9.755 14.196 C 10.028 13.824,10.917 14.591,10.917 15.198 C 10.917 16.055,10.046 16.107,7.790 15.384 C 6.004 14.812,5.479 14.385,5.916 13.859 C 6.214 13.499,6.575 13.535,7.840 14.049 M42.461 13.965 C 41.962 14.166,41.954 14.347,42.427 14.775 C 42.702 15.023,42.869 15.061,43.086 14.925 C 44.108 14.280,43.603 13.506,42.461 13.965 M41.281 14.645 C 40.640 15.352,41.172 15.941,42.124 15.579 C 42.702 15.360,42.712 15.206,42.181 14.707 C 41.679 14.235,41.653 14.233,41.281 14.645 M43.502 16.114 C 43.692 16.216,43.848 16.463,43.848 16.663 C 43.848 16.864,43.969 17.149,44.116 17.296 C 44.741 17.921,44.135 18.531,42.694 18.729 C 41.997 18.824,41.847 18.799,41.914 18.596 C 41.964 18.444,42.347 18.308,42.878 18.252 C 44.509 18.080,44.789 17.471,43.192 17.567 C 42.020 17.638,41.630 17.278,42.667 17.083 C 43.362 16.953,43.811 16.574,43.499 16.381 C 43.395 16.317,43.230 16.315,43.132 16.376 C 42.896 16.522,42.561 16.308,42.692 16.095 C 42.826 15.879,43.073 15.884,43.502 16.114 M12.553 19.508 C 12.518 20.935,12.417 22.180,12.329 22.273 C 12.041 22.580,3.221 18.687,3.221 18.253 C 3.221 18.052,3.650 17.975,7.696 17.447 C 9.615 17.197,11.266 16.959,11.365 16.918 C 11.463 16.877,11.785 16.859,12.081 16.878 L 12.617 16.913 12.553 19.508 M9.095 18.327 C 8.044 18.438,7.124 18.588,7.052 18.660 C 6.979 18.733,6.954 18.793,6.995 18.795 C 7.036 18.797,7.955 19.151,9.038 19.582 C 11.337 20.499,11.275 20.511,11.275 19.139 C 11.275 18.555,11.215 18.087,11.141 18.100 C 11.067 18.113,10.146 18.215,9.095 18.327 M44.698 19.462 C 44.739 19.584,44.559 19.765,44.299 19.864 C 43.736 20.079,43.824 20.270,44.758 20.860 C 45.143 21.103,45.459 21.382,45.459 21.479 C 45.459 21.754,44.922 21.687,44.812 21.398 C 44.464 20.492,42.955 20.737,42.953 21.700 C 42.953 21.881,42.742 21.865,42.417 21.660 C 42.196 21.520,42.266 21.373,42.820 20.805 C 43.640 19.966,43.653 19.829,42.908 19.870 C 42.006 19.920,41.844 19.883,41.922 19.647 C 42.082 19.167,44.547 19.002,44.698 19.462 M44.587 22.533 C 44.990 22.859,44.994 22.889,44.696 23.218 C 44.312 23.643,44.308 23.780,44.671 24.180 C 45.289 24.864,44.449 25.058,42.535 24.673 C 41.978 24.561,41.521 24.400,41.521 24.315 C 41.521 24.086,41.935 24.128,42.657 24.430 C 43.491 24.778,44.385 24.783,44.385 24.440 C 44.385 24.110,44.113 23.938,43.222 23.705 C 42.801 23.595,42.506 23.410,42.506 23.258 C 42.506 22.994,42.560 22.993,43.916 23.209 C 44.703 23.334,44.800 22.912,44.027 22.729 C 43.795 22.675,43.573 22.531,43.533 22.411 C 43.420 22.071,44.116 22.152,44.587 22.533 M33.219 29.558 C 34.244 32.742,35.234 35.883,35.420 36.538 L 35.757 37.730 33.762 37.833 C 32.665 37.890,30.214 37.986,28.316 38.047 L 24.865 38.158 25.337 37.110 C 27.018 33.379,29.095 28.512,29.997 26.190 C 30.577 24.698,31.120 23.543,31.204 23.623 C 31.288 23.703,32.195 26.373,33.219 29.558 M8.859 24.704 C 7.498 24.880,4.632 25.390,3.977 25.572 C 3.585 25.681,3.612 25.749,4.728 27.429 C 7.976 32.321,12.242 36.316,12.944 35.123 C 13.325 34.476,13.244 33.864,12.762 33.743 C 11.814 33.505,11.734 33.269,12.462 32.858 C 13.263 32.406,13.423 32.049,12.888 31.909 C 10.994 31.414,8.496 29.650,7.877 28.371 C 7.230 27.036,7.455 26.843,8.559 27.786 C 10.674 29.592,12.619 30.273,12.806 29.272 C 13.026 28.103,14.015 27.204,13.853 28.322 C 13.542 30.454,14.735 29.253,15.986 26.174 L 16.441 25.055 16.050 24.845 C 15.557 24.580,10.574 24.482,8.859 24.704 M40.188 28.182 C 40.331 28.524,40.450 29.027,40.454 29.301 L 40.460 29.799 40.715 29.351 L 40.969 28.904 41.195 29.485 C 41.475 30.206,41.872 30.233,43.039 29.613 C 43.509 29.363,43.927 29.191,43.967 29.232 C 44.201 29.465,42.984 30.460,42.047 30.801 C 40.981 31.190,40.754 31.422,41.252 31.613 C 41.571 31.735,41.432 32.036,41.057 32.036 C 40.747 32.036,40.277 30.997,39.826 29.318 C 39.398 27.718,39.656 26.908,40.188 28.182 M0.358 32.976 C 0.358 33.564,1.209 37.942,1.637 39.553 C 4.601 50.718,13.197 65.682,22.291 75.504 C 23.506 76.817,23.281 76.918,25.122 74.222 L 26.318 72.470 24.658 70.732 C 13.057 58.579,5.359 46.878,1.267 35.173 C 0.587 33.230,0.358 32.676,0.358 32.976 M27.066 34.600 C 26.652 35.531,26.266 36.413,26.209 36.561 C 26.120 36.793,29.034 36.830,29.312 36.600 C 29.398 36.529,28.271 33.528,28.039 33.210 C 27.849 32.951,27.716 33.142,27.066 34.600 M45.936 44.698 C 42.990 56.047,35.716 70.002,25.250 84.389 L 23.958 86.165 25.320 87.497 L 26.683 88.829 27.124 88.180 C 34.786 76.904,42.859 60.240,45.175 50.917 C 45.816 48.338,46.565 43.490,46.322 43.490 C 46.282 43.490,46.108 44.034,45.936 44.698 M28.995 49.613 C 22.290 50.012,23.026 49.829,23.180 51.059 L 23.302 52.037 24.671 52.118 C 27.534 52.289,29.414 54.150,29.433 56.829 C 29.452 59.495,27.352 61.041,24.952 60.129 C 24.369 59.907,24.583 60.192,27.880 64.027 C 30.256 66.790,30.135 66.749,31.275 65.190 C 34.931 60.195,34.840 60.422,33.527 59.597 C 30.168 57.486,30.950 52.910,34.765 52.360 L 35.615 52.238 35.615 50.727 C 35.615 49.273,35.600 49.218,35.213 49.242 C 34.991 49.255,32.193 49.422,28.995 49.613 M22.427 53.608 C 21.585 54.027,20.582 55.114,20.582 55.607 C 20.582 55.714,21.034 56.380,21.587 57.087 L 22.592 58.371 22.920 57.831 C 23.862 56.282,25.801 56.667,24.901 58.224 C 24.191 59.452,26.423 60.062,27.577 58.956 C 30.526 56.131,26.258 51.699,22.427 53.608 M33.905 53.496 C 32.177 54.239,31.650 57.056,33.006 58.300 C 34.118 59.318,35.669 58.864,35.212 57.654 C 34.950 56.958,35.290 56.493,35.986 56.595 C 36.504 56.671,37.584 55.222,37.584 54.452 C 37.584 53.589,35.156 52.958,33.905 53.496 " stroke="none" fill="#f9ca43" fill-rule="evenodd"></path><path id="path2" d="M30.058 2.881 C 29.853 3.284,29.715 3.645,29.752 3.682 C 29.790 3.720,29.996 3.390,30.210 2.949 C 30.698 1.945,30.566 1.886,30.058 2.881 M5.184 3.714 L 4.206 4.743 5.235 3.765 C 6.191 2.856,6.346 2.685,6.213 2.685 C 6.185 2.685,5.722 3.148,5.184 3.714 M26.098 5.735 C 25.933 6.125,25.831 6.443,25.870 6.443 C 26.001 6.443,26.510 5.347,26.454 5.186 C 26.423 5.099,26.263 5.346,26.098 5.735 M28.485 6.182 C 28.186 6.840,28.243 6.981,28.567 6.382 C 28.718 6.103,28.809 5.841,28.768 5.800 C 28.727 5.759,28.600 5.931,28.485 6.182 M12.042 6.890 C 12.044 7.383,12.078 7.563,12.119 7.291 C 12.161 7.019,12.160 6.616,12.117 6.396 C 12.075 6.176,12.041 6.398,12.042 6.890 M22.482 7.517 C 21.863 8.202,21.660 8.820,21.988 9.022 C 22.072 9.074,22.104 8.927,22.060 8.694 C 22.002 8.389,22.164 8.067,22.644 7.536 C 23.009 7.132,23.268 6.801,23.218 6.801 C 23.169 6.801,22.838 7.123,22.482 7.517 M16.107 7.562 C 15.843 7.921,15.800 8.046,15.993 7.889 C 16.287 7.651,16.731 6.980,16.595 6.980 C 16.561 6.980,16.341 7.242,16.107 7.562 M17.539 7.506 C 17.539 7.796,17.603 8.072,17.681 8.120 C 17.759 8.168,17.790 7.931,17.751 7.594 C 17.663 6.842,17.539 6.790,17.539 7.506 M21.555 7.562 L 21.029 8.143 21.611 7.618 C 21.931 7.328,22.192 7.067,22.192 7.036 C 22.192 6.898,22.045 7.019,21.555 7.562 M6.837 7.374 C 6.576 7.634,6.558 7.993,6.799 8.142 C 6.901 8.205,6.930 8.132,6.868 7.971 C 6.809 7.817,6.860 7.571,6.982 7.425 C 7.246 7.107,7.141 7.069,6.837 7.374 M19.519 7.892 C 19.507 8.192,20.046 8.773,20.327 8.764 C 20.418 8.761,20.346 8.674,20.168 8.570 C 19.989 8.466,19.773 8.207,19.687 7.994 C 19.581 7.731,19.527 7.698,19.519 7.892 M42.058 9.754 C 42.692 10.394,43.251 10.917,43.301 10.917 C 43.350 10.917,42.871 10.394,42.237 9.754 C 41.603 9.114,41.044 8.591,40.995 8.591 C 40.945 8.591,41.424 9.114,42.058 9.754 M7.875 10.535 C 7.875 10.653,7.694 10.823,7.472 10.912 C 7.200 11.021,7.164 11.077,7.361 11.085 C 7.692 11.098,8.164 10.610,7.990 10.436 C 7.926 10.372,7.875 10.417,7.875 10.535 M38.255 10.596 C 38.206 10.724,38.150 10.908,38.131 11.007 C 38.111 11.105,37.960 11.347,37.795 11.544 C 37.497 11.899,37.497 11.899,37.898 11.560 C 38.120 11.372,38.262 11.178,38.213 11.129 C 38.164 11.080,38.215 10.930,38.327 10.795 C 38.438 10.661,38.488 10.509,38.437 10.458 C 38.386 10.407,38.304 10.469,38.255 10.596 M39.374 10.461 C 39.374 10.510,39.615 10.675,39.911 10.828 C 40.206 10.980,40.447 11.065,40.447 11.016 C 40.447 10.967,40.206 10.801,39.911 10.649 C 39.615 10.496,39.374 10.411,39.374 10.461 M8.531 11.037 C 8.309 11.258,8.410 11.767,8.725 12.014 C 9.008 12.236,9.015 12.230,8.793 11.947 C 8.659 11.776,8.591 11.474,8.642 11.276 C 8.742 10.893,8.721 10.847,8.531 11.037 M35.236 11.594 C 35.177 11.950,35.203 12.117,35.303 12.017 C 35.393 11.927,35.437 11.663,35.400 11.430 C 35.344 11.072,35.318 11.097,35.236 11.594 M38.926 11.950 C 38.631 12.307,38.484 12.542,38.599 12.472 C 38.723 12.397,38.844 12.475,38.892 12.660 C 38.946 12.869,38.981 12.818,38.995 12.511 C 39.015 12.050,39.394 11.592,39.911 11.402 C 40.098 11.333,40.071 11.303,39.821 11.302 C 39.624 11.302,39.221 11.593,38.926 11.950 M36.110 12.118 C 36.344 12.163,36.465 12.278,36.396 12.389 C 36.324 12.506,36.359 12.532,36.485 12.454 C 36.794 12.263,36.549 11.987,36.097 12.015 C 35.708 12.040,35.708 12.040,36.110 12.118 M41.120 12.110 C 41.243 12.160,41.299 12.274,41.243 12.364 C 41.188 12.454,41.278 12.528,41.443 12.528 C 41.690 12.528,41.704 12.480,41.521 12.260 C 41.399 12.112,41.208 11.997,41.097 12.005 C 40.971 12.014,40.980 12.053,41.120 12.110 M10.546 12.931 C 10.741 13.190,10.741 13.298,10.546 13.557 C 10.322 13.855,10.327 13.855,10.652 13.557 C 10.989 13.249,10.989 13.239,10.652 12.931 C 10.327 12.632,10.322 12.632,10.546 12.931 M39.314 13.005 C 39.114 13.205,39.178 13.812,39.386 13.684 C 39.491 13.619,39.536 13.458,39.485 13.327 C 39.435 13.195,39.490 13.049,39.607 13.001 C 39.737 12.948,39.745 12.909,39.627 12.900 C 39.521 12.892,39.380 12.940,39.314 13.005 M15.073 13.557 C 14.644 13.975,14.637 13.996,15.025 13.694 C 15.789 13.099,15.825 13.065,15.699 13.065 C 15.631 13.065,15.349 13.286,15.073 13.557 M41.009 13.429 C 40.777 13.622,40.681 13.781,40.796 13.781 C 40.914 13.781,40.948 13.878,40.875 14.004 C 40.803 14.128,40.917 14.076,41.128 13.891 C 41.340 13.706,41.474 13.491,41.426 13.414 C 41.379 13.337,41.441 13.234,41.565 13.184 C 41.689 13.134,41.709 13.089,41.611 13.085 C 41.512 13.080,41.242 13.235,41.009 13.429 M41.613 14.030 C 41.378 14.266,41.127 14.407,41.056 14.343 C 40.985 14.280,40.981 14.322,41.046 14.437 C 41.112 14.551,41.071 14.676,40.956 14.715 C 40.841 14.753,40.737 14.996,40.726 15.253 C 40.715 15.511,40.768 15.683,40.845 15.636 C 40.922 15.588,40.984 15.639,40.984 15.749 C 40.984 15.859,41.073 15.894,41.182 15.827 C 41.303 15.752,41.314 15.661,41.209 15.593 C 40.847 15.356,40.899 14.971,41.362 14.475 C 41.884 13.917,42.102 13.817,41.953 14.204 C 41.902 14.338,42.101 14.652,42.396 14.900 C 42.692 15.148,42.918 15.384,42.898 15.423 C 42.879 15.463,42.994 15.354,43.155 15.183 C 43.315 15.011,43.509 14.927,43.586 14.996 C 43.663 15.066,43.673 15.029,43.607 14.915 C 43.541 14.800,43.589 14.665,43.713 14.616 C 43.853 14.559,43.861 14.520,43.736 14.511 C 43.625 14.503,43.434 14.617,43.311 14.765 C 43.017 15.119,42.712 15.104,42.378 14.720 C 41.966 14.247,42.032 13.752,42.491 13.879 C 42.789 13.962,42.810 13.946,42.595 13.795 C 42.208 13.524,42.091 13.552,41.613 14.030 M9.718 14.202 C 9.639 14.335,9.454 14.490,9.306 14.546 C 9.090 14.628,9.097 14.650,9.345 14.661 C 9.514 14.669,9.738 14.515,9.843 14.318 C 10.056 13.921,9.945 13.818,9.718 14.202 M9.530 15.873 C 9.702 15.918,9.984 15.918,10.157 15.873 C 10.329 15.828,10.188 15.791,9.843 15.791 C 9.499 15.791,9.358 15.828,9.530 15.873 M38.479 16.555 C 38.813 16.899,39.126 17.181,39.175 17.181 C 39.225 17.181,38.992 16.899,38.658 16.555 C 38.324 16.210,38.010 15.928,37.961 15.928 C 37.912 15.928,38.145 16.210,38.479 16.555 M42.692 16.095 C 42.573 16.288,42.923 16.555,43.084 16.394 C 43.143 16.335,43.078 16.281,42.938 16.274 C 42.788 16.266,42.831 16.198,43.043 16.107 C 43.334 15.982,43.345 15.951,43.098 15.941 C 42.931 15.934,42.749 16.003,42.692 16.095 M43.535 16.325 C 43.593 16.476,43.547 16.703,43.431 16.828 C 43.274 16.998,43.274 17.026,43.430 16.938 C 43.545 16.874,43.679 16.922,43.729 17.046 C 43.779 17.170,43.826 17.054,43.834 16.789 C 43.842 16.524,43.754 16.249,43.638 16.178 C 43.501 16.093,43.465 16.143,43.535 16.325 M12.524 17.682 L 12.610 18.523 12.671 17.829 C 12.704 17.447,12.665 17.068,12.584 16.987 C 12.503 16.906,12.476 17.219,12.524 17.682 M43.579 17.360 L 43.043 17.497 43.524 17.518 C 43.789 17.530,44.055 17.459,44.116 17.360 C 44.177 17.262,44.202 17.191,44.172 17.202 C 44.141 17.214,43.875 17.285,43.579 17.360 M43.989 17.928 C 43.820 18.101,43.750 18.284,43.834 18.336 C 44.015 18.448,44.446 17.974,44.357 17.761 C 44.323 17.680,44.157 17.755,43.989 17.928 M11.324 18.792 C 11.324 19.235,11.359 19.416,11.401 19.195 C 11.444 18.973,11.444 18.611,11.401 18.389 C 11.359 18.168,11.324 18.349,11.324 18.792 M41.999 18.374 C 41.733 18.640,41.911 18.790,42.461 18.765 L 43.043 18.738 42.506 18.654 C 42.032 18.580,42.011 18.554,42.327 18.425 C 42.587 18.320,42.607 18.277,42.401 18.268 C 42.245 18.261,42.064 18.309,41.999 18.374 M6.801 18.607 C 6.801 18.809,7.507 19.219,7.635 19.091 C 7.683 19.043,7.545 18.947,7.328 18.878 C 7.019 18.780,6.987 18.719,7.180 18.596 C 7.376 18.472,7.362 18.439,7.114 18.437 C 6.942 18.435,6.801 18.512,6.801 18.607 M6.264 19.955 C 6.510 20.096,6.792 20.211,6.890 20.211 C 6.989 20.211,6.868 20.096,6.622 19.955 C 6.376 19.815,6.094 19.699,5.996 19.699 C 5.897 19.699,6.018 19.815,6.264 19.955 M42.867 20.757 C 42.484 21.149,42.206 21.497,42.249 21.529 C 42.292 21.562,42.639 21.241,43.021 20.817 C 43.893 19.847,43.793 19.809,42.867 20.757 M16.503 21.918 C 16.573 21.995,16.506 22.298,16.356 22.590 C 16.205 22.882,16.113 23.152,16.152 23.191 C 16.190 23.230,16.355 22.984,16.517 22.644 C 16.741 22.174,16.759 21.997,16.593 21.902 C 16.474 21.833,16.433 21.840,16.503 21.918 M44.471 22.712 C 44.514 22.937,44.428 23.307,44.279 23.535 C 44.072 23.850,44.059 23.981,44.224 24.083 C 44.353 24.162,44.394 24.141,44.325 24.031 C 44.262 23.929,44.382 23.628,44.590 23.363 C 44.940 22.918,44.947 22.857,44.681 22.591 C 44.415 22.325,44.398 22.334,44.471 22.712 M10.783 23.935 C 11.251 23.972,12.016 23.972,12.483 23.935 C 12.951 23.898,12.568 23.868,11.633 23.868 C 10.698 23.868,10.315 23.898,10.783 23.935 M3.831 24.474 C 4.018 24.696,4.300 24.871,4.457 24.863 C 4.700 24.851,4.702 24.834,4.474 24.750 C 4.327 24.696,4.045 24.521,3.848 24.361 C 3.493 24.074,3.493 24.075,3.831 24.474 M42.333 24.509 C 42.224 24.685,43.991 24.972,44.158 24.806 C 44.217 24.747,44.056 24.698,43.800 24.698 C 43.544 24.698,43.131 24.621,42.882 24.526 C 42.630 24.430,42.386 24.423,42.333 24.509 M0.013 26.130 C -0.137 36.750,12.001 57.816,25.741 70.780 L 26.873 71.848 27.218 71.405 C 28.682 69.528,29.702 67.754,29.486 67.459 C 29.363 67.290,28.255 66.002,27.025 64.596 C 9.548 44.635,5.313 38.701,1.360 28.635 C -0.052 25.039,0.026 25.185,0.013 26.130 M39.866 26.614 C 40.087 26.657,40.450 26.657,40.671 26.614 C 40.893 26.571,40.711 26.536,40.268 26.536 C 39.826 26.536,39.644 26.571,39.866 26.614 M7.875 27.260 C 7.875 27.290,8.136 27.552,8.456 27.841 L 9.038 28.367 8.512 27.785 C 8.022 27.243,7.875 27.121,7.875 27.260 M39.640 27.775 C 39.575 27.941,39.560 28.223,39.606 28.401 C 39.658 28.600,39.700 28.518,39.717 28.188 L 39.744 27.651 40.000 28.098 C 40.141 28.345,40.259 28.461,40.262 28.356 C 40.277 27.924,39.767 27.448,39.640 27.775 M40.297 29.232 C 40.269 29.904,40.603 30.110,40.763 29.519 C 40.823 29.296,40.809 29.296,40.654 29.518 C 40.516 29.716,40.458 29.633,40.400 29.160 L 40.326 28.546 40.297 29.232 M8.233 29.049 C 8.233 29.080,8.494 29.342,8.814 29.631 L 9.396 30.157 8.870 29.575 C 8.380 29.033,8.233 28.911,8.233 29.049 M41.184 29.843 C 41.168 30.153,41.256 30.241,41.566 30.225 C 41.851 30.211,41.881 30.181,41.666 30.125 C 41.500 30.081,41.328 29.909,41.285 29.743 C 41.228 29.529,41.199 29.558,41.184 29.843 M7.159 31.018 C 7.159 31.049,7.421 31.311,7.740 31.600 L 8.322 32.125 7.796 31.544 C 7.307 31.001,7.159 30.880,7.159 31.018 M43.122 32.886 L 42.506 33.557 43.177 32.940 C 43.801 32.366,43.930 32.215,43.793 32.215 C 43.764 32.215,43.462 32.517,43.122 32.886 M9.843 33.736 C 10.177 34.081,10.491 34.362,10.540 34.362 C 10.589 34.362,10.356 34.081,10.022 33.736 C 9.688 33.391,9.375 33.110,9.326 33.110 C 9.277 33.110,9.509 33.391,9.843 33.736 M27.341 36.819 C 27.663 36.859,28.146 36.858,28.415 36.817 C 28.684 36.776,28.421 36.743,27.830 36.744 C 27.239 36.746,27.019 36.779,27.341 36.819 M31.365 37.894 C 31.832 37.931,32.597 37.931,33.065 37.894 C 33.532 37.858,33.150 37.827,32.215 37.827 C 31.280 37.827,30.897 37.858,31.365 37.894 M45.641 39.776 C 41.845 49.742,35.896 60.060,24.103 77.136 C 23.389 78.170,22.207 79.895,21.477 80.970 L 20.148 82.924 21.752 84.412 C 23.647 86.170,23.372 86.180,24.694 84.295 C 38.151 65.098,45.680 49.536,46.468 39.287 C 46.619 37.327,46.561 37.361,45.641 39.776 M26.260 38.071 C 26.578 38.111,27.141 38.111,27.513 38.072 C 27.884 38.034,27.624 38.001,26.935 38.001 C 26.246 38.000,25.942 38.031,26.260 38.071 M1.262 41.376 C 1.257 41.641,1.452 43.010,1.696 44.419 C 4.381 59.934,10.014 72.669,17.671 80.534 L 19.503 82.416 19.868 81.969 C 20.570 81.106,22.908 77.688,22.908 77.524 C 22.908 77.432,22.280 76.644,21.512 75.771 C 13.552 66.722,6.551 55.191,2.727 44.832 C 2.328 43.749,1.837 42.421,1.636 41.879 C 1.357 41.125,1.269 41.007,1.262 41.376 M3.954 41.790 C 3.954 41.888,4.148 42.331,4.385 42.774 C 4.622 43.217,4.816 43.499,4.816 43.400 C 4.816 43.302,4.622 42.859,4.385 42.416 C 4.148 41.973,3.954 41.691,3.954 41.790 M12.882 46.348 C 13.090 46.640,13.352 46.936,13.464 47.005 C 13.575 47.074,13.441 46.835,13.166 46.474 C 12.567 45.689,12.342 45.589,12.882 46.348 M40.834 47.882 C 40.535 48.541,40.592 48.681,40.916 48.083 C 41.067 47.803,41.158 47.541,41.117 47.500 C 41.076 47.459,40.949 47.631,40.834 47.882 M38.171 48.633 C 38.641 48.670,39.366 48.669,39.782 48.632 C 40.197 48.594,39.812 48.564,38.926 48.565 C 38.040 48.565,37.700 48.596,38.171 48.633 M34.231 48.809 C 34.503 48.850,34.905 48.849,35.126 48.806 C 35.346 48.764,35.123 48.730,34.631 48.731 C 34.139 48.733,33.959 48.767,34.231 48.809 M30.920 48.989 C 31.242 49.029,31.725 49.028,31.994 48.987 C 32.263 48.946,32.000 48.914,31.409 48.915 C 30.819 48.916,30.599 48.949,30.920 48.989 M27.427 49.166 C 27.698 49.207,28.141 49.207,28.412 49.166 C 28.682 49.125,28.461 49.092,27.919 49.092 C 27.378 49.092,27.157 49.125,27.427 49.166 M23.490 49.345 C 23.761 49.386,24.204 49.386,24.474 49.345 C 24.745 49.304,24.523 49.271,23.982 49.271 C 23.441 49.271,23.219 49.304,23.490 49.345 M33.602 49.343 C 33.823 49.386,34.186 49.386,34.407 49.343 C 34.629 49.301,34.447 49.266,34.004 49.266 C 33.562 49.266,33.380 49.301,33.602 49.343 M35.678 50.649 C 35.678 51.485,35.709 51.828,35.746 51.409 C 35.784 50.991,35.784 50.306,35.746 49.888 C 35.709 49.470,35.678 49.812,35.678 50.649 M19.824 49.526 C 20.146 49.566,20.629 49.565,20.898 49.524 C 21.167 49.483,20.904 49.450,20.313 49.451 C 19.723 49.452,19.503 49.486,19.824 49.526 M30.472 49.524 C 30.744 49.566,31.147 49.564,31.367 49.522 C 31.587 49.479,31.365 49.446,30.872 49.447 C 30.380 49.449,30.200 49.483,30.472 49.524 M27.069 49.703 C 27.340 49.744,27.783 49.744,28.054 49.703 C 28.324 49.662,28.103 49.629,27.562 49.629 C 27.020 49.629,26.799 49.662,27.069 49.703 M24.116 49.880 C 24.338 49.923,24.700 49.923,24.922 49.880 C 25.143 49.838,24.962 49.803,24.519 49.803 C 24.076 49.803,23.895 49.838,24.116 49.880 M45.331 50.467 C 45.383 50.665,45.347 50.876,45.251 50.935 C 45.155 50.994,45.120 51.156,45.172 51.293 C 45.225 51.431,45.187 51.544,45.087 51.544 C 44.988 51.544,44.922 51.644,44.942 51.767 C 44.962 51.890,44.932 52.112,44.875 52.260 C 44.529 53.153,43.644 56.050,43.621 56.362 C 43.605 56.566,43.521 56.734,43.433 56.734 C 43.345 56.734,43.319 56.855,43.376 57.002 C 43.432 57.150,43.392 57.271,43.286 57.271 C 43.180 57.271,43.140 57.391,43.197 57.539 C 43.253 57.687,43.217 57.808,43.116 57.808 C 43.015 57.808,42.982 57.888,43.043 57.987 C 43.103 58.085,43.059 58.166,42.944 58.166 C 42.830 58.166,42.782 58.286,42.839 58.434 C 42.895 58.582,42.855 58.702,42.749 58.702 C 42.643 58.702,42.603 58.823,42.660 58.971 C 42.716 59.119,42.687 59.239,42.595 59.239 C 42.503 59.239,42.479 59.373,42.542 59.537 C 42.625 59.755,42.591 59.795,42.416 59.687 C 42.241 59.578,42.207 59.619,42.291 59.836 C 42.353 60.000,42.329 60.134,42.237 60.134 C 42.145 60.134,42.121 60.268,42.184 60.432 C 42.267 60.650,42.233 60.690,42.058 60.582 C 41.883 60.473,41.849 60.514,41.933 60.731 C 42.082 61.121,41.895 61.597,41.651 61.446 C 41.532 61.372,41.503 61.439,41.575 61.626 C 41.723 62.014,41.537 62.492,41.296 62.343 C 41.186 62.275,41.161 62.313,41.237 62.435 C 41.405 62.707,41.186 63.391,40.974 63.260 C 40.883 63.204,40.854 63.273,40.908 63.414 C 41.296 64.425,34.436 77.496,28.746 86.588 C 27.138 89.158,27.137 89.167,28.239 90.253 C 29.461 91.457,29.151 91.696,31.327 87.875 C 37.110 77.721,42.701 65.208,43.842 59.866 C 43.926 59.472,44.154 58.616,44.350 57.963 C 44.545 57.310,44.909 55.619,45.158 54.205 C 45.826 50.409,45.832 50.335,45.513 50.213 C 45.305 50.133,45.260 50.196,45.331 50.467 M23.754 52.210 C 24.072 52.249,24.636 52.250,25.007 52.211 C 25.379 52.172,25.119 52.140,24.430 52.139 C 23.740 52.138,23.437 52.170,23.754 52.210 M32.791 53.110 C 32.514 53.380,32.452 53.472,32.654 53.313 C 32.855 53.154,33.181 52.935,33.378 52.826 C 33.575 52.717,33.637 52.626,33.515 52.623 C 33.394 52.620,33.068 52.839,32.791 53.110 M24.027 53.104 C 24.298 53.145,24.740 53.145,25.011 53.104 C 25.282 53.063,25.060 53.029,24.519 53.029 C 23.978 53.029,23.756 53.063,24.027 53.104 M34.947 53.283 C 35.219 53.324,35.621 53.323,35.841 53.280 C 36.062 53.238,35.839 53.204,35.347 53.206 C 34.855 53.207,34.674 53.242,34.947 53.283 M21.989 53.702 L 21.566 54.070 22.103 53.756 C 22.810 53.342,22.820 53.333,22.600 53.333 C 22.496 53.333,22.221 53.499,21.989 53.702 M33.009 54.094 L 32.483 54.676 33.065 54.150 C 33.385 53.861,33.647 53.599,33.647 53.568 C 33.647 53.430,33.499 53.552,33.009 54.094 M27.403 54.130 C 27.562 54.332,27.781 54.658,27.890 54.855 C 27.998 55.051,28.090 55.113,28.093 54.992 C 28.096 54.870,27.877 54.544,27.606 54.267 C 27.336 53.990,27.244 53.928,27.403 54.130 M32.077 56.376 C 32.077 56.720,32.114 56.861,32.159 56.689 C 32.204 56.517,32.204 56.235,32.159 56.063 C 32.114 55.890,32.077 56.031,32.077 56.376 M29.396 56.823 C 29.398 57.217,29.435 57.357,29.478 57.134 C 29.521 56.912,29.519 56.590,29.474 56.418 C 29.429 56.247,29.394 56.430,29.396 56.823 M35.293 56.770 C 35.175 56.888,35.088 57.149,35.099 57.351 C 35.119 57.711,35.122 57.711,35.208 57.360 C 35.256 57.163,35.378 56.902,35.477 56.779 C 35.709 56.493,35.576 56.487,35.293 56.770 M22.261 58.117 C 22.598 58.515,22.921 58.512,22.894 58.110 C 22.885 57.967,22.849 57.974,22.786 58.132 C 22.714 58.313,22.605 58.292,22.308 58.042 L 21.924 57.718 22.261 58.117 M24.734 58.201 C 24.418 58.517,24.470 58.784,24.922 59.167 L 25.324 59.508 24.974 59.095 C 24.684 58.753,24.661 58.623,24.842 58.335 C 25.089 57.938,25.048 57.887,24.734 58.201 M40.655 58.621 C 40.356 59.279,40.413 59.419,40.737 58.821 C 40.888 58.541,40.979 58.279,40.938 58.238 C 40.897 58.198,40.770 58.370,40.655 58.621 M32.573 63.356 C 32.362 63.651,32.231 63.893,32.280 63.893 C 32.329 63.893,32.541 63.651,32.752 63.356 C 32.962 63.060,33.094 62.819,33.045 62.819 C 32.995 62.819,32.783 63.060,32.573 63.356 M17.718 63.054 C 17.718 63.085,17.980 63.346,18.300 63.635 L 18.881 64.161 18.356 63.579 C 17.866 63.037,17.718 62.915,17.718 63.054 M27.919 64.307 C 27.919 64.337,28.181 64.599,28.501 64.888 L 29.083 65.414 28.557 64.832 C 28.067 64.290,27.919 64.168,27.919 64.307 M14.139 65.414 C 14.443 65.857,14.733 66.219,14.782 66.219 C 14.832 66.219,14.622 65.857,14.318 65.414 C 14.013 64.971,13.723 64.609,13.674 64.609 C 13.625 64.609,13.834 64.971,14.139 65.414 M20.403 66.130 C 20.737 66.474,21.050 66.756,21.099 66.756 C 21.149 66.756,20.916 66.474,20.582 66.130 C 20.248 65.785,19.934 65.503,19.885 65.503 C 19.836 65.503,20.069 65.785,20.403 66.130 M29.686 66.280 C 30.002 66.662,30.319 66.657,30.627 66.264 C 30.852 65.977,30.845 65.972,30.545 66.208 C 30.267 66.427,30.157 66.429,29.829 66.224 C 29.475 66.004,29.462 66.009,29.686 66.280 M22.006 67.875 C 22.445 68.342,22.827 68.725,22.856 68.725 C 22.990 68.725,22.848 68.564,22.058 67.822 L 21.208 67.025 22.006 67.875 M16.640 68.898 C 16.849 69.191,17.110 69.486,17.222 69.555 C 17.334 69.624,17.200 69.385,16.924 69.024 C 16.326 68.240,16.100 68.140,16.640 68.898 M24.251 70.336 C 24.835 70.926,25.353 71.409,25.403 71.409 C 25.452 71.409,25.014 70.926,24.430 70.336 C 23.845 69.745,23.327 69.262,23.277 69.262 C 23.228 69.262,23.666 69.745,24.251 70.336 M36.779 71.588 C 36.626 71.884,36.541 72.125,36.590 72.125 C 36.640 72.125,36.805 71.884,36.957 71.588 C 37.110 71.293,37.195 71.051,37.146 71.051 C 37.096 71.051,36.931 71.293,36.779 71.588 M20.582 73.792 C 20.582 73.823,20.843 74.085,21.163 74.374 L 21.745 74.899 21.219 74.318 C 20.729 73.775,20.582 73.654,20.582 73.792 M35.347 74.273 C 35.194 74.568,35.109 74.810,35.159 74.810 C 35.208 74.810,35.373 74.568,35.526 74.273 C 35.678 73.978,35.763 73.736,35.714 73.736 C 35.665 73.736,35.499 73.978,35.347 74.273 M22.192 75.582 C 22.192 75.613,22.454 75.874,22.774 76.163 L 23.356 76.689 22.830 76.107 C 22.340 75.565,22.192 75.443,22.192 75.582 M33.557 77.494 C 33.404 77.790,33.320 78.031,33.369 78.031 C 33.418 78.031,33.583 77.790,33.736 77.494 C 33.889 77.199,33.973 76.957,33.924 76.957 C 33.875 76.957,33.710 77.199,33.557 77.494 M24.966 87.338 C 25.551 87.928,26.069 88.412,26.119 88.412 C 26.168 88.412,25.730 87.928,25.145 87.338 C 24.561 86.747,24.043 86.264,23.993 86.264 C 23.944 86.264,24.382 86.747,24.966 87.338 " stroke="none" fill="#2b5a8a" fill-rule="evenodd"></path><path id="path3" d="" stroke="none" fill="#c4100c4" fill-rule="evenodd"></path><path id="path4" d="" stroke="none" fill="#c4100c4" fill-rule="evenodd"></path></g></svg>