<svg id="svg" version="1.1" xmlns="http://www.w3.org/2000/svg" xmlns:xlink="http://www.w3.org/1999/xlink" width="400" height="104.41176470588236" viewBox="0, 0, 400,104.41176470588236"><g id="svgg"><path id="path0" d="M65.832 29.001 C 65.475 29.359,65.367 61.922,65.722 62.278 C 65.799 62.354,70.374 62.417,75.889 62.417 L 85.917 62.417 85.968 61.715 L 86.019 61.013 87.468 60.965 L 88.917 60.917 88.968 60.208 L 89.019 59.500 89.760 59.500 L 90.500 59.500 90.500 58.768 L 90.500 58.036 91.739 57.974 C 93.257 57.897,93.231 57.924,93.307 56.405 C 93.369 55.174,93.372 55.167,93.838 55.167 C 94.780 55.167,94.833 55.081,94.833 53.566 L 94.833 52.167 95.321 52.167 C 95.590 52.167,95.927 52.049,96.071 51.905 C 96.310 51.667,96.333 52.106,96.333 56.738 C 96.333 61.627,96.347 61.847,96.670 62.170 C 97.027 62.527,120.757 62.632,121.111 62.278 C 121.292 62.096,121.293 54.070,121.111 53.889 C 121.035 53.812,117.754 53.729,113.820 53.703 L 106.667 53.656 106.667 51.412 L 106.667 49.167 113.250 49.167 L 119.833 49.167 119.833 44.934 C 119.833 41.229,119.801 40.690,119.570 40.601 C 119.425 40.546,116.462 40.500,112.986 40.500 L 106.667 40.500 106.667 39.000 L 106.667 37.500 113.250 37.500 L 119.833 37.500 119.833 33.083 L 119.833 28.667 108.417 28.667 C 97.222 28.667,96.994 28.673,96.667 29.000 C 96.348 29.319,96.333 29.556,96.333 34.429 C 96.333 39.061,96.310 39.500,96.071 39.262 C 95.927 39.118,95.590 39.000,95.321 39.000 L 94.833 39.000 94.833 37.583 L 94.833 36.167 94.083 36.167 L 93.333 36.167 93.333 35.417 L 93.333 34.667 92.583 34.667 L 91.833 34.667 91.833 33.917 L 91.833 33.167 91.176 33.167 C 90.522 33.167,90.519 33.163,90.468 32.458 C 90.417 31.755,90.412 31.750,89.717 31.699 C 89.025 31.649,89.018 31.642,88.967 30.949 L 88.917 30.250 87.468 30.202 L 86.019 30.154 85.968 29.452 L 85.917 28.750 76.043 28.707 C 66.326 28.665,66.164 28.669,65.832 29.001 M122.911 28.873 C 122.867 28.988,122.850 36.583,122.874 45.750 L 122.917 62.417 134.583 62.417 L 146.250 62.417 146.250 58.083 L 146.250 53.750 139.709 53.706 L 133.169 53.663 133.126 41.206 L 133.083 28.750 128.037 28.706 C 124.090 28.671,122.974 28.708,122.911 28.873 M143.500 33.083 L 143.500 37.500 147.164 37.500 L 150.827 37.500 150.872 49.819 C 150.897 56.595,150.979 62.201,151.055 62.278 C 151.132 62.354,153.400 62.439,156.097 62.465 L 161.000 62.514 161.000 50.007 L 161.000 37.500 165.417 37.500 L 169.833 37.500 169.833 33.083 L 169.833 28.667 156.667 28.667 L 143.500 28.667 143.500 33.083 M177.333 29.417 C 177.333 30.135,177.313 30.167,176.845 30.167 C 175.957 30.167,175.833 30.473,175.833 32.679 L 175.833 34.667 175.186 34.667 C 174.380 34.667,174.339 34.791,174.336 37.208 L 174.333 39.000 173.845 39.000 C 172.957 39.000,172.833 39.306,172.833 41.512 L 172.833 43.500 172.283 43.500 C 171.411 43.500,171.333 43.693,171.333 45.867 L 171.333 47.833 170.930 47.833 C 170.015 47.833,170.000 47.871,170.000 50.175 L 170.000 52.314 169.292 52.365 L 168.583 52.417 168.537 54.542 L 168.490 56.667 168.007 56.667 C 167.065 56.667,166.987 56.921,167.038 59.808 L 167.083 62.417 172.125 62.461 L 177.167 62.505 177.167 61.752 C 177.167 61.084,177.208 61.000,177.542 60.998 C 178.671 60.991,178.667 61.000,178.667 58.647 L 178.667 56.500 182.417 56.500 L 186.167 56.500 186.167 58.000 L 186.167 59.500 186.917 59.500 L 187.667 59.500 187.667 61.012 L 187.667 62.524 193.180 62.470 C 199.453 62.409,199.167 62.481,199.167 60.980 C 199.167 60.099,198.868 59.667,198.259 59.667 C 197.885 59.667,197.873 59.618,197.802 57.763 C 197.723 55.686,197.583 55.333,196.836 55.333 L 196.379 55.333 196.296 53.306 C 196.206 51.123,196.080 50.833,195.218 50.833 C 194.839 50.833,194.833 50.807,194.833 48.942 C 194.833 46.887,194.715 46.594,193.833 46.474 C 193.421 46.417,193.416 46.397,193.315 44.333 C 193.195 41.874,193.310 42.193,192.500 42.064 L 191.833 41.957 191.833 40.134 C 191.833 38.066,191.701 37.667,191.015 37.667 L 190.542 37.667 190.469 35.756 C 190.389 33.675,190.178 33.167,189.391 33.167 C 189.013 33.167,189.000 33.120,188.990 31.792 C 188.968 28.525,189.311 28.689,182.458 28.676 L 177.333 28.667 177.333 29.417 M209.778 28.778 C 209.717 28.839,209.667 34.640,209.667 41.669 C 209.667 55.759,209.601 54.881,210.667 55.026 C 211.066 55.081,211.087 55.142,211.167 56.500 L 211.250 57.917 211.958 57.968 L 212.667 58.019 212.667 58.760 L 212.667 59.500 213.333 59.500 C 213.976 59.500,214.000 59.519,214.000 60.050 C 214.000 60.740,214.254 61.000,214.929 61.000 C 215.414 61.000,215.466 61.053,215.561 61.647 C 215.689 62.448,215.835 62.495,218.199 62.498 L 219.981 62.500 220.032 63.208 L 220.083 63.917 223.583 63.917 L 227.083 63.917 227.134 63.213 L 227.185 62.510 229.384 62.463 L 231.583 62.417 231.633 61.731 L 231.684 61.046 232.883 60.937 C 234.163 60.820,234.500 60.601,234.500 59.885 C 234.500 59.594,234.594 59.500,234.885 59.500 C 235.658 59.500,236.000 58.939,236.000 57.670 L 236.000 56.519 236.708 56.468 L 237.417 56.417 237.417 42.583 L 237.417 28.750 232.417 28.750 L 227.417 28.750 227.374 40.542 L 227.331 52.333 225.933 52.333 C 224.438 52.333,224.333 52.394,224.333 53.264 C 224.333 54.060,222.868 53.847,222.802 53.042 C 222.752 52.436,222.728 52.415,222.051 52.366 C 221.358 52.316,221.351 52.308,221.301 51.616 C 221.250 50.922,221.245 50.916,220.542 50.865 L 219.833 50.814 219.833 39.740 L 219.833 28.667 214.861 28.667 C 212.126 28.667,209.839 28.717,209.778 28.778 M240.577 28.874 C 240.533 28.989,240.517 36.583,240.540 45.750 L 240.583 62.417 245.625 62.461 L 250.667 62.505 250.667 57.338 L 250.667 52.171 255.792 52.127 L 260.917 52.083 260.968 51.382 L 261.019 50.680 262.384 50.632 L 263.750 50.583 263.907 49.875 C 264.031 49.314,264.138 49.167,264.417 49.167 C 265.099 49.167,265.322 48.814,265.437 47.550 L 265.546 46.351 266.148 46.300 L 266.750 46.250 266.794 40.458 L 266.838 34.667 266.193 34.667 L 265.548 34.667 265.449 33.486 C 265.337 32.149,265.156 31.833,264.502 31.833 C 264.092 31.833,264.034 31.762,263.953 31.153 C 263.832 30.254,263.842 30.260,262.329 30.192 L 261.017 30.132 260.967 29.441 L 260.917 28.750 250.787 28.707 C 242.772 28.673,240.641 28.708,240.577 28.874 M272.935 28.928 C 272.879 29.074,272.833 29.410,272.833 29.674 L 272.833 30.153 271.458 30.202 L 270.083 30.250 270.033 30.949 C 269.982 31.642,269.975 31.649,269.283 31.699 L 268.583 31.750 268.535 33.199 L 268.487 34.648 267.785 34.699 L 267.083 34.750 267.083 38.691 C 267.083 42.993,267.158 43.333,268.100 43.333 C 268.429 43.333,268.488 43.430,268.532 44.042 C 268.583 44.745,268.588 44.750,269.283 44.801 C 269.975 44.851,269.982 44.858,270.033 45.551 C 270.082 46.228,270.103 46.252,270.708 46.302 C 271.246 46.346,271.333 46.411,271.333 46.760 C 271.333 47.634,271.812 47.833,273.907 47.833 L 275.813 47.833 275.865 48.458 L 275.917 49.083 278.032 49.130 L 280.148 49.176 280.199 49.880 C 280.250 50.579,280.254 50.584,280.958 50.635 L 281.667 50.686 281.667 51.510 L 281.667 52.333 281.089 52.333 C 280.477 52.333,280.167 52.666,280.167 53.322 C 280.167 54.068,278.698 53.798,278.635 53.042 L 278.583 52.417 277.134 52.369 L 275.685 52.321 275.634 51.619 L 275.583 50.917 272.792 50.871 L 270.000 50.825 270.000 51.579 L 270.000 52.333 269.250 52.333 L 268.500 52.333 268.500 53.000 C 268.500 53.643,268.481 53.667,267.950 53.667 C 267.077 53.667,267.000 53.859,267.000 56.033 L 267.000 58.000 267.750 58.000 L 268.500 58.000 268.500 58.750 L 268.500 59.500 269.240 59.500 L 269.981 59.500 270.032 60.208 L 270.083 60.917 271.449 60.965 L 272.815 61.013 272.866 61.715 L 272.917 62.417 279.850 62.417 C 287.392 62.417,287.333 62.424,287.333 61.489 C 287.333 61.046,287.380 61.015,288.125 60.967 L 288.917 60.917 288.967 60.217 C 289.018 59.525,289.025 59.518,289.717 59.467 C 290.412 59.417,290.417 59.412,290.468 58.708 C 290.519 58.003,290.522 58.000,291.178 58.000 L 291.838 58.000 291.794 52.208 L 291.750 46.417 291.125 46.365 C 290.561 46.318,290.500 46.267,290.500 45.837 C 290.500 45.013,290.350 44.833,289.659 44.833 C 289.041 44.833,289.018 44.813,288.968 44.208 L 288.917 43.583 287.458 43.535 L 286.000 43.487 286.000 42.744 L 286.000 42.000 283.843 42.000 L 281.686 42.000 281.635 41.292 L 281.583 40.583 280.125 40.535 L 278.667 40.487 278.667 39.827 C 278.667 39.311,278.603 39.166,278.375 39.162 C 278.097 39.157,278.097 39.148,278.375 38.987 C 278.575 38.870,278.667 38.610,278.667 38.158 L 278.667 37.500 279.417 37.500 C 280.106 37.500,280.167 37.534,280.167 37.917 C 280.167 38.685,280.696 39.000,281.990 39.000 L 283.147 39.000 283.198 39.625 L 283.250 40.250 285.333 40.250 L 287.417 40.250 287.468 39.625 C 287.517 39.042,287.556 39.000,288.060 39.000 C 288.743 39.000,289.000 38.743,289.000 38.060 C 289.000 37.543,289.031 37.517,289.708 37.468 C 290.412 37.417,290.417 37.412,290.467 36.718 C 290.516 36.043,290.540 36.017,291.134 35.968 L 291.750 35.917 291.798 34.542 L 291.847 33.167 291.173 33.167 C 290.523 33.167,290.500 33.148,290.500 32.617 C 290.500 31.921,290.245 31.667,289.550 31.667 C 289.053 31.667,289.000 31.620,289.000 31.179 C 289.000 30.377,288.636 30.167,287.248 30.167 L 286.019 30.167 285.968 29.458 L 285.917 28.750 279.477 28.706 C 273.713 28.667,273.026 28.691,272.935 28.928 M293.500 45.583 L 293.500 62.500 298.583 62.500 L 303.667 62.500 303.667 45.583 L 303.667 28.667 298.583 28.667 L 293.500 28.667 293.500 45.583 M306.743 28.875 C 306.700 28.990,306.683 36.583,306.707 45.750 L 306.750 62.417 318.417 62.417 L 330.083 62.417 330.083 58.083 L 330.083 53.750 323.458 53.706 L 316.833 53.663 316.833 41.165 L 316.833 28.667 311.828 28.667 C 307.977 28.667,306.805 28.715,306.743 28.875 M339.333 29.000 C 339.150 29.183,339.000 29.510,339.000 29.726 C 339.000 30.092,338.919 30.126,337.792 30.229 C 336.504 30.346,336.167 30.565,336.167 31.282 C 336.167 31.596,336.077 31.667,335.680 31.667 C 334.842 31.667,334.667 31.814,334.667 32.518 C 334.667 33.161,334.661 33.167,334.018 33.167 C 333.314 33.167,333.167 33.342,333.167 34.180 C 333.167 34.634,333.123 34.667,332.519 34.667 C 331.757 34.667,331.672 34.846,331.669 36.458 C 331.667 37.498,331.666 37.500,331.180 37.500 C 330.211 37.500,330.167 37.573,330.167 39.184 L 330.167 40.667 329.673 40.667 C 328.853 40.667,328.813 40.920,328.867 45.843 C 328.920 50.681,328.916 50.658,329.792 50.664 C 330.151 50.667,330.167 50.727,330.167 52.066 C 330.167 53.586,330.218 53.667,331.180 53.667 L 331.667 53.667 331.667 54.820 C 331.667 56.365,331.734 56.500,332.508 56.500 C 333.141 56.500,333.148 56.507,333.199 57.208 C 333.250 57.913,333.253 57.917,333.958 57.968 L 334.667 58.019 334.667 58.760 L 334.667 59.500 335.417 59.500 C 336.089 59.500,336.167 59.540,336.167 59.885 C 336.167 60.599,336.505 60.820,337.774 60.936 L 338.965 61.045 339.064 61.669 C 339.201 62.524,338.923 62.495,347.083 62.495 C 355.270 62.495,354.965 62.528,355.106 61.647 L 355.209 61.000 356.355 61.000 C 357.637 61.000,358.167 60.683,358.167 59.917 C 358.167 59.542,358.233 59.500,358.833 59.500 L 359.500 59.500 359.500 58.750 L 359.500 58.000 360.250 58.000 L 361.000 58.000 361.000 57.250 L 361.000 56.500 361.649 56.500 C 362.433 56.500,362.500 56.368,362.500 54.829 L 362.500 53.686 363.208 53.635 L 363.917 53.583 363.965 52.125 L 364.013 50.667 364.594 50.667 C 365.450 50.667,365.500 50.378,365.500 45.418 C 365.500 40.601,365.480 40.500,364.511 40.500 L 364.046 40.500 363.961 38.555 C 363.868 36.461,363.736 36.167,362.885 36.167 C 362.598 36.167,362.499 36.072,362.498 35.792 C 362.492 34.885,362.327 34.667,361.647 34.667 L 361.000 34.667 361.000 33.917 L 361.000 33.167 360.260 33.167 L 359.519 33.167 359.468 32.458 C 359.418 31.771,359.398 31.748,358.792 31.698 C 358.254 31.654,358.167 31.589,358.167 31.240 C 358.167 30.479,357.633 30.167,356.333 30.167 C 355.200 30.167,355.167 30.155,355.167 29.750 C 355.167 28.650,355.289 28.667,347.083 28.667 C 339.889 28.667,339.657 28.677,339.333 29.000 M367.080 28.866 C 367.035 28.986,367.017 36.583,367.040 45.750 L 367.083 62.417 372.125 62.461 L 377.167 62.505 377.196 55.127 C 377.212 51.070,377.254 48.069,377.289 48.458 L 377.352 49.167 378.093 49.167 L 378.833 49.167 378.833 50.261 C 378.833 51.617,379.018 52.000,379.673 52.000 C 380.134 52.000,380.167 52.042,380.167 52.633 C 380.167 53.404,380.402 53.667,381.093 53.667 L 381.619 53.667 381.729 54.875 C 381.846 56.159,382.065 56.500,382.772 56.500 C 383.095 56.500,383.155 56.600,383.199 57.208 C 383.250 57.913,383.253 57.917,383.958 57.968 L 384.667 58.019 384.667 59.150 C 384.667 60.385,384.882 60.753,385.667 60.860 C 386.026 60.909,386.095 61.021,386.167 61.667 L 386.250 62.417 391.814 62.461 C 395.780 62.492,397.443 62.450,397.605 62.315 C 397.921 62.053,397.948 29.182,397.633 28.867 C 397.487 28.720,396.126 28.667,392.550 28.667 L 387.667 28.667 387.647 36.792 C 387.637 41.260,387.604 44.804,387.574 44.667 C 387.545 44.529,387.473 43.985,387.415 43.458 C 387.299 42.408,387.019 42.000,386.414 42.000 C 386.069 42.000,386.013 41.911,385.968 41.292 C 385.917 40.587,385.913 40.583,385.208 40.532 L 384.500 40.481 384.500 39.396 C 384.500 38.056,384.313 37.667,383.670 37.667 C 383.219 37.667,383.182 37.617,383.135 36.958 C 383.084 36.258,383.076 36.249,382.398 36.200 L 381.714 36.150 381.615 34.972 C 381.507 33.680,381.206 33.167,380.558 33.167 C 380.226 33.167,380.167 33.083,380.167 32.617 C 380.167 31.921,379.912 31.667,379.217 31.667 L 378.667 31.667 378.667 30.504 C 378.667 28.697,378.885 28.761,372.464 28.700 C 368.228 28.659,367.146 28.693,367.080 28.866 M80.167 38.149 C 80.167 38.939,80.292 39.000,81.930 39.000 L 83.167 39.000 83.167 39.667 L 83.167 40.333 83.917 40.333 L 84.667 40.333 84.667 41.833 L 84.667 43.333 85.417 43.333 L 86.167 43.333 86.167 45.583 L 86.167 47.833 85.680 47.833 C 84.718 47.833,84.667 47.914,84.667 49.434 L 84.667 50.833 83.917 50.833 L 83.167 50.833 83.167 51.577 L 83.167 52.320 81.708 52.369 L 80.250 52.417 80.198 53.042 L 80.147 53.667 78.657 53.667 L 77.167 53.667 77.167 45.583 L 77.167 37.500 78.667 37.500 L 80.167 37.500 80.167 38.149 M255.199 38.208 C 255.250 38.913,255.253 38.917,255.958 38.968 L 256.667 39.019 256.667 40.510 L 256.667 42.000 255.917 42.000 L 255.167 42.000 255.167 42.750 L 255.167 43.500 252.917 43.500 L 250.667 43.500 250.667 40.500 L 250.667 37.500 252.907 37.500 L 255.148 37.500 255.199 38.208 M349.365 38.208 L 349.417 38.917 350.208 38.967 C 350.960 39.016,351.000 39.043,351.000 39.503 C 351.000 40.013,351.374 40.333,351.968 40.333 C 352.216 40.333,352.315 40.488,352.397 40.998 C 352.497 41.620,352.546 41.670,353.168 41.770 L 353.833 41.876 353.833 42.949 C 353.833 44.284,354.020 44.667,354.673 44.667 C 355.154 44.667,355.167 44.687,355.167 45.500 C 355.167 46.270,355.136 46.333,354.764 46.333 C 353.894 46.333,353.833 46.438,353.833 47.934 L 353.833 49.333 353.184 49.333 C 352.481 49.333,352.333 49.509,352.333 50.347 C 352.333 50.801,352.290 50.833,351.684 50.833 C 350.981 50.833,350.833 51.009,350.833 51.847 L 350.833 52.333 349.506 52.333 C 348.090 52.333,347.833 52.485,347.833 53.322 C 347.833 53.619,347.730 53.667,347.083 53.667 C 346.436 53.667,346.333 53.619,346.333 53.322 C 346.333 52.486,346.076 52.333,344.670 52.333 L 343.352 52.333 343.301 51.625 C 343.250 50.922,343.245 50.916,342.551 50.866 C 341.858 50.816,341.851 50.808,341.801 50.116 C 341.752 49.439,341.730 49.415,341.125 49.365 L 340.500 49.313 340.500 48.085 C 340.500 46.697,340.290 46.333,339.488 46.333 C 339.013 46.333,339.000 46.310,339.000 45.500 C 339.000 44.693,339.015 44.667,339.480 44.667 C 340.157 44.667,340.336 44.361,340.449 43.014 C 340.532 42.032,340.598 41.833,340.844 41.833 C 341.433 41.833,341.670 41.620,341.769 41.000 C 341.861 40.425,341.925 40.361,342.500 40.269 C 343.124 40.170,343.333 39.933,343.333 39.329 C 343.333 39.084,343.480 39.009,344.042 38.968 C 344.747 38.917,344.750 38.913,344.801 38.208 L 344.852 37.500 347.083 37.500 L 349.314 37.500 349.365 38.208 M183.167 46.333 L 183.167 47.833 182.417 47.833 L 181.667 47.833 181.667 47.000 C 181.667 46.187,181.679 46.167,182.161 46.167 C 182.686 46.167,183.000 45.797,183.000 45.178 C 183.000 44.988,183.037 44.833,183.083 44.833 C 183.129 44.833,183.167 45.508,183.167 46.333 M65.606 72.950 C 65.548 73.008,65.500 76.942,65.500 81.691 L 65.500 90.327 75.000 90.331 L 84.500 90.334 84.500 87.500 L 84.500 84.667 81.583 84.667 L 78.667 84.667 78.667 78.851 C 78.667 73.784,78.634 73.023,78.412 72.938 C 78.065 72.805,65.739 72.816,65.606 72.950 M84.667 81.579 L 84.667 90.333 94.167 90.333 L 103.667 90.333 103.667 81.684 C 103.667 73.952,103.639 73.025,103.403 72.934 C 103.059 72.803,96.941 72.803,96.597 72.934 C 96.364 73.024,96.333 73.702,96.333 78.851 L 96.333 84.667 93.419 84.667 L 90.504 84.667 90.460 78.792 L 90.417 72.917 87.542 72.871 L 84.667 72.825 84.667 81.579 M103.833 81.583 L 103.833 90.333 106.667 90.333 L 109.500 90.333 109.528 87.375 C 109.543 85.748,109.587 84.716,109.624 85.081 C 109.701 85.842,109.867 85.994,110.625 85.997 L 111.167 86.000 111.167 87.070 C 111.167 88.483,111.250 88.649,112.018 88.772 C 112.657 88.874,112.667 88.887,112.667 89.605 L 112.667 90.333 116.250 90.333 L 119.833 90.333 119.833 81.579 L 119.833 72.825 116.958 72.871 L 114.083 72.917 114.037 75.371 C 113.991 77.813,113.990 77.823,113.662 77.496 C 113.481 77.315,113.150 77.167,112.927 77.167 C 112.577 77.167,112.513 77.079,112.468 76.542 C 112.418 75.935,112.396 75.915,111.708 75.865 L 111.000 75.814 111.000 74.486 C 111.000 72.794,111.095 72.833,106.989 72.833 L 103.833 72.833 103.833 81.583 M123.917 72.955 C 123.263 73.052,123.031 73.259,122.968 73.804 C 122.925 74.181,122.826 74.258,122.333 74.301 C 121.660 74.360,121.333 74.704,121.333 75.355 C 121.333 75.764,121.266 75.819,120.708 75.865 L 120.083 75.917 120.083 81.583 L 120.083 87.250 120.708 87.404 C 121.238 87.535,121.333 87.627,121.333 88.009 C 121.333 88.571,121.590 88.791,122.328 88.861 C 122.834 88.910,122.919 88.986,123.019 89.480 C 123.191 90.329,123.187 90.328,129.042 90.331 L 134.500 90.333 134.500 89.583 L 134.500 88.833 135.250 88.833 L 136.000 88.833 136.000 88.176 C 136.000 87.522,136.003 87.519,136.708 87.468 C 137.415 87.417,137.417 87.415,137.498 86.667 C 137.547 86.215,137.614 86.779,137.665 88.083 L 137.750 90.250 141.292 90.295 L 144.833 90.340 144.851 89.545 L 144.869 88.750 145.024 89.441 C 145.230 90.357,145.034 90.328,151.189 90.331 L 156.461 90.333 156.562 89.958 C 156.617 89.752,156.663 89.415,156.664 89.208 C 156.666 88.892,156.757 88.833,157.244 88.833 C 158.119 88.833,158.167 88.610,158.167 84.511 C 158.167 80.084,158.201 80.167,156.350 80.167 L 155.200 80.167 155.141 79.417 C 155.081 78.672,155.085 78.667,155.612 78.667 C 156.274 78.667,156.667 78.290,156.667 77.655 C 156.667 77.211,156.718 77.167,157.230 77.167 C 158.030 77.167,158.191 76.881,158.133 75.557 L 158.083 74.417 157.375 74.365 C 156.698 74.316,156.667 74.290,156.667 73.774 C 156.667 72.831,156.679 72.833,151.564 72.833 C 146.179 72.833,146.333 72.808,146.333 73.684 C 146.333 74.331,146.331 74.333,145.664 74.333 L 144.994 74.333 145.039 78.625 L 145.083 82.917 146.449 82.965 L 147.815 83.013 147.866 83.715 L 147.917 84.417 149.375 84.465 L 150.833 84.513 150.804 85.298 L 150.775 86.083 150.711 85.371 L 150.647 84.659 147.865 84.704 L 145.083 84.750 145.000 85.417 C 144.954 85.783,144.879 83.121,144.833 79.500 L 144.750 72.917 141.537 72.871 C 137.403 72.813,137.674 72.650,137.638 75.214 C 137.622 76.334,137.580 76.931,137.545 76.542 L 137.481 75.833 136.740 75.833 L 136.000 75.833 136.000 75.083 L 136.000 74.333 135.260 74.333 L 134.519 74.333 134.468 73.625 L 134.417 72.917 129.417 72.899 C 126.667 72.889,124.192 72.914,123.917 72.955 M164.111 72.944 C 163.972 73.083,163.963 88.209,164.101 88.570 C 164.169 88.748,164.413 88.833,164.851 88.833 C 165.412 88.833,165.500 88.884,165.502 89.208 C 165.504 89.415,165.550 89.752,165.605 89.958 L 165.706 90.333 170.978 90.331 C 177.113 90.328,176.967 90.349,177.106 89.480 C 177.189 88.962,177.280 88.833,177.568 88.833 C 177.765 88.833,178.093 88.717,178.296 88.574 L 178.667 88.314 178.667 80.570 L 178.667 72.825 175.792 72.871 L 172.917 72.917 172.873 78.792 L 172.829 84.667 172.198 84.667 C 171.851 84.667,171.477 84.757,171.367 84.867 C 171.211 85.022,171.167 85.022,171.167 84.867 C 171.167 84.744,170.907 84.667,170.500 84.667 L 169.833 84.667 169.833 78.750 L 169.833 72.833 167.028 72.833 C 165.485 72.833,164.172 72.883,164.111 72.944 M178.946 72.942 C 178.884 73.005,178.833 76.943,178.833 81.694 L 178.833 90.333 182.417 90.333 L 186.000 90.333 186.031 88.875 L 186.062 87.417 186.156 88.833 L 186.250 90.250 199.375 90.293 L 212.500 90.335 212.500 89.584 C 212.500 88.936,212.547 88.833,212.844 88.833 C 213.463 88.833,213.833 88.519,213.833 87.994 C 213.833 87.512,213.854 87.500,214.667 87.500 L 215.500 87.500 215.502 88.542 C 215.504 89.115,215.550 89.752,215.605 89.958 L 215.706 90.333 222.186 90.333 L 228.667 90.333 228.700 87.375 C 228.719 85.748,228.758 85.017,228.789 85.750 C 228.847 87.176,229.029 87.500,229.772 87.500 C 230.085 87.500,230.155 87.603,230.198 88.125 C 230.248 88.732,230.271 88.752,230.958 88.801 L 231.667 88.852 231.667 89.593 L 231.667 90.333 238.250 90.333 L 244.833 90.333 244.833 88.917 L 244.833 87.500 246.333 87.500 L 247.833 87.500 247.833 88.920 L 247.833 90.340 251.458 90.295 L 255.083 90.250 255.133 89.110 C 255.191 87.786,255.030 87.500,254.230 87.500 L 253.667 87.500 253.667 86.003 L 253.667 84.506 258.042 84.461 L 262.417 84.417 262.417 82.333 L 262.417 80.250 257.381 80.206 L 252.346 80.162 252.291 81.706 C 252.243 83.040,252.231 82.952,252.201 81.061 C 252.163 78.667,252.167 78.676,251.047 78.669 C 250.686 78.667,250.675 78.611,250.630 76.542 L 250.583 74.417 249.967 74.365 C 249.373 74.316,249.350 74.290,249.301 73.615 L 249.250 72.917 245.855 72.871 C 241.702 72.816,242.000 72.637,242.000 75.187 L 242.000 77.167 241.450 77.167 C 240.572 77.167,240.500 77.353,240.500 79.617 L 240.500 81.667 239.833 81.667 C 239.430 81.667,239.153 81.749,239.132 81.875 C 239.112 81.990,239.056 80.083,239.007 77.639 C 238.957 75.194,238.854 73.131,238.778 73.055 C 238.702 72.979,237.089 72.917,235.195 72.917 L 231.750 72.917 231.659 75.083 C 231.609 76.275,231.553 77.009,231.534 76.714 C 231.498 76.153,231.131 75.833,230.521 75.833 C 230.246 75.833,230.177 75.706,230.135 75.125 C 230.084 74.420,230.080 74.416,229.375 74.365 L 228.667 74.314 228.667 73.574 L 228.667 72.833 225.264 72.833 C 223.392 72.833,221.742 72.879,221.597 72.934 C 221.367 73.023,221.330 73.580,221.311 77.309 C 221.298 79.660,221.253 81.396,221.211 81.167 C 221.105 80.588,220.883 80.362,220.363 80.302 L 219.917 80.250 219.873 78.333 C 219.826 76.247,219.638 75.833,218.738 75.833 C 218.360 75.833,218.345 75.781,218.298 74.375 L 218.250 72.917 214.708 72.872 L 211.167 72.827 211.167 73.580 C 211.167 74.318,211.156 74.333,210.625 74.336 C 209.717 74.340,209.681 74.423,209.630 76.673 L 209.583 78.750 209.137 78.802 C 208.472 78.878,208.337 79.156,208.218 80.688 C 208.159 81.455,208.080 81.989,208.042 81.875 C 208.002 81.756,207.693 81.667,207.319 81.667 L 206.667 81.667 206.667 78.000 L 206.667 74.333 205.926 74.333 L 205.186 74.333 205.135 73.625 L 205.083 72.917 199.292 72.873 L 193.500 72.829 193.475 80.206 C 193.461 84.264,193.405 87.246,193.350 86.833 C 193.251 86.088,193.245 86.083,192.542 86.032 L 191.833 85.981 191.833 84.490 L 191.833 83.000 192.586 83.000 L 193.339 83.000 193.294 78.708 L 193.250 74.417 192.551 74.366 C 191.858 74.316,191.851 74.308,191.801 73.616 L 191.750 72.917 185.405 72.873 C 181.915 72.849,179.009 72.880,178.946 72.942 M266.471 72.952 C 265.941 73.033,265.719 73.268,265.641 73.833 C 265.591 74.191,265.486 74.257,264.892 74.300 C 264.173 74.353,264.008 74.565,264.002 75.448 C 264.000 75.749,263.890 75.822,263.375 75.865 L 262.750 75.917 262.706 81.500 C 262.658 87.597,262.643 87.500,263.615 87.500 C 263.923 87.500,264.001 87.591,264.003 87.958 C 264.006 88.631,264.179 88.802,264.913 88.863 C 265.512 88.912,265.582 88.967,265.686 89.480 C 265.859 90.333,265.867 90.334,271.667 90.290 L 277.083 90.250 277.135 89.542 L 277.186 88.833 277.917 88.833 L 278.648 88.833 278.711 88.125 C 278.746 87.735,278.788 88.073,278.804 88.875 L 278.833 90.333 281.667 90.333 L 284.500 90.333 284.500 87.417 L 284.500 84.500 286.083 84.500 L 287.667 84.500 287.667 87.417 L 287.667 90.333 294.167 90.333 L 300.667 90.333 300.667 88.917 L 300.667 87.500 302.250 87.500 L 303.833 87.500 303.833 88.917 L 303.833 90.333 309.667 90.333 L 315.500 90.333 315.500 87.905 C 315.500 85.697,315.524 85.500,315.762 85.738 C 315.906 85.882,316.239 86.000,316.502 86.000 C 316.946 86.000,316.985 86.051,317.032 86.708 L 317.083 87.417 319.917 87.417 L 322.750 87.417 322.833 88.833 L 322.917 90.250 329.458 90.291 L 336.000 90.332 336.000 88.170 L 336.000 86.008 338.875 85.962 L 341.750 85.917 341.850 85.167 C 341.925 84.604,341.956 84.796,341.975 85.937 L 342.000 87.457 341.353 87.561 C 340.523 87.694,340.217 88.734,340.663 89.906 L 340.825 90.333 344.329 90.333 L 347.833 90.333 347.833 89.583 C 347.833 88.900,347.869 88.833,348.238 88.833 C 348.756 88.833,349.167 88.423,349.167 87.905 C 349.167 87.530,349.229 87.500,350.000 87.500 L 350.833 87.500 350.836 88.542 C 350.837 89.115,350.883 89.753,350.939 89.960 L 351.040 90.337 357.478 90.294 L 363.917 90.250 364.000 88.667 C 364.047 87.770,364.142 87.174,364.218 87.292 C 364.292 87.406,364.607 87.500,364.916 87.500 C 365.447 87.500,365.483 87.536,365.532 88.125 C 365.582 88.732,365.604 88.752,366.292 88.801 C 366.893 88.845,367.000 88.908,367.002 89.218 C 367.004 89.419,367.050 89.752,367.105 89.958 L 367.206 90.333 372.936 90.333 L 378.667 90.333 378.667 89.583 L 378.667 88.833 379.417 88.833 L 380.167 88.833 380.167 88.183 C 380.167 87.534,380.167 87.534,380.911 87.474 L 381.655 87.415 381.702 88.833 L 381.750 90.250 385.333 90.250 L 388.917 90.250 389.009 88.500 C 389.060 87.537,389.116 86.880,389.134 87.040 C 389.157 87.239,389.371 87.362,389.824 87.435 C 390.437 87.533,390.486 87.581,390.533 88.145 C 390.582 88.728,390.609 88.752,391.292 88.801 L 392.000 88.852 392.000 89.593 L 392.000 90.333 395.504 90.333 L 399.008 90.333 399.171 89.906 C 399.535 88.948,399.374 73.541,398.996 73.163 C 398.678 72.845,398.481 72.829,395.371 72.871 L 392.083 72.917 391.994 75.833 C 391.945 77.438,391.889 78.212,391.869 77.554 C 391.830 76.246,391.601 75.833,390.914 75.833 C 390.569 75.833,390.513 75.745,390.468 75.125 C 390.417 74.422,390.412 74.416,389.717 74.366 C 389.025 74.316,389.018 74.308,388.967 73.616 L 388.917 72.917 385.333 72.917 L 381.750 72.917 381.706 76.583 L 381.661 80.250 380.122 80.198 L 378.583 80.146 378.641 79.415 C 378.699 78.688,378.702 78.684,379.391 78.634 L 380.083 78.583 380.134 77.000 C 380.210 74.594,380.131 74.333,379.326 74.333 C 378.745 74.333,378.667 74.287,378.667 73.942 C 378.667 72.960,378.456 72.922,372.755 72.864 C 367.009 72.807,367.000 72.808,367.000 73.836 C 367.000 74.279,366.949 74.318,366.292 74.365 C 365.590 74.416,365.583 74.423,365.533 75.109 C 365.483 75.798,365.479 75.801,364.747 75.860 L 364.011 75.918 363.964 74.417 L 363.917 72.917 360.472 72.917 C 358.577 72.917,356.965 72.979,356.889 73.055 C 356.812 73.131,356.709 75.081,356.660 77.389 C 356.610 79.696,356.554 81.392,356.535 81.158 C 356.489 80.602,356.203 80.333,355.656 80.333 L 355.212 80.333 355.129 78.306 C 355.039 76.123,354.913 75.833,354.051 75.833 C 353.680 75.833,353.667 75.785,353.667 74.420 C 353.667 72.687,353.977 72.807,349.667 72.869 L 346.417 72.917 346.366 73.615 C 346.317 74.290,346.294 74.316,345.699 74.365 L 345.083 74.417 344.992 76.583 C 344.919 78.331,344.895 78.488,344.867 77.393 C 344.831 75.924,344.770 75.833,343.820 75.833 C 343.354 75.833,343.333 75.801,343.333 75.083 L 343.333 74.333 342.593 74.333 L 341.852 74.333 341.801 73.625 L 341.750 72.917 336.103 72.873 C 332.556 72.845,330.382 72.890,330.257 72.994 C 330.126 73.103,330.002 73.102,329.892 72.992 C 329.790 72.890,328.426 72.844,326.321 72.871 L 322.917 72.917 322.865 73.625 C 322.816 74.310,322.795 74.333,322.246 74.333 C 321.512 74.333,321.333 74.671,321.333 76.062 L 321.333 77.147 320.708 77.198 C 320.104 77.248,320.080 77.274,319.983 78.000 C 319.889 78.707,319.882 78.715,319.858 78.152 C 319.832 77.527,319.393 77.167,318.659 77.167 C 318.374 77.167,318.333 77.047,318.331 76.208 C 318.328 74.731,318.227 74.514,317.489 74.396 C 316.879 74.298,316.848 74.262,316.800 73.605 L 316.750 72.917 313.208 72.872 L 309.667 72.827 309.633 80.205 C 309.614 84.263,309.558 86.608,309.508 85.417 L 309.417 83.250 308.792 83.198 L 308.167 83.147 308.167 81.169 C 308.167 78.973,308.043 78.667,307.155 78.667 L 306.667 78.667 306.664 76.875 C 306.661 74.463,306.618 74.333,305.823 74.333 C 305.192 74.333,305.185 74.326,305.135 73.625 L 305.083 72.917 301.688 72.871 C 297.535 72.816,297.833 72.637,297.833 75.187 L 297.833 77.167 297.283 77.167 C 296.406 77.167,296.333 77.353,296.333 79.617 L 296.333 81.667 295.672 81.667 L 295.010 81.667 294.958 83.875 C 294.929 85.090,294.890 83.141,294.870 79.545 L 294.833 73.006 294.458 72.914 C 294.252 72.863,292.658 72.843,290.917 72.869 L 287.750 72.917 287.704 75.792 L 287.659 78.667 286.079 78.667 L 284.500 78.667 284.500 75.750 L 284.500 72.833 281.667 72.833 L 278.833 72.833 278.803 74.375 C 278.787 75.228,278.745 75.563,278.711 75.125 L 278.648 74.333 277.908 74.333 L 277.167 74.333 277.167 73.686 C 277.167 73.156,277.099 73.021,276.792 72.938 C 276.383 72.829,267.196 72.841,266.471 72.952 M130.199 77.875 C 130.250 78.580,130.253 78.584,130.958 78.635 L 131.667 78.686 131.667 80.926 L 131.667 83.167 130.917 83.167 L 130.167 83.167 130.167 83.917 L 130.167 84.667 129.417 84.667 L 128.667 84.667 128.667 83.917 L 128.667 83.167 127.926 83.167 L 127.186 83.167 127.135 82.458 C 127.084 81.753,127.080 81.750,126.375 81.699 L 125.667 81.648 125.667 80.939 C 125.667 80.241,125.677 80.228,126.375 80.074 C 127.040 79.926,127.086 79.879,127.135 79.292 C 127.178 78.776,127.251 78.666,127.552 78.664 C 128.448 78.659,128.667 78.492,128.667 77.814 L 128.667 77.167 129.407 77.167 L 130.148 77.167 130.199 77.875 M200.833 77.917 L 200.833 78.667 200.083 78.667 L 199.333 78.667 199.333 77.917 L 199.333 77.167 200.083 77.167 L 200.833 77.167 200.833 77.917 M186.120 79.789 C 186.081 80.043,186.049 79.875,186.048 79.417 C 186.046 78.958,186.078 78.751,186.117 78.956 C 186.157 79.161,186.158 79.536,186.120 79.789 M272.865 79.375 L 272.917 80.083 275.341 80.083 C 278.045 80.083,278.582 79.918,278.714 79.045 C 278.752 78.791,278.783 79.971,278.783 81.667 C 278.783 83.362,278.738 84.412,278.683 84.000 L 278.583 83.250 275.708 83.204 L 272.833 83.159 272.833 83.913 L 272.833 84.667 272.083 84.667 C 271.366 84.667,271.333 84.646,271.333 84.180 C 271.333 83.342,271.186 83.167,270.482 83.167 C 269.914 83.167,269.833 83.118,269.833 82.779 C 269.833 82.313,269.241 81.724,268.667 81.621 C 268.258 81.547,268.259 81.545,268.708 81.523 C 269.252 81.496,269.833 80.968,269.833 80.500 C 269.833 80.243,269.944 80.167,270.321 80.167 C 270.944 80.167,271.333 79.777,271.333 79.155 C 271.333 78.688,271.366 78.667,272.074 78.667 L 272.814 78.667 272.865 79.375 M337.667 79.417 L 337.667 80.167 336.833 80.167 L 336.000 80.167 336.000 79.417 L 336.000 78.667 336.833 78.667 L 337.667 78.667 337.667 79.417 M373.256 79.942 C 373.496 80.117,373.375 80.158,372.479 80.200 L 371.417 80.250 371.369 81.708 L 371.320 83.167 370.577 83.167 L 369.833 83.167 369.833 81.691 L 369.833 80.215 370.916 80.114 C 372.329 79.982,372.662 79.794,372.684 79.119 L 372.701 78.583 372.836 79.159 C 372.911 79.475,373.100 79.827,373.256 79.942 M200.833 84.500 L 200.833 86.000 200.083 86.000 L 199.333 86.000 199.333 84.500 L 199.333 83.000 200.083 83.000 L 200.833 83.000 200.833 84.500 M374.044 84.617 C 373.839 84.657,373.464 84.658,373.211 84.620 C 372.957 84.581,373.125 84.549,373.583 84.548 C 374.042 84.546,374.249 84.578,374.044 84.617 M30.505 100.921 C 30.497 101.194,31.000 101.834,31.218 101.828 C 31.339 101.825,31.315 101.744,31.155 101.620 C 31.010 101.508,30.806 101.267,30.701 101.083 C 30.596 100.900,30.508 100.827,30.505 100.921 " stroke="none" fill="#fcfcfc" fill-rule="evenodd"></path><path id="path1" d="M12.667 0.393 C 12.667 0.808,11.933 0.995,10.292 0.999 C 9.674 1.000,9.667 1.008,9.667 1.667 L 9.667 2.333 8.250 2.333 L 6.833 2.333 6.833 3.083 C 6.833 3.563,6.758 3.839,6.625 3.850 C 6.510 3.859,6.154 3.878,5.833 3.892 L 5.250 3.917 5.304 5.375 L 5.357 6.833 4.595 6.833 L 3.833 6.833 3.833 8.417 L 3.833 10.000 3.086 10.000 L 2.340 10.000 2.337 16.833 L 2.335 23.667 3.078 23.667 L 3.821 23.667 3.869 25.208 L 3.917 26.750 4.499 26.805 C 5.266 26.878,5.500 27.096,5.500 27.737 C 5.500 28.028,5.589 28.356,5.698 28.465 C 5.852 28.618,5.814 28.811,5.532 29.313 C 4.781 30.648,5.139 31.416,6.401 31.178 C 6.653 31.130,6.828 31.548,6.831 32.199 C 6.833 32.803,6.846 32.815,7.542 32.865 L 8.250 32.917 8.336 33.889 C 8.384 34.424,8.365 34.897,8.295 34.940 C 8.044 35.096,8.173 35.299,8.590 35.403 C 8.823 35.462,8.975 35.573,8.927 35.650 C 8.880 35.726,9.008 35.780,9.212 35.770 C 9.539 35.752,9.593 35.850,9.667 36.579 L 9.750 37.409 10.458 37.385 C 11.131 37.363,11.168 37.386,11.188 37.847 C 11.199 38.115,11.227 38.408,11.250 38.500 C 11.273 38.592,11.301 38.742,11.313 38.833 C 11.324 38.929,11.903 39.000,12.667 39.000 L 14.000 39.000 14.000 39.667 L 14.000 40.333 15.417 40.333 L 16.833 40.333 16.833 39.179 C 16.833 38.031,16.614 37.516,16.113 37.489 C 16.005 37.484,16.085 37.411,16.292 37.328 C 16.634 37.191,16.667 37.068,16.667 35.922 L 16.667 34.667 15.167 34.667 C 13.723 34.667,13.667 34.653,13.664 34.292 C 13.660 33.750,13.498 33.577,12.750 33.316 L 12.083 33.083 12.997 33.032 C 13.582 32.999,13.933 33.049,13.974 33.173 C 14.208 33.873,15.055 34.500,15.767 34.500 C 16.540 34.500,16.558 34.476,16.518 33.500 C 16.483 32.663,16.820 32.487,18.355 32.537 L 19.750 32.583 19.798 30.756 C 19.829 29.563,19.915 28.879,20.048 28.785 C 20.206 28.673,20.204 28.623,20.042 28.557 C 19.927 28.510,19.833 28.340,19.833 28.179 C 19.833 28.017,19.688 27.753,19.510 27.592 C 19.189 27.302,19.189 27.296,19.510 26.951 C 19.719 26.727,19.834 26.364,19.836 25.927 C 19.838 25.448,19.883 25.321,19.992 25.493 C 20.317 26.006,20.971 24.995,21.083 23.808 C 21.100 23.622,21.023 23.565,20.846 23.631 C 20.635 23.710,20.622 23.682,20.777 23.490 C 20.935 23.294,20.897 23.246,20.570 23.226 C 20.309 23.210,20.209 23.269,20.283 23.393 C 20.346 23.498,20.270 23.480,20.115 23.355 C 19.941 23.213,19.833 22.886,19.833 22.497 C 19.833 21.817,19.713 21.724,18.875 21.753 L 18.333 21.771 18.333 18.559 L 18.333 15.347 19.625 15.418 L 20.917 15.490 21.000 14.703 L 21.083 13.917 21.833 13.862 C 23.569 13.736,24.333 13.959,24.333 14.592 C 24.333 15.730,26.922 15.633,27.105 14.488 C 27.208 13.840,27.217 13.833,27.948 13.833 L 28.687 13.833 28.651 12.375 L 28.616 10.917 29.266 10.833 L 29.917 10.750 30.069 9.375 L 30.222 8.000 30.866 8.000 L 31.510 8.000 31.463 5.958 L 31.417 3.917 30.539 3.866 L 29.661 3.816 29.462 3.075 L 29.264 2.333 27.975 2.333 L 26.686 2.333 26.635 1.625 L 26.583 0.917 24.908 0.951 C 22.829 0.994,22.500 0.918,22.500 0.397 L 22.500 0.000 17.583 0.000 L 12.667 0.000 12.667 0.393 M36.167 1.157 L 36.167 2.314 35.458 2.365 L 34.750 2.417 34.702 3.875 L 34.654 5.333 33.891 5.333 L 33.129 5.333 33.190 6.873 L 33.250 8.412 32.583 8.438 C 32.217 8.453,31.852 8.473,31.772 8.482 C 31.692 8.492,31.675 9.119,31.734 9.875 C 31.861 11.499,31.757 11.733,30.948 11.639 C 30.623 11.601,30.393 11.629,30.438 11.701 C 30.483 11.774,30.430 11.833,30.320 11.833 C 30.177 11.833,30.151 12.090,30.229 12.750 C 30.386 14.093,30.190 15.520,29.851 15.487 C 28.823 15.389,28.833 15.372,28.833 17.083 L 28.833 18.667 28.083 18.667 L 27.333 18.667 27.333 20.324 L 27.333 21.981 26.625 22.032 L 25.917 22.083 25.912 23.333 C 25.902 25.892,25.929 25.807,25.125 25.865 L 24.417 25.917 24.417 27.417 L 24.417 28.917 23.667 29.000 L 22.917 29.083 22.961 30.463 C 23.017 32.160,22.887 32.451,22.087 32.424 C 21.395 32.401,21.327 32.547,21.355 34.000 C 21.397 36.217,21.413 36.167,20.667 36.167 L 20.000 36.167 20.000 37.855 L 20.000 39.543 19.255 39.459 L 18.510 39.375 18.463 41.313 C 18.417 43.250,18.417 43.250,18.000 43.269 C 17.001 43.315,16.946 43.418,17.066 45.013 C 17.187 46.610,17.119 46.759,16.303 46.697 C 15.678 46.650,15.441 47.141,15.563 48.229 C 15.615 48.699,15.660 49.811,15.663 50.700 L 15.667 52.317 16.276 52.909 C 16.610 53.234,16.948 53.500,17.026 53.500 C 17.103 53.500,17.167 53.621,17.167 53.768 C 17.167 53.916,17.504 54.369,17.917 54.776 C 18.329 55.183,18.667 55.594,18.667 55.689 C 18.667 56.395,19.269 56.499,23.333 56.491 C 25.488 56.487,27.339 56.487,27.447 56.492 C 27.589 56.498,27.601 56.649,27.488 57.041 C 26.919 59.026,27.459 59.500,30.291 59.500 C 31.139 59.500,31.833 59.564,31.833 59.643 C 31.833 59.722,30.540 59.778,28.958 59.768 L 26.083 59.750 26.030 60.333 C 25.964 61.050,25.867 61.156,25.243 61.196 C 22.848 61.348,25.515 65.333,28.011 65.333 L 28.833 65.333 28.833 66.083 C 28.833 66.875,28.868 66.902,29.833 66.872 C 30.063 66.865,30.134 66.894,29.992 66.935 C 29.655 67.035,29.747 68.002,30.182 68.928 C 30.357 69.300,30.500 69.699,30.500 69.813 C 30.500 69.928,31.156 70.694,31.958 71.517 C 32.760 72.340,33.604 73.234,33.833 73.505 C 34.063 73.775,34.400 74.043,34.583 74.101 C 34.767 74.158,35.119 74.421,35.366 74.686 C 36.005 75.371,36.329 75.122,37.338 73.167 C 37.456 72.938,37.685 72.656,37.846 72.542 C 38.007 72.427,38.307 72.052,38.513 71.708 C 38.718 71.365,39.056 70.896,39.263 70.667 C 40.737 69.035,40.731 67.267,39.250 66.945 C 39.067 66.905,39.268 66.863,39.697 66.853 C 41.227 66.815,41.833 66.226,41.833 64.780 C 41.833 64.060,41.850 64.038,42.625 63.714 C 43.324 63.423,43.484 63.254,43.996 62.262 C 44.314 61.645,44.633 61.104,44.704 61.060 C 44.775 61.016,44.833 60.685,44.833 60.323 L 44.833 59.667 42.125 59.647 C 40.635 59.637,39.529 59.604,39.667 59.575 C 39.804 59.546,40.202 59.476,40.551 59.418 C 41.623 59.243,41.833 58.886,41.833 57.239 C 41.833 56.454,41.760 55.675,41.671 55.509 C 41.444 55.084,41.994 55.000,45.000 55.000 C 47.598 55.000,47.671 54.979,47.919 54.173 C 47.988 53.947,48.215 53.629,48.423 53.465 C 48.796 53.172,49.333 51.896,49.333 51.304 C 49.333 51.137,49.615 50.690,49.958 50.310 L 50.583 49.618 50.634 45.809 C 50.674 42.775,50.640 41.995,50.467 41.975 C 50.348 41.961,50.175 41.932,50.083 41.911 C 49.992 41.889,49.790 41.863,49.635 41.853 C 48.895 41.802,49.058 38.835,49.802 38.831 C 50.433 38.827,50.583 38.667,50.583 38.000 C 50.583 37.422,50.591 37.416,51.375 37.366 L 52.167 37.315 52.167 35.824 L 52.167 34.333 52.936 34.333 L 53.704 34.333 53.595 32.542 C 53.361 28.696,53.433 28.333,54.432 28.333 L 55.154 28.333 55.118 22.958 L 55.083 17.583 54.375 17.532 L 53.667 17.481 53.667 15.907 L 53.667 14.333 52.932 14.333 L 52.198 14.333 52.085 13.512 C 51.975 12.713,51.955 12.688,51.319 12.581 L 50.667 12.471 50.667 11.319 C 50.667 10.386,50.617 10.167,50.407 10.167 C 50.264 10.167,50.190 10.097,50.243 10.012 C 50.335 9.863,49.851 9.628,49.559 9.681 C 49.481 9.695,49.060 9.697,48.625 9.686 L 47.833 9.667 47.833 9.009 L 47.833 8.351 46.958 8.300 L 46.083 8.250 46.000 7.500 L 45.917 6.750 44.064 6.810 C 41.729 6.885,41.500 6.819,41.500 6.072 C 41.500 5.757,41.425 5.491,41.333 5.479 C 41.242 5.468,41.095 5.449,41.008 5.438 C 40.670 5.393,40.525 5.048,40.472 4.167 L 40.417 3.250 39.720 3.199 C 38.876 3.138,38.741 2.779,38.923 1.083 L 39.039 -0.000 37.603 -0.000 L 36.167 0.000 36.167 1.157 M18.577 4.736 C 18.704 6.096,18.925 6.436,19.744 6.528 C 20.138 6.572,20.260 6.684,20.348 7.083 C 20.409 7.358,20.510 7.704,20.572 7.852 C 20.761 8.302,17.635 8.577,17.000 8.167 C 16.796 8.035,16.815 8.005,17.107 8.003 C 18.517 7.992,18.759 4.379,17.370 4.070 C 16.352 3.843,16.275 3.806,16.520 3.651 C 16.646 3.571,17.135 3.504,17.605 3.503 L 18.461 3.500 18.577 4.736 M15.513 5.720 C 15.385 5.849,15.333 5.756,15.333 5.394 C 15.333 4.737,15.567 4.501,15.638 5.088 C 15.668 5.337,15.612 5.621,15.513 5.720 M27.400 6.792 C 27.391 6.906,27.365 7.431,27.342 7.958 C 27.300 8.909,27.299 8.912,27.151 8.286 C 27.070 7.940,26.893 7.443,26.758 7.182 C 26.623 6.922,26.563 6.659,26.625 6.597 C 26.808 6.414,27.418 6.567,27.400 6.792 M24.497 7.042 C 24.495 7.345,24.464 7.369,24.333 7.167 C 24.125 6.844,24.125 6.667,24.333 6.667 C 24.425 6.667,24.499 6.835,24.497 7.042 M9.618 8.873 C 9.578 9.080,9.544 8.950,9.542 8.583 C 9.540 8.217,9.573 8.047,9.615 8.206 C 9.656 8.366,9.658 8.666,9.618 8.873 M26.614 9.364 L 27.083 9.562 26.417 9.658 C 25.392 9.806,24.857 9.684,25.255 9.392 C 25.635 9.115,26.003 9.107,26.614 9.364 M42.328 9.842 C 42.045 10.371,41.833 10.378,41.833 9.859 C 41.833 9.449,41.889 9.379,42.163 9.451 C 42.424 9.519,42.458 9.600,42.328 9.842 M11.879 11.000 C 12.117 11.000,12.108 11.096,11.805 11.826 L 11.462 12.651 11.856 13.150 C 12.073 13.424,12.344 13.652,12.458 13.657 C 12.573 13.663,12.667 13.818,12.667 14.002 C 12.667 14.301,12.590 14.327,11.958 14.238 C 10.930 14.094,10.833 14.046,10.833 13.676 C 10.833 13.287,10.312 12.914,9.544 12.754 C 8.762 12.591,8.707 12.333,9.453 12.333 C 10.334 12.333,10.780 11.975,10.918 11.157 C 11.025 10.526,11.053 10.497,11.321 10.739 C 11.480 10.883,11.731 11.000,11.879 11.000 M14.223 11.197 C 13.974 11.317,13.717 11.318,13.390 11.199 C 12.953 11.040,12.981 11.026,13.750 11.024 C 14.448 11.023,14.525 11.051,14.223 11.197 M10.009 16.427 C 10.124 16.566,10.533 16.675,10.979 16.686 C 12.633 16.729,12.766 16.960,11.147 16.980 L 9.544 17.000 9.450 16.299 C 9.339 15.472,9.509 15.060,9.687 15.726 C 9.755 15.980,9.900 16.296,10.009 16.427 M44.479 18.271 C 44.997 18.374,45.000 18.381,45.000 19.438 L 45.000 20.500 45.649 20.500 C 46.188 20.500,46.310 20.563,46.373 20.875 C 46.434 21.176,46.417 24.018,46.349 24.761 C 46.333 24.937,45.302 25.500,44.994 25.500 C 44.897 25.500,44.833 24.416,44.833 22.773 C 44.833 20.057,44.832 20.046,44.458 20.043 C 43.290 20.035,43.333 20.071,43.333 19.083 C 43.333 18.081,43.377 18.050,44.479 18.271 M15.705 19.792 C 15.737 19.860,15.723 20.929,15.673 22.167 L 15.583 24.417 14.633 24.466 C 13.824 24.509,13.627 24.459,13.307 24.133 C 12.431 23.240,11.987 23.027,10.762 22.912 C 9.584 22.802,9.550 22.786,9.355 22.247 C 9.125 21.612,8.526 21.333,7.392 21.333 C 6.622 21.333,6.414 21.100,7.043 20.942 C 7.251 20.890,7.552 20.624,7.713 20.351 C 7.896 20.042,8.178 19.829,8.461 19.786 C 9.294 19.659,15.646 19.665,15.705 19.792 M11.333 20.201 C 10.097 20.474,9.621 21.383,10.278 22.218 C 11.001 23.136,14.668 22.634,14.932 21.580 C 15.225 20.414,13.450 19.734,11.333 20.201 M50.983 22.222 C 50.995 22.798,50.940 23.008,50.792 22.959 C 50.515 22.868,50.365 21.521,50.576 21.017 L 50.743 20.617 50.855 21.017 C 50.916 21.237,50.974 21.779,50.983 22.222 M14.884 27.291 C 14.041 27.321,12.616 27.321,11.717 27.291 C 10.818 27.261,11.508 27.236,13.250 27.236 C 14.992 27.236,15.727 27.261,14.884 27.291 M37.146 28.438 L 37.667 28.542 37.667 30.688 L 37.667 32.833 38.330 32.833 C 39.160 32.833,39.197 32.954,39.132 35.417 L 39.083 37.250 39.792 37.301 C 40.614 37.361,40.568 37.199,40.578 40.102 L 40.583 41.954 36.000 42.032 C 33.479 42.075,31.117 42.075,30.750 42.032 L 30.083 41.954 30.827 41.734 C 31.354 41.578,31.767 41.560,32.244 41.670 C 34.185 42.118,34.529 41.775,34.464 39.453 L 34.417 37.750 33.667 37.667 C 32.804 37.571,32.690 37.318,32.997 36.180 C 33.172 35.530,33.208 35.500,33.840 35.500 L 34.500 35.500 34.500 33.686 C 34.500 31.879,34.502 31.872,34.921 31.792 C 35.152 31.748,35.381 31.776,35.430 31.856 C 35.814 32.477,36.000 31.925,36.000 30.167 C 36.000 28.141,35.961 28.200,37.146 28.438 M11.208 32.079 C 11.099 32.651,11.000 32.609,11.000 31.990 C 11.000 31.710,11.065 31.520,11.144 31.570 C 11.224 31.619,11.252 31.848,11.208 32.079 M49.126 34.518 C 49.449 34.531,49.363 34.580,48.833 34.685 C 47.837 34.882,47.667 34.791,47.667 34.064 L 47.667 33.451 48.168 33.975 C 48.474 34.295,48.848 34.507,49.126 34.518 M0.888 39.626 C 0.905 40.789,0.984 41.589,1.083 41.598 C 1.175 41.606,1.370 41.666,1.517 41.731 C 1.664 41.796,1.851 41.837,1.933 41.822 C 2.351 41.744,2.740 41.845,2.532 41.977 C 2.371 42.079,2.322 42.607,2.344 44.016 L 2.373 45.917 3.145 46.000 L 3.917 46.083 4.020 47.333 C 4.120 48.532,4.255 48.902,5.151 50.417 C 5.314 50.693,5.499 51.218,5.562 51.584 C 5.700 52.380,6.162 53.500,6.354 53.500 C 6.429 53.500,6.616 53.931,6.769 54.458 C 6.922 54.985,7.320 55.942,7.654 56.583 C 7.988 57.225,8.403 58.125,8.577 58.583 C 8.750 59.042,9.128 59.792,9.416 60.250 C 9.704 60.708,10.040 61.346,10.164 61.667 C 10.287 61.987,10.486 62.365,10.604 62.506 C 10.723 62.647,10.983 63.134,11.182 63.589 C 11.381 64.044,11.802 64.772,12.118 65.207 C 12.434 65.641,12.767 66.265,12.857 66.593 C 12.948 66.922,13.266 67.466,13.564 67.803 C 13.863 68.141,14.265 68.761,14.458 69.182 C 14.652 69.602,14.992 70.165,15.216 70.432 C 15.439 70.698,15.669 71.071,15.729 71.261 C 15.788 71.450,16.105 71.899,16.435 72.258 C 16.764 72.617,17.183 73.206,17.367 73.566 C 17.876 74.563,18.989 76.140,19.611 76.744 C 19.916 77.041,20.167 77.337,20.167 77.403 C 20.167 77.469,20.509 77.942,20.927 78.455 C 21.345 78.968,21.805 79.620,21.949 79.902 C 22.094 80.185,22.302 80.470,22.412 80.534 C 22.521 80.599,22.827 80.974,23.090 81.368 C 23.566 82.078,24.291 82.911,25.250 83.845 C 25.915 84.493,25.912 84.490,26.512 85.208 C 27.387 86.255,29.833 85.801,29.833 84.592 C 29.833 84.514,30.208 83.865,30.667 83.151 C 31.643 81.629,31.629 81.706,31.042 81.122 C 30.790 80.871,30.058 80.130,29.417 79.475 C 28.775 78.820,28.075 78.115,27.860 77.907 C 27.230 77.297,27.126 77.189,26.209 76.196 C 24.119 73.935,22.963 72.587,22.250 71.576 C 22.067 71.316,21.710 70.890,21.458 70.629 C 21.206 70.369,21.000 70.094,21.000 70.019 C 21.000 69.944,20.625 69.486,20.167 69.000 C 19.708 68.514,19.333 68.068,19.333 68.009 C 19.333 67.949,19.052 67.597,18.708 67.225 C 18.365 66.854,17.896 66.301,17.667 65.996 C 17.438 65.691,17.165 65.356,17.061 65.252 C 16.957 65.148,16.706 64.738,16.504 64.341 C 16.302 63.944,15.987 63.462,15.805 63.268 C 15.623 63.075,15.245 62.565,14.965 62.134 C 14.685 61.704,14.357 61.314,14.237 61.268 C 14.117 61.222,13.820 60.766,13.578 60.255 C 13.337 59.744,12.968 59.121,12.760 58.871 C 12.551 58.621,12.247 58.154,12.084 57.833 C 11.921 57.512,11.680 57.187,11.548 57.110 C 11.416 57.032,11.043 56.395,10.718 55.693 C 10.394 54.991,9.957 54.245,9.748 54.035 C 9.538 53.826,9.322 53.479,9.269 53.266 C 9.215 53.052,8.909 52.436,8.589 51.897 C 8.269 51.358,7.856 50.579,7.671 50.167 C 7.485 49.754,7.263 49.304,7.176 49.167 C 6.748 48.489,6.185 47.312,5.841 46.375 C 5.631 45.802,5.399 45.333,5.325 45.333 C 5.028 45.333,4.667 44.782,4.667 44.328 C 4.667 43.875,4.164 42.341,3.862 41.871 C 3.787 41.754,3.446 41.648,3.105 41.635 C 2.764 41.623,2.571 41.559,2.676 41.494 C 2.819 41.406,2.819 41.152,2.677 40.480 C 2.573 39.987,2.434 39.177,2.369 38.681 C 2.259 37.850,2.212 37.773,1.777 37.715 C 1.453 37.671,1.341 37.711,1.422 37.842 C 1.510 37.984,1.453 37.986,1.200 37.851 C 0.865 37.672,0.860 37.703,0.888 39.626 M53.667 52.329 L 53.667 53.339 54.167 53.301 C 54.442 53.280,54.667 53.203,54.667 53.131 C 54.667 53.059,54.760 53.019,54.875 53.042 C 55.017 53.070,55.090 52.820,55.103 52.250 L 55.124 51.417 54.395 51.368 L 53.667 51.320 53.667 52.329 M52.166 54.714 C 52.165 54.825,52.052 55.133,51.914 55.397 C 51.776 55.661,51.623 56.186,51.573 56.564 C 51.367 58.130,51.301 58.351,50.937 58.709 C 50.439 59.200,49.667 60.984,49.667 61.646 C 49.667 61.940,49.525 62.308,49.342 62.491 C 48.922 62.912,48.571 63.605,48.417 64.322 C 48.301 64.858,48.055 65.373,47.337 66.583 C 47.174 66.858,46.947 67.383,46.832 67.750 C 46.717 68.117,46.539 68.518,46.437 68.642 C 46.258 68.858,45.367 70.555,44.090 73.114 C 43.761 73.772,43.232 74.699,42.913 75.172 C 42.594 75.646,42.333 76.169,42.333 76.334 C 42.333 76.499,42.005 77.072,41.605 77.608 C 41.204 78.145,40.820 78.771,40.750 79.000 C 40.681 79.229,40.371 79.764,40.062 80.189 C 39.753 80.614,39.500 81.019,39.500 81.091 C 39.500 81.162,39.201 81.615,38.837 82.098 C 38.472 82.582,38.047 83.301,37.894 83.697 C 37.740 84.093,37.396 84.637,37.128 84.907 C 36.861 85.176,36.527 85.626,36.385 85.907 C 36.244 86.187,35.994 86.567,35.830 86.750 C 35.666 86.933,35.295 87.533,35.006 88.083 C 34.716 88.633,34.350 89.196,34.193 89.333 C 34.036 89.471,33.726 89.883,33.505 90.250 C 33.283 90.617,33.009 90.974,32.895 91.044 C 32.782 91.114,32.443 91.601,32.143 92.127 C 31.489 93.273,30.737 94.328,29.881 95.301 C 29.124 96.162,29.038 96.417,29.017 97.875 C 29.001 98.935,29.022 99.000,29.375 99.002 C 30.311 99.008,30.500 99.165,30.500 99.936 L 30.500 100.667 31.130 100.667 C 31.780 100.667,32.199 100.351,32.403 99.709 C 32.514 99.360,34.264 96.527,34.798 95.833 C 34.974 95.604,35.331 94.967,35.591 94.417 C 35.851 93.867,36.267 93.192,36.516 92.917 C 36.765 92.642,37.107 92.144,37.276 91.811 C 37.928 90.529,38.973 88.737,39.236 88.453 C 39.387 88.290,39.614 87.915,39.741 87.620 C 40.373 86.152,40.517 85.882,40.902 85.441 C 41.131 85.180,41.445 84.580,41.600 84.108 C 41.755 83.636,41.942 83.211,42.015 83.163 C 42.227 83.023,43.000 81.835,43.000 81.648 C 43.000 81.365,43.699 79.833,43.829 79.833 C 43.895 79.833,44.084 79.515,44.248 79.125 C 44.799 77.817,45.387 76.667,45.504 76.667 C 45.569 76.667,45.752 76.235,45.913 75.708 C 46.073 75.181,46.385 74.482,46.605 74.154 C 46.825 73.827,47.160 73.115,47.351 72.573 C 47.743 71.458,47.983 70.961,48.196 70.821 C 48.277 70.768,48.498 70.156,48.686 69.461 C 48.875 68.766,49.154 68.059,49.307 67.890 C 49.738 67.412,50.128 66.457,50.258 65.565 C 50.389 64.658,50.561 64.246,51.015 63.745 C 51.343 63.385,51.830 61.384,51.839 60.364 C 51.846 59.560,52.161 59.167,52.800 59.167 C 54.173 59.167,53.943 55.157,52.542 54.647 C 52.284 54.553,52.166 54.574,52.166 54.714 M33.333 61.187 C 33.333 61.483,33.292 61.507,33.083 61.333 C 32.946 61.219,32.833 61.060,32.833 60.980 C 32.833 60.899,32.946 60.833,33.083 60.833 C 33.227 60.833,33.333 60.984,33.333 61.187 M37.648 63.625 C 37.632 64.941,37.602 65.123,37.490 64.583 C 37.260 63.469,37.323 62.000,37.601 62.000 C 37.637 62.000,37.658 62.731,37.648 63.625 M34.667 64.093 C 34.667 65.113,34.607 65.649,34.500 65.583 C 34.408 65.527,34.333 64.810,34.333 63.990 C 34.333 63.108,34.401 62.500,34.500 62.500 C 34.599 62.500,34.667 63.142,34.667 64.093 M33.333 66.833 C 33.333 66.925,33.179 67.000,32.990 67.000 C 32.801 67.000,32.693 66.925,32.750 66.833 C 32.807 66.742,32.961 66.667,33.093 66.667 C 33.225 66.667,33.333 66.742,33.333 66.833 " stroke="none" fill="#e3b93c" fill-rule="evenodd"></path><path id="path2" d="M9.667 0.407 C 9.667 0.767,9.584 0.820,8.958 0.865 C 8.253 0.916,8.250 0.920,8.199 1.625 L 8.148 2.333 8.907 2.333 L 9.667 2.333 9.667 1.667 C 9.667 1.008,9.674 1.000,10.292 0.999 C 11.933 0.995,12.667 0.808,12.667 0.393 C 12.667 0.009,12.632 0.000,11.167 0.000 C 9.687 0.000,9.667 0.006,9.667 0.407 M22.500 0.397 C 22.500 0.854,22.684 0.924,24.039 0.982 C 25.307 1.037,25.667 0.910,25.667 0.405 C 25.667 0.004,25.649 0.000,24.083 0.000 C 22.526 0.000,22.500 0.007,22.500 0.397 M34.752 0.958 C 34.694 1.485,34.631 2.029,34.613 2.167 C 34.595 2.304,34.410 2.441,34.203 2.470 C 33.740 2.536,33.396 3.043,33.242 3.883 C 33.131 4.490,33.116 4.502,32.887 4.175 C 32.725 3.943,32.464 3.833,32.074 3.833 C 31.640 3.833,31.499 3.762,31.496 3.542 C 31.489 2.961,30.947 2.508,30.125 2.396 C 29.245 2.276,29.186 2.362,29.513 3.300 C 29.680 3.777,29.759 3.821,30.555 3.867 L 31.417 3.917 31.463 5.958 L 31.510 8.000 30.866 8.000 L 30.222 8.000 30.069 9.375 L 29.917 10.750 29.265 10.833 L 28.614 10.917 28.652 12.326 C 28.673 13.101,28.721 13.787,28.759 13.849 C 28.798 13.911,28.842 14.303,28.858 14.720 L 28.887 15.478 29.512 15.470 L 30.137 15.461 30.247 14.356 C 30.308 13.748,30.291 13.063,30.209 12.833 C 30.038 12.355,30.114 11.833,30.355 11.833 C 30.446 11.833,30.484 11.776,30.441 11.705 C 30.397 11.635,30.652 11.605,31.007 11.639 C 31.744 11.709,31.966 11.313,31.764 10.290 C 31.468 8.790,31.608 8.455,32.540 8.426 L 33.250 8.404 33.190 6.868 L 33.129 5.333 33.891 5.333 L 34.654 5.333 34.702 3.875 L 34.750 2.417 35.458 2.365 L 36.167 2.314 36.167 1.157 L 36.167 0.000 35.512 -0.000 L 34.857 -0.000 34.752 0.958 M26.641 1.583 L 26.700 2.333 27.683 2.333 L 28.667 2.333 28.667 1.756 C 28.667 1.060,28.332 0.833,27.301 0.833 L 26.581 0.833 26.641 1.583 M38.934 1.097 C 38.808 1.428,38.807 2.303,38.934 2.776 C 39.011 3.062,39.180 3.147,39.765 3.194 L 40.500 3.252 40.500 2.215 C 40.500 1.361,40.443 1.148,40.178 1.006 C 39.698 0.749,39.050 0.797,38.934 1.097 M6.583 2.524 C 6.492 2.604,6.252 2.800,6.051 2.959 C 5.485 3.409,5.484 3.876,6.048 3.905 C 6.731 3.939,6.861 3.791,6.802 3.048 C 6.769 2.620,6.690 2.432,6.583 2.524 M16.520 3.651 C 16.275 3.806,16.352 3.843,17.370 4.070 C 18.759 4.379,18.517 7.992,17.107 8.003 C 16.815 8.005,16.796 8.035,17.000 8.167 C 17.635 8.577,20.761 8.302,20.572 7.852 C 20.510 7.704,20.409 7.358,20.348 7.083 C 20.260 6.684,20.138 6.572,19.744 6.528 C 18.925 6.436,18.704 6.096,18.577 4.736 L 18.461 3.500 17.605 3.503 C 17.135 3.504,16.646 3.571,16.520 3.651 M40.500 4.640 C 40.500 5.050,40.923 5.676,41.109 5.542 C 41.341 5.374,41.500 5.586,41.500 6.066 C 41.500 6.756,41.668 6.833,43.167 6.833 C 44.663 6.833,44.833 6.755,44.833 6.071 C 44.833 5.322,44.494 5.167,42.850 5.167 C 41.687 5.167,41.489 5.123,41.335 4.837 C 40.995 4.202,40.500 4.085,40.500 4.640 M15.458 4.762 C 15.390 4.832,15.333 5.116,15.333 5.394 C 15.333 5.756,15.385 5.849,15.513 5.720 C 15.612 5.621,15.668 5.337,15.638 5.088 C 15.608 4.839,15.527 4.692,15.458 4.762 M3.921 5.365 C 3.879 5.485,3.824 5.883,3.797 6.250 C 3.761 6.768,3.676 6.928,3.417 6.968 C 2.837 7.058,2.434 7.816,2.361 8.954 L 2.295 10.000 3.064 10.000 L 3.833 10.000 3.833 8.417 L 3.833 6.833 4.592 6.833 L 5.352 6.833 5.301 6.042 C 5.249 5.227,4.156 4.691,3.921 5.365 M26.625 6.597 C 26.563 6.659,26.623 6.922,26.758 7.182 C 26.893 7.443,27.070 7.940,27.151 8.286 C 27.299 8.912,27.300 8.909,27.342 7.958 C 27.365 7.431,27.391 6.906,27.400 6.792 C 27.418 6.567,26.808 6.414,26.625 6.597 M24.169 6.792 C 24.177 7.157,24.495 7.399,24.497 7.042 C 24.499 6.835,24.425 6.667,24.333 6.667 C 24.242 6.667,24.168 6.723,24.169 6.792 M45.992 7.458 L 46.083 8.250 46.958 8.300 L 47.833 8.351 47.833 8.993 L 47.833 9.634 48.625 9.692 L 49.417 9.750 49.358 9.042 C 49.326 8.653,49.232 8.376,49.150 8.427 C 49.067 8.478,48.999 8.421,48.997 8.302 C 48.996 8.143,48.951 8.152,48.833 8.333 C 48.726 8.500,48.671 8.514,48.669 8.375 C 48.668 8.260,48.479 8.167,48.250 8.167 C 47.890 8.167,47.833 8.092,47.833 7.617 C 47.833 6.876,47.576 6.667,46.667 6.667 L 45.901 6.667 45.992 7.458 M9.542 8.583 C 9.544 8.950,9.578 9.080,9.618 8.873 C 9.658 8.666,9.656 8.366,9.615 8.206 C 9.573 8.047,9.540 8.217,9.542 8.583 M25.255 9.392 C 24.857 9.684,25.392 9.806,26.417 9.658 L 27.083 9.562 26.614 9.364 C 26.003 9.107,25.635 9.115,25.255 9.392 M41.833 9.859 C 41.833 10.378,42.045 10.371,42.328 9.842 C 42.458 9.600,42.424 9.519,42.163 9.451 C 41.889 9.379,41.833 9.449,41.833 9.859 M50.126 9.777 C 50.241 9.824,50.293 9.930,50.241 10.014 C 50.189 10.098,50.264 10.167,50.407 10.167 C 50.550 10.167,50.667 10.054,50.667 9.917 C 50.667 9.765,50.520 9.672,50.292 9.680 C 50.085 9.687,50.011 9.731,50.126 9.777 M10.918 11.157 C 10.780 11.975,10.334 12.333,9.453 12.333 C 8.707 12.333,8.762 12.591,9.544 12.754 C 10.312 12.914,10.833 13.287,10.833 13.676 C 10.833 14.046,10.930 14.094,11.958 14.238 C 12.590 14.327,12.667 14.301,12.667 14.002 C 12.667 13.818,12.573 13.663,12.458 13.657 C 12.344 13.652,12.073 13.424,11.856 13.150 L 11.462 12.651 11.805 11.826 C 12.108 11.096,12.117 11.000,11.879 11.000 C 11.731 11.000,11.480 10.883,11.321 10.739 C 11.053 10.497,11.025 10.526,10.918 11.157 M13.390 11.199 C 13.717 11.318,13.974 11.317,14.223 11.197 C 14.525 11.051,14.448 11.023,13.750 11.024 C 12.981 11.026,12.953 11.040,13.390 11.199 M50.667 11.819 C 50.667 12.447,50.690 12.475,51.319 12.581 C 51.955 12.688,51.975 12.713,52.085 13.512 L 52.198 14.333 52.932 14.333 L 53.667 14.333 53.667 13.617 C 53.667 12.757,53.448 12.500,52.717 12.500 C 52.186 12.500,52.167 12.476,52.167 11.833 L 52.167 11.167 51.417 11.167 L 50.667 11.167 50.667 11.819 M1.627 12.050 C 0.802 12.876,0.802 12.876,0.863 17.211 C 0.922 21.340,0.880 21.141,1.722 21.278 L 2.318 21.375 2.368 18.396 C 2.395 16.757,2.379 14.519,2.333 13.421 L 2.250 11.426 1.627 12.050 M21.111 13.944 C 21.050 14.006,21.000 14.381,21.000 14.778 L 21.000 15.500 22.667 15.500 C 24.240 15.500,24.333 15.519,24.333 15.844 C 24.333 16.688,24.586 16.833,26.048 16.833 L 27.417 16.833 27.360 17.750 L 27.302 18.667 28.068 18.667 L 28.833 18.667 28.833 17.776 C 28.833 17.286,28.785 16.198,28.725 15.359 L 28.617 13.833 27.913 13.833 C 27.223 13.833,27.207 13.846,27.105 14.488 C 26.923 15.625,24.333 15.731,24.333 14.602 C 24.333 14.086,24.286 14.036,23.708 13.940 C 22.876 13.803,21.250 13.805,21.111 13.944 M9.459 15.431 C 9.402 15.523,9.398 15.914,9.450 16.299 L 9.544 17.000 11.147 16.980 C 12.766 16.960,12.633 16.729,10.979 16.686 C 10.149 16.665,9.885 16.469,9.687 15.726 C 9.619 15.471,9.516 15.339,9.459 15.431 M18.333 16.083 L 18.333 16.833 19.083 16.833 L 19.833 16.833 19.833 16.186 C 19.833 15.506,19.615 15.341,18.708 15.336 C 18.375 15.334,18.333 15.416,18.333 16.083 M53.667 16.483 L 53.667 17.466 54.417 17.526 L 55.167 17.586 55.167 16.806 C 55.167 15.658,55.064 15.500,54.316 15.500 L 53.667 15.500 53.667 16.483 M43.333 19.083 C 43.333 19.917,43.367 20.002,43.708 20.019 C 43.915 20.030,44.196 20.050,44.333 20.064 C 45.194 20.150,45.333 18.442,44.479 18.271 C 43.377 18.050,43.333 18.081,43.333 19.083 M8.461 19.786 C 8.178 19.829,7.896 20.042,7.713 20.351 C 7.552 20.624,7.251 20.890,7.043 20.942 C 6.414 21.100,6.622 21.333,7.392 21.333 C 8.526 21.333,9.125 21.612,9.355 22.247 C 9.550 22.786,9.584 22.802,10.762 22.912 C 11.987 23.027,12.431 23.240,13.307 24.133 C 13.627 24.459,13.824 24.509,14.633 24.466 L 15.583 24.417 15.673 22.167 C 15.723 20.929,15.737 19.860,15.705 19.792 C 15.646 19.665,9.294 19.659,8.461 19.786 M13.647 20.178 C 14.584 20.379,15.094 20.935,14.932 21.580 C 14.668 22.634,11.001 23.136,10.278 22.218 C 9.190 20.835,11.157 19.644,13.647 20.178 M18.333 20.877 L 18.333 21.754 19.083 21.772 L 19.833 21.789 19.833 20.996 C 19.833 20.136,19.695 20.000,18.820 20.000 C 18.344 20.000,18.333 20.019,18.333 20.877 M25.934 20.264 C 25.879 20.409,25.833 20.878,25.833 21.306 L 25.833 22.086 26.583 22.026 L 27.333 21.966 27.333 20.983 L 27.333 20.000 26.684 20.000 C 26.247 20.000,26.003 20.086,25.934 20.264 M44.939 21.273 C 44.774 22.483,44.813 25.500,44.994 25.500 C 45.302 25.500,46.333 24.937,46.349 24.761 C 46.417 24.018,46.434 21.176,46.373 20.875 C 46.205 20.044,45.064 20.360,44.939 21.273 M50.576 21.017 C 50.365 21.521,50.515 22.868,50.792 22.959 C 51.019 23.034,51.061 21.753,50.855 21.017 L 50.743 20.617 50.576 21.017 M19.833 22.967 C 19.833 23.054,19.960 23.229,20.115 23.355 C 20.270 23.480,20.346 23.498,20.283 23.393 C 20.209 23.269,20.309 23.210,20.570 23.226 C 20.897 23.246,20.935 23.294,20.777 23.490 C 20.622 23.682,20.635 23.710,20.846 23.631 C 21.023 23.565,21.100 23.622,21.083 23.808 C 20.971 24.995,20.317 26.006,19.992 25.493 C 19.883 25.321,19.838 25.448,19.836 25.927 C 19.834 26.364,19.719 26.727,19.510 26.951 C 19.189 27.296,19.189 27.302,19.510 27.592 C 19.688 27.753,19.833 28.017,19.833 28.179 C 19.833 28.340,19.927 28.516,20.042 28.569 C 20.208 28.647,20.208 28.686,20.042 28.764 C 19.603 28.968,19.767 31.667,20.218 31.667 C 20.649 31.667,21.083 31.377,21.218 31.000 C 21.267 30.863,21.314 31.200,21.323 31.750 C 21.331 32.300,21.394 32.675,21.461 32.583 C 21.528 32.492,21.833 32.419,22.138 32.422 C 22.920 32.430,23.208 31.712,22.895 30.542 C 22.774 30.089,22.002 30.022,21.595 30.429 C 21.357 30.667,21.331 30.356,21.313 27.012 C 21.301 24.989,21.282 23.242,21.271 23.130 C 21.246 22.892,19.833 22.732,19.833 22.967 M25.006 22.981 C 24.517 23.117,24.373 23.547,24.350 24.930 C 24.335 25.841,24.290 25.967,23.904 26.174 C 23.346 26.472,22.833 27.546,22.833 28.414 L 22.833 29.099 23.625 29.008 L 24.417 28.917 24.417 27.417 L 24.417 25.917 25.107 25.866 L 25.796 25.816 25.898 24.783 C 25.954 24.215,25.968 23.600,25.930 23.417 C 25.891 23.233,25.853 23.027,25.846 22.958 C 25.831 22.813,25.583 22.820,25.006 22.981 M2.367 24.625 L 2.417 25.583 3.125 25.635 L 3.833 25.686 3.833 24.676 L 3.833 23.667 3.075 23.667 L 2.317 23.667 2.367 24.625 M3.860 28.205 C 3.920 29.758,4.039 29.992,4.775 29.997 C 5.277 30.001,5.942 28.879,5.683 28.465 C 5.582 28.303,5.500 27.954,5.500 27.689 C 5.500 27.092,5.263 26.893,4.443 26.801 L 3.803 26.730 3.860 28.205 M11.717 27.291 C 12.616 27.321,14.041 27.321,14.884 27.291 C 15.727 27.261,14.992 27.236,13.250 27.236 C 11.508 27.236,10.818 27.261,11.717 27.291 M1.240 27.570 C 0.935 27.793,0.914 28.083,0.862 32.724 L 0.807 37.641 1.174 37.837 C 1.442 37.981,1.509 37.982,1.422 37.842 C 1.341 37.711,1.453 37.671,1.777 37.715 C 2.212 37.773,2.259 37.850,2.369 38.681 C 2.434 39.177,2.573 39.987,2.677 40.480 C 2.819 41.152,2.819 41.406,2.676 41.494 C 2.571 41.559,2.764 41.623,3.105 41.635 C 3.446 41.648,3.787 41.754,3.862 41.871 C 4.164 42.341,4.667 43.875,4.667 44.328 C 4.667 44.782,5.028 45.333,5.325 45.333 C 5.399 45.333,5.631 45.802,5.841 46.375 C 6.185 47.312,6.748 48.489,7.176 49.167 C 7.263 49.304,7.485 49.754,7.671 50.167 C 7.856 50.579,8.269 51.358,8.589 51.897 C 8.909 52.436,9.215 53.052,9.269 53.266 C 9.322 53.479,9.538 53.826,9.748 54.035 C 9.957 54.245,10.394 54.991,10.718 55.693 C 11.043 56.395,11.416 57.032,11.548 57.110 C 11.680 57.187,11.921 57.512,12.084 57.833 C 12.247 58.154,12.551 58.621,12.760 58.871 C 12.968 59.121,13.337 59.744,13.578 60.255 C 13.820 60.766,14.117 61.222,14.237 61.268 C 14.357 61.314,14.685 61.704,14.965 62.134 C 15.245 62.565,15.623 63.075,15.805 63.268 C 15.987 63.462,16.302 63.944,16.504 64.341 C 16.706 64.738,16.957 65.148,17.061 65.252 C 17.165 65.356,17.438 65.691,17.667 65.996 C 17.896 66.301,18.365 66.854,18.708 67.225 C 19.052 67.597,19.333 67.949,19.333 68.009 C 19.333 68.068,19.708 68.514,20.167 69.000 C 20.625 69.486,21.000 69.944,21.000 70.019 C 21.000 70.094,21.206 70.369,21.458 70.629 C 21.710 70.890,22.067 71.316,22.250 71.576 C 22.963 72.587,24.119 73.935,26.209 76.196 C 27.126 77.189,27.230 77.297,27.860 77.907 C 28.075 78.115,28.775 78.820,29.417 79.475 C 30.058 80.130,30.790 80.871,31.042 81.122 C 31.629 81.706,31.643 81.629,30.667 83.151 C 30.208 83.865,29.833 84.522,29.833 84.609 C 29.833 85.801,27.377 86.244,26.512 85.208 C 25.912 84.490,25.915 84.493,25.250 83.845 C 24.291 82.911,23.566 82.078,23.090 81.368 C 22.827 80.974,22.521 80.599,22.412 80.534 C 22.302 80.470,22.094 80.185,21.949 79.902 C 21.805 79.620,21.345 78.968,20.927 78.455 C 20.509 77.942,20.167 77.469,20.167 77.403 C 20.167 77.337,19.916 77.041,19.611 76.744 C 18.989 76.140,17.876 74.563,17.367 73.566 C 17.183 73.206,16.764 72.617,16.435 72.258 C 16.105 71.899,15.788 71.450,15.729 71.261 C 15.669 71.071,15.439 70.698,15.216 70.432 C 14.992 70.165,14.652 69.602,14.458 69.182 C 14.265 68.761,13.863 68.141,13.564 67.803 C 13.266 67.466,12.948 66.922,12.857 66.593 C 12.767 66.265,12.434 65.641,12.118 65.207 C 11.802 64.772,11.381 64.044,11.182 63.589 C 10.983 63.134,10.723 62.647,10.604 62.506 C 10.486 62.365,10.287 61.987,10.164 61.667 C 10.040 61.346,9.704 60.708,9.416 60.250 C 9.128 59.792,8.750 59.042,8.577 58.583 C 8.403 58.125,7.988 57.225,7.654 56.583 C 7.320 55.942,6.922 54.985,6.769 54.458 C 6.616 53.931,6.429 53.500,6.354 53.500 C 6.162 53.500,5.700 52.380,5.562 51.584 C 5.499 51.218,5.314 50.693,5.151 50.417 C 4.255 48.902,4.120 48.532,4.020 47.333 L 3.917 46.083 3.125 46.033 L 2.333 45.982 2.333 50.374 C 2.333 55.161,2.335 55.167,3.283 55.167 L 3.833 55.167 3.833 57.980 L 3.833 60.793 4.500 61.480 L 5.167 62.167 5.168 63.709 C 5.169 66.016,5.455 66.825,6.270 66.831 C 6.604 66.833,6.628 66.934,6.699 68.663 C 6.781 70.656,7.001 71.167,7.776 71.167 C 8.147 71.167,8.167 71.223,8.169 72.292 C 8.172 73.993,8.251 74.167,9.019 74.167 L 9.667 74.167 9.667 75.566 C 9.667 77.084,9.719 77.167,10.674 77.167 L 11.154 77.167 11.202 78.625 L 11.250 80.083 11.952 80.134 L 12.653 80.185 12.702 81.551 L 12.750 82.917 13.375 82.968 C 13.968 83.017,14.000 83.050,14.000 83.600 C 14.000 84.373,14.581 85.476,15.090 85.669 C 15.416 85.793,15.500 85.943,15.500 86.401 C 15.500 87.101,15.863 87.500,16.502 87.500 C 16.934 87.500,16.985 87.560,17.032 88.125 C 17.082 88.732,17.104 88.752,17.792 88.801 L 18.500 88.852 18.500 89.583 L 18.500 90.314 19.208 90.365 C 19.914 90.416,19.917 90.420,19.968 91.127 C 20.016 91.796,21.128 93.333,21.563 93.333 C 21.634 93.333,21.988 93.641,22.349 94.016 C 22.834 94.522,23.175 94.722,23.661 94.787 C 24.293 94.872,24.318 94.899,24.366 95.562 C 24.416 96.241,24.425 96.251,25.115 96.301 C 25.790 96.350,25.816 96.373,25.865 96.967 C 25.915 97.562,25.941 97.585,26.616 97.634 C 27.308 97.684,27.316 97.692,27.366 98.384 C 27.416 99.078,27.422 99.084,28.125 99.135 C 28.831 99.186,28.833 99.188,28.833 99.848 C 28.833 100.560,28.879 100.597,29.917 100.715 L 30.583 100.791 30.527 99.994 C 30.467 99.158,30.293 99.008,29.375 99.002 C 29.022 99.000,29.001 98.935,29.017 97.875 C 29.038 96.417,29.124 96.162,29.881 95.301 C 30.737 94.328,31.489 93.273,32.143 92.127 C 32.443 91.601,32.782 91.114,32.895 91.044 C 33.009 90.974,33.283 90.617,33.505 90.250 C 33.726 89.883,34.036 89.471,34.193 89.333 C 34.350 89.196,34.716 88.633,35.006 88.083 C 35.295 87.533,35.666 86.933,35.830 86.750 C 35.994 86.567,36.244 86.187,36.385 85.907 C 36.527 85.626,36.861 85.176,37.128 84.907 C 37.396 84.637,37.740 84.093,37.894 83.697 C 38.047 83.301,38.472 82.582,38.837 82.098 C 39.201 81.615,39.500 81.162,39.500 81.091 C 39.500 81.019,39.753 80.614,40.062 80.189 C 40.371 79.764,40.681 79.229,40.750 79.000 C 40.820 78.771,41.204 78.145,41.605 77.608 C 42.005 77.072,42.333 76.499,42.333 76.334 C 42.333 76.169,42.594 75.646,42.913 75.172 C 43.232 74.699,43.761 73.772,44.090 73.114 C 45.367 70.555,46.258 68.858,46.437 68.642 C 46.539 68.518,46.717 68.117,46.832 67.750 C 46.947 67.383,47.174 66.858,47.337 66.583 C 48.055 65.373,48.301 64.858,48.417 64.322 C 48.571 63.605,48.922 62.912,49.342 62.491 C 49.525 62.308,49.667 61.940,49.667 61.646 C 49.667 60.984,50.439 59.200,50.937 58.709 C 51.301 58.351,51.367 58.130,51.573 56.564 C 51.623 56.186,51.776 55.661,51.914 55.397 C 52.052 55.133,52.165 54.825,52.166 54.714 C 52.167 54.347,52.896 54.753,53.306 55.350 C 53.657 55.861,53.688 56.058,53.626 57.345 C 53.545 59.023,53.479 59.167,52.800 59.167 C 52.161 59.167,51.846 59.560,51.839 60.364 C 51.830 61.384,51.343 63.385,51.015 63.745 C 50.561 64.246,50.389 64.658,50.258 65.565 C 50.128 66.457,49.738 67.412,49.307 67.890 C 49.154 68.059,48.875 68.766,48.686 69.461 C 48.498 70.156,48.277 70.768,48.196 70.821 C 47.983 70.961,47.743 71.458,47.351 72.573 C 47.160 73.115,46.825 73.827,46.605 74.154 C 46.385 74.482,46.073 75.181,45.913 75.708 C 45.752 76.235,45.569 76.667,45.504 76.667 C 45.387 76.667,44.799 77.817,44.248 79.125 C 44.084 79.515,43.895 79.833,43.829 79.833 C 43.699 79.833,43.000 81.365,43.000 81.648 C 43.000 81.835,42.227 83.023,42.015 83.163 C 41.942 83.211,41.755 83.636,41.600 84.108 C 41.445 84.580,41.131 85.180,40.902 85.441 C 40.517 85.882,40.373 86.152,39.741 87.620 C 39.614 87.915,39.387 88.290,39.236 88.453 C 38.973 88.737,37.928 90.529,37.276 91.811 C 37.107 92.144,36.765 92.642,36.516 92.917 C 36.267 93.192,35.851 93.867,35.591 94.417 C 35.331 94.967,34.974 95.604,34.798 95.833 C 34.256 96.538,32.513 99.362,32.400 99.720 C 32.341 99.906,32.146 100.213,31.966 100.404 C 31.583 100.809,31.585 102.985,31.969 103.370 C 32.314 103.715,36.000 103.776,36.000 103.436 C 36.000 103.281,36.095 103.213,36.237 103.268 C 36.861 103.508,37.500 102.464,37.500 101.206 C 37.500 100.759,37.573 100.683,38.119 100.553 C 38.832 100.385,38.958 100.105,38.983 98.625 L 39.000 97.667 39.649 97.667 C 40.433 97.667,40.500 97.535,40.500 95.986 C 40.500 94.878,40.516 94.833,40.903 94.833 C 41.773 94.833,41.833 94.729,41.833 93.232 L 41.833 91.833 42.583 91.833 L 43.333 91.833 43.333 90.333 L 43.333 88.833 44.083 88.833 L 44.833 88.833 44.833 87.417 L 44.833 86.000 45.383 86.000 C 46.200 86.000,46.333 85.762,46.333 84.300 L 46.333 83.000 46.911 83.000 C 47.662 83.000,47.833 82.668,47.833 81.212 L 47.833 80.069 48.375 79.909 C 49.084 79.701,49.312 79.035,49.324 77.135 L 49.333 75.687 49.958 75.635 L 50.583 75.583 50.630 73.468 L 50.676 71.352 51.380 71.301 L 52.083 71.250 52.130 69.042 L 52.176 66.833 52.646 66.833 C 53.598 66.833,53.667 66.568,53.667 62.862 C 53.667 59.677,53.683 59.500,53.982 59.500 C 54.862 59.500,54.980 59.127,55.086 55.986 C 55.172 53.406,55.153 53.056,54.925 53.056 C 54.783 53.056,54.667 53.102,54.667 53.159 C 54.667 53.216,54.442 53.280,54.167 53.301 L 53.667 53.339 53.667 52.336 C 53.667 51.260,53.974 51.040,54.834 51.500 C 55.135 51.662,55.147 51.514,55.161 47.256 C 55.180 41.599,55.286 41.974,53.689 42.035 L 52.417 42.083 52.329 43.500 C 52.265 44.542,52.221 44.740,52.162 44.250 C 52.085 43.601,52.065 43.582,51.385 43.533 L 50.687 43.482 50.635 46.550 L 50.583 49.618 49.958 50.310 C 49.615 50.690,49.333 51.137,49.333 51.304 C 49.333 51.896,48.796 53.172,48.423 53.465 C 48.215 53.629,47.988 53.947,47.919 54.173 C 47.671 54.979,47.598 55.000,45.000 55.000 C 41.994 55.000,41.444 55.084,41.671 55.509 C 41.760 55.675,41.833 56.454,41.833 57.239 C 41.833 58.886,41.623 59.243,40.551 59.418 C 40.202 59.476,39.804 59.546,39.667 59.575 C 39.529 59.604,40.298 59.637,41.375 59.647 L 43.333 59.667 43.333 58.083 L 43.333 56.500 44.833 56.500 C 46.428 56.500,46.788 56.717,45.867 57.125 C 45.297 57.377,45.066 57.992,44.910 59.667 C 44.846 60.355,44.671 61.104,44.521 61.333 C 44.372 61.563,44.062 62.116,43.833 62.564 C 43.493 63.228,43.271 63.439,42.625 63.711 C 41.850 64.037,41.833 64.060,41.833 64.780 C 41.833 66.226,41.227 66.815,39.697 66.853 C 39.268 66.863,39.067 66.905,39.250 66.945 C 40.731 67.267,40.737 69.035,39.263 70.667 C 39.056 70.896,38.718 71.365,38.513 71.708 C 38.307 72.052,38.007 72.427,37.846 72.542 C 37.685 72.656,37.456 72.938,37.338 73.167 C 36.329 75.122,36.005 75.371,35.366 74.686 C 35.119 74.421,34.767 74.158,34.583 74.101 C 34.400 74.043,34.063 73.775,33.833 73.505 C 33.604 73.234,32.760 72.340,31.958 71.517 C 31.156 70.694,30.500 69.928,30.500 69.813 C 30.500 69.699,30.357 69.300,30.182 68.928 C 29.747 68.002,29.655 67.032,29.992 66.945 C 30.134 66.909,29.894 66.892,29.458 66.909 L 28.667 66.940 28.667 66.137 L 28.667 65.333 27.928 65.333 C 26.874 65.333,26.472 65.134,25.561 64.160 C 24.029 62.522,23.896 61.281,25.243 61.196 C 25.867 61.156,25.964 61.050,26.030 60.333 L 26.083 59.750 28.958 59.768 C 30.540 59.778,31.833 59.722,31.833 59.643 C 31.833 59.564,31.139 59.500,30.291 59.500 C 27.464 59.500,26.919 59.025,27.485 57.053 C 27.665 56.425,27.555 56.357,26.523 56.464 L 25.795 56.539 25.863 58.095 L 25.931 59.651 25.174 59.701 C 24.429 59.749,24.416 59.760,24.365 60.375 C 24.336 60.719,24.237 61.000,24.144 61.000 C 23.814 61.000,22.667 59.641,22.667 59.250 C 22.667 58.583,22.488 58.346,21.901 58.236 C 21.347 58.132,21.333 58.110,21.333 57.315 L 21.333 56.500 20.375 56.494 C 19.430 56.489,18.667 56.129,18.667 55.689 C 18.667 55.594,18.329 55.183,17.917 54.776 C 17.504 54.369,17.167 53.916,17.167 53.768 C 17.167 53.621,17.103 53.500,17.026 53.500 C 16.948 53.500,16.610 53.234,16.276 52.909 L 15.667 52.317 15.654 50.534 C 15.642 48.831,15.572 48.017,15.425 47.869 C 15.239 47.683,14.284 48.068,14.208 48.360 C 14.128 48.665,14.112 48.661,13.933 48.301 C 13.796 48.026,13.572 47.902,13.144 47.866 L 12.547 47.816 12.444 46.722 C 12.329 45.485,12.182 45.233,11.488 45.081 C 11.038 44.982,11.000 44.916,11.000 44.237 L 11.000 43.500 10.250 43.500 L 9.500 43.500 9.497 42.292 C 9.494 40.890,9.430 40.748,8.731 40.596 C 8.234 40.488,8.208 40.440,8.121 39.486 C 8.015 38.312,7.653 37.667,7.104 37.667 C 6.738 37.667,6.709 37.589,6.617 36.380 C 6.513 35.004,6.304 34.667,5.551 34.667 C 5.184 34.667,5.167 34.611,5.167 33.429 C 5.167 32.030,4.958 31.667,4.155 31.667 L 3.667 31.667 3.667 29.833 C 3.667 28.222,3.626 27.960,3.333 27.667 C 2.933 27.266,1.731 27.211,1.240 27.570 M36.000 29.825 L 36.000 31.318 36.625 31.491 C 37.686 31.786,37.667 31.812,37.667 30.104 L 37.667 28.542 37.146 28.438 C 35.981 28.205,36.000 28.182,36.000 29.825 M53.585 29.042 C 53.431 29.915,53.431 30.436,53.589 31.875 L 53.712 33.000 54.267 33.000 C 55.054 33.000,55.167 32.668,55.167 30.344 L 55.167 28.333 54.439 28.333 C 53.713 28.333,53.710 28.336,53.585 29.042 M5.212 31.832 C 5.327 32.691,5.582 33.000,6.177 33.000 C 6.611 33.000,6.651 33.055,6.699 33.708 C 6.750 34.413,6.753 34.417,7.458 34.468 C 7.954 34.504,8.167 34.594,8.167 34.769 C 8.167 34.907,8.224 34.984,8.295 34.940 C 8.365 34.897,8.384 34.424,8.336 33.889 L 8.250 32.917 7.542 32.865 C 6.846 32.815,6.833 32.803,6.831 32.199 C 6.827 31.364,6.702 31.235,5.852 31.189 L 5.121 31.150 5.212 31.832 M11.000 31.990 C 11.000 32.271,11.029 32.500,11.064 32.500 C 11.205 32.500,11.279 31.652,11.144 31.570 C 11.065 31.520,11.000 31.710,11.000 31.990 M34.875 31.803 C 34.522 31.853,34.500 31.935,34.500 33.178 L 34.500 34.500 35.050 34.500 C 35.828 34.500,36.000 34.244,35.999 33.092 C 35.997 31.999,35.720 31.681,34.875 31.803 M16.715 32.817 C 16.608 32.989,16.525 33.438,16.530 33.815 L 16.539 34.500 17.924 34.500 C 19.564 34.500,19.834 34.327,19.832 33.280 L 19.830 32.583 18.370 32.544 C 17.098 32.510,16.885 32.545,16.715 32.817 M37.702 34.286 L 37.750 35.738 38.295 35.894 C 38.987 36.092,38.989 36.090,39.110 34.791 C 39.264 33.142,39.140 32.833,38.324 32.833 L 37.654 32.833 37.702 34.286 M12.167 33.070 C 12.167 33.109,12.448 33.233,12.792 33.345 C 13.496 33.574,13.660 33.752,13.664 34.292 C 13.666 34.638,13.740 34.666,14.625 34.656 C 15.315 34.648,15.486 34.606,15.236 34.505 C 14.865 34.355,14.000 33.409,14.000 33.154 C 14.000 33.069,13.588 33.000,13.083 33.000 C 12.579 33.000,12.167 33.032,12.167 33.070 M20.333 33.500 C 20.063 33.770,20.000 34.056,20.000 35.000 L 20.000 36.167 20.667 36.167 C 21.323 36.167,21.334 36.157,21.352 35.542 C 21.370 34.896,21.367 33.512,21.345 33.292 C 21.321 33.040,20.657 33.176,20.333 33.500 M47.667 34.064 C 47.667 34.791,47.837 34.882,48.833 34.685 C 49.363 34.580,49.449 34.531,49.126 34.518 C 48.848 34.507,48.474 34.295,48.168 33.975 L 47.667 33.451 47.667 34.064 M52.167 35.220 L 52.167 36.106 52.875 36.011 L 53.583 35.917 53.634 35.125 L 53.685 34.333 52.926 34.333 L 52.167 34.333 52.167 35.220 M16.667 35.900 C 16.667 37.069,16.635 37.190,16.292 37.328 C 16.085 37.411,16.005 37.484,16.113 37.489 C 16.614 37.516,16.833 38.031,16.833 39.179 L 16.833 40.333 17.396 40.333 C 18.283 40.333,18.343 40.141,18.294 37.452 C 18.245 34.739,18.279 34.839,17.347 34.714 L 16.667 34.623 16.667 35.900 M8.239 35.625 C 8.263 35.785,8.312 35.902,8.349 35.883 C 8.386 35.865,8.702 35.914,9.050 35.993 C 9.455 36.084,9.664 36.076,9.630 35.972 C 9.600 35.882,9.502 35.805,9.412 35.801 C 9.323 35.797,9.102 35.690,8.921 35.564 C 8.472 35.249,8.188 35.275,8.239 35.625 M32.997 36.180 C 32.690 37.318,32.804 37.571,33.667 37.667 L 34.417 37.750 34.464 39.453 C 34.529 41.775,34.185 42.118,32.244 41.670 C 31.769 41.560,31.355 41.578,30.839 41.730 L 30.107 41.947 30.907 42.056 C 31.347 42.117,32.673 42.117,33.854 42.057 L 36.000 41.949 36.000 40.130 C 36.000 38.038,35.895 37.747,35.088 37.595 L 34.500 37.485 34.500 36.492 L 34.500 35.500 33.840 35.500 C 33.208 35.500,33.172 35.530,32.997 36.180 M39.000 38.468 C 39.000 39.998,39.164 40.333,39.915 40.333 C 40.597 40.333,40.781 39.773,40.592 38.264 L 40.480 37.365 39.740 37.306 L 39.000 37.248 39.000 38.468 M10.253 37.838 C 10.393 38.111,10.575 38.333,10.657 38.333 C 10.739 38.333,10.910 38.373,11.037 38.422 C 11.212 38.489,11.252 38.376,11.202 37.948 C 11.142 37.438,11.084 37.384,10.566 37.365 L 9.997 37.343 10.253 37.838 M50.559 37.586 C 50.506 37.725,50.497 38.021,50.540 38.244 C 50.623 38.680,50.417 38.833,49.747 38.833 C 49.119 38.833,48.927 41.809,49.552 41.845 C 49.661 41.851,49.956 41.884,50.208 41.917 L 50.667 41.977 50.667 40.405 L 50.667 38.833 51.157 38.833 C 51.709 38.833,52.167 38.326,52.167 37.713 C 52.167 37.242,50.735 37.129,50.559 37.586 M18.611 37.611 C 18.371 37.851,18.494 39.295,18.764 39.399 C 19.712 39.763,20.000 39.553,20.000 38.500 L 20.000 37.500 19.361 37.500 C 19.010 37.500,18.672 37.550,18.611 37.611 M12.667 39.667 L 12.667 40.333 13.333 40.333 L 14.000 40.333 14.000 39.667 L 14.000 39.000 13.333 39.000 L 12.667 39.000 12.667 39.667 M17.475 40.612 C 17.123 40.705,17.005 41.165,17.002 42.458 C 17.000 43.426,17.105 43.673,17.395 43.383 C 17.460 43.318,17.716 43.262,17.965 43.258 C 18.415 43.250,18.417 43.245,18.465 41.875 C 18.517 40.393,18.480 40.345,17.475 40.612 M40.067 41.128 C 39.489 41.513,39.479 42.000,40.049 42.000 C 40.576 42.000,40.605 41.971,40.536 41.500 C 40.460 40.983,40.379 40.919,40.067 41.128 M0.881 42.137 C 0.871 42.509,0.969 42.822,1.141 42.964 C 1.292 43.089,1.323 43.144,1.208 43.086 C 1.094 43.028,1.000 43.060,1.000 43.157 C 1.000 43.394,1.217 43.380,1.491 43.125 C 1.622 43.003,1.672 42.995,1.610 43.106 C 1.547 43.219,1.672 43.327,1.919 43.374 C 2.308 43.449,2.333 43.411,2.333 42.741 C 2.333 42.326,2.421 41.993,2.542 41.944 C 2.742 41.863,2.246 41.763,1.933 41.822 C 1.851 41.837,1.664 41.797,1.517 41.733 C 0.980 41.498,0.898 41.550,0.881 42.137 M16.208 44.477 C 15.528 45.152,15.500 45.220,15.500 46.205 C 15.500 47.107,15.527 47.193,15.725 46.923 C 15.871 46.723,16.073 46.647,16.301 46.706 C 17.036 46.899,17.211 46.524,17.057 45.087 L 16.917 43.775 16.208 44.477 M32.833 60.980 C 32.833 61.060,32.946 61.219,33.083 61.333 C 33.292 61.507,33.333 61.483,33.333 61.187 C 33.333 60.984,33.227 60.833,33.083 60.833 C 32.946 60.833,32.833 60.899,32.833 60.980 M37.434 62.264 C 37.296 62.625,37.324 63.778,37.490 64.583 C 37.602 65.123,37.632 64.941,37.648 63.625 C 37.667 62.009,37.628 61.760,37.434 62.264 M34.333 63.990 C 34.333 64.810,34.408 65.527,34.500 65.583 C 34.607 65.649,34.667 65.113,34.667 64.093 C 34.667 63.142,34.599 62.500,34.500 62.500 C 34.401 62.500,34.333 63.108,34.333 63.990 M32.750 66.833 C 32.693 66.925,32.801 67.000,32.990 67.000 C 33.179 67.000,33.333 66.925,33.333 66.833 C 33.333 66.742,33.225 66.667,33.093 66.667 C 32.961 66.667,32.807 66.742,32.750 66.833 M36.217 102.458 C 36.121 102.720,36.147 102.718,36.472 102.433 C 36.961 102.003,36.933 102.181,36.439 102.646 L 36.045 103.016 36.084 102.633 C 36.130 102.193,36.139 102.167,36.245 102.167 C 36.288 102.167,36.275 102.298,36.217 102.458 " stroke="none" fill="#28507b" fill-rule="evenodd"></path><path id="path3" d="" stroke="none" fill="#c0100c4" fill-rule="evenodd"></path><path id="path4" d="" stroke="none" fill="#c0100c4" fill-rule="evenodd"></path></g></svg>