<svg id="svg" version="1.1" xmlns="http://www.w3.org/2000/svg" xmlns:xlink="http://www.w3.org/1999/xlink" width="120" height="110" viewBox="0, 0, 400,379.4"><g id="svgg"><path id="path0" d="M197.485 11.163 C 197.314 11.363,192.847 19.936,187.559 30.213 C 182.270 40.491,177.921 48.928,177.894 48.961 C 177.866 48.995,177.369 48.500,176.788 47.861 C 164.288 34.118,145.376 23.181,125.357 18.118 C 108.802 13.932,87.731 14.984,70.300 20.869 C 31.025 34.127,6.358 71.901,10.920 111.800 C 14.630 144.249,31.572 168.815,55.151 175.933 L 57.002 176.492 56.851 177.496 C 55.114 189.057,62.722 201.526,75.401 207.898 C 80.475 210.449,86.126 211.668,89.800 211.005 C 91.326 210.729,94.461 210.395,94.563 210.496 C 94.601 210.535,84.528 230.210,72.177 254.219 C 59.826 278.227,49.686 298.107,49.643 298.397 C 49.470 299.579,46.114 299.495,96.215 299.553 L 142.168 299.605 141.109 301.753 C 134.625 314.899,136.663 326.031,146.791 332.777 C 151.528 335.933,156.359 337.755,165.900 339.985 C 187.042 344.924,195.800 352.448,195.800 365.671 C 195.800 367.828,196.952 368.617,200.060 368.591 C 202.697 368.569,203.590 367.790,203.601 365.500 C 203.636 358.329,206.974 352.065,213.031 347.803 C 217.926 344.359,223.328 342.338,234.700 339.696 C 260.065 333.803,267.895 320.879,258.010 301.220 L 257.198 299.605 303.549 299.553 C 347.514 299.503,349.933 299.482,350.550 299.145 C 351.396 298.683,351.438 297.657,350.673 296.143 C 350.187 295.183,302.086 204.917,301.852 204.528 C 301.702 204.277,304.607 204.500,306.700 204.899 C 310.648 205.652,317.421 205.307,322.600 204.088 C 340.959 199.767,348.804 187.825,342.717 173.464 C 342.218 172.287,341.830 171.308,341.855 171.289 C 341.880 171.270,342.665 171.005,343.600 170.700 C 360.865 165.067,374.873 150.828,382.952 130.700 C 389.213 115.102,391.131 99.035,388.480 84.400 C 381.781 47.418,354.942 22.493,314.200 15.415 C 272.254 8.129,234.746 19.954,218.620 45.550 C 218.256 46.128,217.891 46.600,217.809 46.600 C 217.727 46.600,213.625 39.017,208.694 29.750 C 197.794 9.264,198.338 10.167,197.485 11.163 M294.900 21.402 C 345.840 23.748,380.352 58.562,376.186 103.400 C 373.660 130.579,351.745 157.383,328.340 161.918 C 325.055 162.554,324.703 163.723,326.982 166.424 C 333.549 174.206,330.815 186.321,321.500 190.721 C 312.773 194.844,299.770 192.432,293.453 185.520 C 287.224 178.705,288.394 168.403,295.950 163.518 C 298.494 161.873,297.614 160.827,292.469 159.382 C 276.383 154.865,267.182 143.936,266.470 128.500 C 265.919 116.549,273.366 106.700,284.555 104.583 C 288.273 103.880,289.414 104.506,290.611 107.910 C 292.891 114.395,296.297 118.823,300.664 120.980 C 315.289 128.203,336.454 109.505,332.046 93.255 C 327.113 75.068,302.694 60.071,281.961 62.497 C 267.599 64.177,257.055 71.922,246.500 88.544 C 245.286 90.455,243.372 91.202,242.284 90.189 C 241.994 89.920,240.451 87.090,238.855 83.900 C 237.258 80.710,233.698 73.826,230.942 68.602 C 225.493 58.272,225.387 58.027,225.353 55.760 L 225.331 54.220 226.615 52.090 C 237.360 34.274,259.826 22.587,285.600 21.406 C 290.231 21.194,290.368 21.193,294.900 21.402 M113.600 24.986 C 137.338 28.099,157.313 38.976,167.529 54.351 C 169.215 56.889,169.483 57.800,169.178 59.956 C 168.959 61.502,169.464 60.340,163.242 73.600 C 153.062 95.294,153.643 94.200,152.291 94.200 C 151.053 94.200,149.974 93.404,148.564 91.449 C 129.872 65.540,102.441 59.573,79.835 76.498 C 61.196 90.452,59.706 111.536,76.603 122.225 C 88.646 129.844,103.836 123.614,109.973 108.540 C 110.687 106.786,114.578 106.764,118.324 108.493 C 128.585 113.228,133.521 126.708,129.567 139.193 C 126.041 150.325,115.795 159.608,102.958 163.301 C 98.713 164.523,97.498 165.938,99.650 167.156 C 116.529 176.710,107.658 197.337,86.700 197.267 C 69.280 197.209,58.531 182.125,68.124 171.200 C 69.906 169.172,70.514 167.423,69.894 166.116 C 69.209 164.672,67.899 164.105,61.070 162.297 C 51.267 159.701,48.738 158.520,43.400 154.044 C 29.327 142.245,20.190 123.214,19.663 104.600 C 18.996 81.065,25.816 63.992,41.593 49.700 C 62.474 30.785,88.834 21.738,113.600 24.986 M302.022 32.716 C 292.914 35.166,291.344 48.829,299.723 52.726 C 311.357 58.135,320.714 39.875,309.449 33.746 C 307.255 32.552,304.205 32.129,302.022 32.716 M286.580 33.572 C 286.258 34.495,286.608 34.407,274.948 36.491 C 267.582 37.807,266.334 38.619,266.058 42.272 L 265.946 43.755 266.454 43.658 C 266.841 43.584,266.993 43.403,267.086 42.903 C 267.319 41.661,268.503 40.934,271.006 40.496 L 271.712 40.372 272.148 42.636 C 273.702 50.718,273.107 55.400,270.525 55.400 C 270.075 55.400,269.082 54.481,268.802 53.804 C 268.590 53.293,267.600 52.869,267.600 53.290 C 267.600 55.861,269.312 58.400,271.047 58.400 C 274.976 58.400,275.807 53.504,273.592 43.402 C 273.266 41.918,273.000 40.566,273.000 40.397 C 273.000 40.070,278.661 38.794,278.927 39.060 C 278.998 39.131,279.666 42.164,280.412 45.799 C 282.210 54.566,282.694 55.400,285.990 55.400 C 288.856 55.400,290.402 53.621,290.397 50.327 C 290.394 48.025,290.285 47.600,289.702 47.600 C 289.259 47.600,289.252 47.636,289.352 49.378 C 289.549 52.844,288.476 54.404,286.588 53.393 C 285.800 52.972,283.821 45.264,282.744 38.423 C 282.714 38.235,283.148 38.039,284.100 37.811 C 286.888 37.141,287.600 36.493,287.600 34.626 C 287.600 32.974,287.003 32.358,286.580 33.572 M197.698 34.084 C 198.053 34.460,198.774 35.608,199.302 36.634 C 199.829 37.660,227.711 91.465,261.261 156.200 C 326.252 281.600,325.600 280.337,325.600 280.942 C 325.600 281.160,325.411 281.509,325.179 281.719 C 324.766 282.093,322.351 282.100,196.885 282.100 L 69.011 282.100 68.559 281.648 C 67.572 280.660,64.153 287.407,131.000 158.400 C 165.569 91.685,194.158 36.474,194.531 35.709 C 195.731 33.243,196.522 32.837,197.698 34.084 M306.576 33.911 C 314.161 36.164,309.845 54.234,302.162 52.391 C 299.204 51.681,297.676 47.869,298.391 42.981 C 299.368 36.298,302.590 32.728,306.576 33.911 M331.600 33.806 C 325.535 35.066,317.978 44.712,317.007 52.431 C 316.020 60.284,323.920 64.941,330.645 60.470 C 336.510 56.571,341.252 48.424,341.286 42.190 L 341.300 39.681 340.546 38.153 C 338.893 34.807,335.264 33.044,331.600 33.806 M337.339 35.924 C 340.232 38.253,339.384 43.170,334.976 49.624 L 334.652 50.099 329.910 46.938 L 325.168 43.778 325.516 43.239 C 329.784 36.628,334.549 33.680,337.339 35.924 M110.400 37.241 C 110.400 37.508,110.177 41.294,109.904 45.656 C 109.377 54.087,109.403 55.010,110.207 56.312 C 111.314 58.102,115.421 58.567,117.164 57.099 C 118.498 55.977,119.370 51.396,118.279 51.240 C 117.889 51.184,117.851 51.296,117.748 52.791 C 117.558 55.560,116.355 56.950,114.603 56.424 C 112.984 55.939,112.988 55.991,113.691 44.804 C 113.957 40.571,114.158 37.094,114.137 37.076 C 114.117 37.059,113.267 36.980,112.250 36.901 L 110.400 36.758 110.400 37.241 M248.744 37.818 C 245.575 38.564,243.189 42.477,243.792 45.937 C 244.158 48.042,244.828 49.644,246.620 52.700 L 247.089 53.500 246.294 52.900 C 241.077 48.960,237.997 48.061,234.915 49.578 C 232.041 50.993,230.154 55.118,231.337 57.400 C 232.042 58.759,232.994 58.122,232.999 56.289 C 233.000 55.696,233.992 54.232,235.045 53.267 C 238.872 49.762,242.211 51.570,251.710 62.295 C 257.257 68.557,257.365 68.821,255.267 71.018 C 254.716 71.595,254.634 71.779,254.848 71.957 C 255.084 72.152,261.281 66.945,264.093 64.188 C 264.935 63.362,264.520 62.940,263.567 63.653 C 260.943 65.618,260.817 65.553,255.419 59.445 C 247.540 50.528,245.677 47.230,246.594 43.823 C 247.108 41.912,250.022 39.805,252.156 39.802 C 253.722 39.800,253.992 39.428,253.044 38.581 C 252.033 37.678,250.497 37.405,248.744 37.818 M93.933 38.870 L 92.367 39.300 92.479 40.300 C 92.541 40.850,92.645 42.515,92.711 44.000 L 92.829 46.700 92.078 45.400 C 89.801 41.459,86.610 40.022,83.150 41.378 C 74.488 44.773,76.382 60.300,85.666 62.011 C 89.969 62.804,94.425 59.651,95.464 55.078 L 95.729 53.910 96.269 55.089 C 98.830 60.681,103.565 59.761,102.213 53.934 C 101.927 52.704,101.326 52.700,101.263 53.927 C 101.145 56.197,98.687 56.060,96.873 53.682 L 96.304 52.937 96.285 46.418 C 96.267 39.921,96.160 38.382,95.728 38.420 C 95.602 38.431,94.795 38.634,93.933 38.870 M87.754 42.495 C 93.680 45.253,95.291 58.879,89.870 60.384 C 85.336 61.643,81.730 56.720,81.457 48.900 C 81.265 43.360,83.886 40.694,87.754 42.495 M133.500 43.030 C 126.531 43.824,121.173 52.322,123.928 58.210 C 125.822 62.257,131.048 64.181,135.105 62.323 C 135.734 62.035,136.284 61.800,136.327 61.800 C 136.370 61.800,136.101 62.408,135.730 63.150 C 133.194 68.220,135.870 71.205,139.702 67.580 C 140.306 67.009,140.800 66.428,140.800 66.288 C 140.800 65.902,140.341 65.817,139.975 66.135 C 138.324 67.569,136.679 65.847,137.207 63.237 C 137.525 61.661,137.755 61.375,139.816 59.990 C 142.855 57.946,149.163 53.102,149.178 52.800 C 149.182 52.714,148.297 51.980,146.727 50.769 C 146.309 50.447,146.219 50.503,143.499 52.798 C 141.959 54.096,140.682 55.142,140.661 55.123 C 140.639 55.104,140.951 54.281,141.355 53.294 C 143.844 47.205,140.075 42.280,133.500 43.030 M333.883 50.818 C 334.253 51.158,330.446 56.350,328.475 58.193 C 325.441 61.032,322.963 61.505,320.803 59.656 C 318.095 57.338,318.871 53.533,323.537 46.246 L 324.596 44.593 329.148 47.621 C 331.652 49.287,333.782 50.725,333.883 50.818 M138.586 45.393 C 142.599 47.440,141.684 53.453,136.610 58.377 C 132.510 62.357,128.209 62.659,126.344 59.100 C 123.697 54.048,133.668 42.884,138.586 45.393 M63.152 53.089 C 60.295 54.091,59.437 56.467,58.639 65.584 L 58.300 69.451 55.600 66.400 C 54.115 64.722,52.714 63.122,52.486 62.845 L 52.071 62.342 51.411 63.521 C 51.047 64.169,50.169 65.543,49.459 66.574 C 47.955 68.755,48.009 69.076,49.731 68.188 C 51.945 67.046,51.960 67.056,58.601 74.600 C 61.264 77.625,63.596 80.260,63.783 80.456 C 64.107 80.795,64.178 80.761,65.302 79.739 L 66.482 78.667 62.764 74.484 C 60.719 72.183,59.066 70.277,59.091 70.249 C 59.245 70.074,70.775 72.037,71.222 72.314 C 71.555 72.519,71.402 73.167,70.872 73.797 C 70.206 74.589,70.506 75.131,71.247 74.473 C 71.496 74.252,73.202 72.745,75.039 71.123 C 77.250 69.170,78.340 68.078,78.267 67.887 C 78.136 67.545,77.876 67.515,77.687 67.821 C 76.912 69.074,75.110 69.028,66.700 67.536 L 59.700 66.294 59.762 64.797 C 59.991 59.242,60.568 57.769,62.618 57.509 C 64.257 57.302,64.937 57.033,65.493 56.371 C 66.917 54.679,65.256 52.352,63.152 53.089 M345.666 55.587 C 344.589 55.974,342.800 57.097,342.800 57.385 C 342.800 58.005,343.418 58.007,344.316 57.389 C 346.243 56.063,347.844 55.999,348.277 57.232 C 348.669 58.345,348.308 58.692,340.904 64.313 L 333.833 69.681 334.441 70.527 C 334.775 70.993,335.288 71.660,335.580 72.009 L 336.110 72.645 339.170 70.349 C 347.779 63.887,352.884 62.428,355.145 65.784 C 356.633 67.992,356.364 68.271,343.152 78.282 L 333.205 85.819 334.329 87.312 C 335.076 88.305,335.528 88.747,335.676 88.630 C 335.799 88.533,340.220 85.183,345.500 81.185 C 358.565 71.291,359.348 70.374,357.717 66.872 C 356.107 63.414,353.117 62.444,348.700 63.948 C 346.472 64.706,346.490 64.746,348.331 63.092 C 351.116 60.589,351.682 58.899,350.390 56.947 C 349.310 55.318,347.701 54.854,345.666 55.587 M293.696 74.524 C 307.207 75.903,319.137 86.110,319.737 96.804 C 320.041 102.223,318.763 107.437,316.602 109.598 C 314.064 112.136,305.630 113.629,302.481 112.097 C 298.807 110.309,296.173 104.155,297.403 100.232 C 298.375 97.130,297.440 94.103,295.120 92.843 C 294.072 92.273,290.914 92.389,286.900 93.145 C 285.030 93.497,282.706 93.882,281.736 94.000 C 270.129 95.417,259.365 107.629,257.759 121.200 C 257.716 121.561,256.123 118.733,252.028 111.032 C 248.909 105.164,246.434 100.293,246.528 100.206 C 246.623 100.119,247.043 99.939,247.463 99.804 C 249.941 99.012,252.676 96.365,256.426 91.128 C 260.848 84.953,262.996 82.534,266.200 80.121 C 272.847 75.116,281.749 73.304,293.696 74.524 M115.200 78.412 C 126.327 79.431,131.998 83.016,140.496 94.400 C 143.894 98.952,146.296 101.402,148.341 102.400 C 149.130 102.785,149.781 103.183,149.787 103.284 C 149.797 103.423,139.925 122.860,139.692 123.161 C 139.666 123.194,139.490 122.519,139.300 121.661 C 136.468 108.870,124.639 97.800,113.801 97.800 C 113.280 97.800,111.656 97.574,110.192 97.299 C 103.521 96.041,101.497 96.468,100.009 99.444 C 99.223 101.018,99.201 102.350,99.924 104.639 C 101.230 108.771,98.729 114.610,94.800 116.603 C 92.639 117.700,85.545 117.005,82.371 115.385 C 77.570 112.936,75.876 101.415,79.304 94.533 C 84.917 83.266,99.024 76.930,115.200 78.412 M39.526 82.740 C 38.597 84.617,37.664 83.880,46.770 88.462 C 54.279 92.241,55.293 92.631,56.768 92.307 C 58.947 91.828,60.846 87.849,59.838 85.874 C 58.962 84.157,55.642 81.974,55.191 82.818 C 54.926 83.312,54.849 83.226,56.143 83.876 C 58.880 85.251,59.623 86.979,58.152 88.550 C 57.287 89.473,56.801 89.302,48.400 85.100 C 44.111 82.955,40.531 81.200,40.445 81.200 C 40.358 81.200,39.945 81.893,39.526 82.740 M362.890 85.950 C 362.218 89.092,362.111 89.113,350.433 88.384 C 346.766 88.155,343.722 88.011,343.669 88.065 C 343.616 88.118,343.520 88.845,343.457 89.681 L 343.342 91.200 343.949 91.200 C 344.836 91.200,354.489 91.822,354.550 91.883 C 354.621 91.955,347.835 96.916,346.035 98.108 C 344.349 99.225,344.013 99.184,343.722 97.829 C 343.545 97.009,343.004 96.652,342.996 97.350 C 342.993 97.543,342.861 99.680,342.701 102.100 C 342.343 107.537,342.344 107.200,342.687 107.200 C 342.977 107.200,343.070 106.997,343.296 105.873 C 343.365 105.529,343.738 104.877,344.125 104.425 C 344.755 103.689,356.589 95.200,356.986 95.200 C 357.185 95.200,360.241 98.837,361.035 100.019 C 362.077 101.571,362.044 102.129,360.814 103.761 C 360.374 104.344,359.957 105.124,359.888 105.493 C 359.406 108.061,362.530 109.217,363.807 106.944 C 365.257 104.365,363.940 101.606,357.831 94.417 L 355.721 91.934 358.311 92.066 C 359.735 92.138,361.868 92.256,363.052 92.329 L 365.204 92.461 364.912 91.633 C 364.640 90.862,363.980 87.869,363.703 86.150 C 363.559 85.260,363.064 85.138,362.890 85.950 M38.200 104.329 C 30.775 109.779,24.675 114.342,24.645 114.469 C 24.593 114.690,57.187 122.465,57.383 122.279 C 57.477 122.190,52.058 95.293,51.840 94.760 C 51.726 94.483,49.207 96.250,38.200 104.329 M53.534 110.150 C 54.652 115.623,55.547 120.119,55.524 120.142 C 55.418 120.249,32.205 114.485,32.250 114.364 C 32.302 114.221,51.222 100.243,51.401 100.216 C 51.456 100.207,52.416 104.678,53.534 110.150 M341.525 113.911 C 341.217 114.857,341.000 115.666,341.042 115.709 C 341.085 115.752,342.735 116.335,344.710 117.005 C 354.756 120.415,359.347 124.432,357.208 127.940 C 356.003 129.917,355.563 129.836,340.813 124.910 C 334.055 122.654,328.497 120.837,328.461 120.873 C 328.425 120.908,328.138 121.699,327.824 122.630 L 327.251 124.323 339.376 128.354 C 355.327 133.658,356.260 133.727,358.181 129.743 C 359.748 126.496,358.736 123.715,355.020 121.050 C 353.400 119.888,353.455 119.814,355.501 120.403 C 359.947 121.683,363.155 119.712,362.197 116.290 C 361.666 114.391,357.188 111.587,357.203 113.162 C 357.206 113.381,357.609 113.674,358.346 113.994 C 361.070 115.174,361.725 117.163,359.567 117.702 C 359.145 117.807,346.581 113.854,342.293 112.267 C 342.179 112.225,341.834 112.964,341.525 113.911 M195.869 126.011 C 194.758 126.722,194.266 127.648,166.109 181.998 C 134.914 242.211,136.823 238.312,137.973 239.462 L 138.411 239.900 196.610 239.951 C 246.877 239.995,254.902 239.963,255.497 239.714 C 256.755 239.189,256.638 238.134,255.023 235.418 C 254.593 234.693,241.981 210.430,226.997 181.500 C 198.333 126.157,198.733 126.916,197.777 126.111 C 197.047 125.497,196.700 125.479,195.869 126.011 M198.350 149.979 C 198.867 150.515,201.108 154.585,205.550 163.049 L 212.000 175.341 212.000 203.770 L 212.000 232.200 198.100 232.200 L 184.200 232.200 184.200 202.245 L 184.200 172.290 189.715 161.395 C 196.333 148.319,196.518 148.075,198.350 149.979 M173.800 212.700 L 173.800 232.000 164.511 232.000 C 154.375 232.000,154.331 231.995,154.747 230.827 C 154.913 230.360,173.671 193.400,173.741 193.400 C 173.774 193.400,173.800 202.085,173.800 212.700 M233.772 217.138 C 237.530 224.310,240.657 230.435,240.720 230.750 C 240.945 231.874,240.822 231.894,233.370 231.960 L 226.600 232.020 226.600 217.870 C 226.600 210.087,226.676 203.806,226.769 203.910 C 226.862 204.014,230.013 209.967,233.772 217.138 M249.396 301.150 C 259.873 318.987,255.089 327.147,230.779 332.901 C 213.717 336.940,205.853 341.617,200.061 351.169 L 199.656 351.838 198.917 350.516 C 194.228 342.133,185.027 336.745,169.000 333.000 C 144.494 327.273,139.534 319.205,149.725 301.650 L 151.031 299.400 199.700 299.400 L 248.368 299.400 249.396 301.150 " stroke="none" fill="#040483" fill-rule="evenodd"></path><path id="path1" d="M284.500 21.541 C 260.424 22.858,238.819 33.834,227.894 50.297 C 224.195 55.872,224.129 55.470,230.771 68.054 C 233.396 73.030,236.999 80.001,238.778 83.548 C 241.540 89.056,242.101 90.042,242.630 90.315 C 244.096 91.074,245.498 90.085,247.422 86.937 C 259.631 66.958,277.862 58.479,297.804 63.504 C 315.673 68.007,331.683 83.238,332.698 96.700 C 333.624 108.984,320.533 122.642,307.800 122.677 C 299.771 122.698,293.862 117.656,290.503 107.914 C 289.404 104.726,289.361 104.695,286.134 104.716 C 275.590 104.785,266.589 115.134,266.604 127.172 C 266.624 143.128,275.730 154.387,292.600 159.315 C 297.807 160.836,298.615 161.920,295.875 163.706 C 289.642 167.770,287.709 176.256,291.520 182.819 C 296.532 191.449,311.808 195.348,321.686 190.518 C 330.978 185.974,333.383 173.750,326.508 166.009 C 324.327 163.554,324.992 162.523,329.360 161.590 C 334.965 160.392,339.230 158.564,344.200 155.230 C 382.759 129.359,387.570 77.190,354.374 44.898 C 337.793 28.768,311.718 20.052,284.500 21.541 M99.100 24.525 C 77.443 25.714,55.389 35.997,38.692 52.693 C 26.168 65.215,20.869 77.975,19.792 98.200 C 18.746 117.860,26.040 136.885,39.924 150.710 C 46.636 157.394,50.153 159.319,60.700 162.081 C 71.194 164.829,72.295 166.204,68.128 171.365 C 59.165 182.467,68.822 196.546,85.800 197.132 C 104.499 197.777,115.242 181.546,103.572 170.278 C 102.266 169.017,99.217 166.800,98.788 166.800 C 98.470 166.800,98.363 165.942,98.622 165.460 C 99.036 164.686,100.290 164.076,103.914 162.887 C 123.581 156.431,134.521 139.299,129.704 122.500 C 127.494 114.792,121.116 108.457,114.501 107.400 C 112.281 107.046,110.223 107.648,110.032 108.707 C 109.505 111.633,102.906 119.706,98.914 122.308 C 81.787 133.472,59.128 114.484,65.802 94.562 C 70.301 81.134,85.774 69.402,101.760 67.298 C 119.018 65.026,134.916 73.065,148.227 90.794 C 152.144 96.010,152.595 95.824,156.667 87.300 C 170.814 57.685,170.441 58.835,167.387 54.266 C 154.969 35.687,125.956 23.051,99.100 24.525 M306.991 32.695 C 314.988 34.823,317.256 44.479,311.201 50.619 C 303.915 58.008,292.237 51.662,294.313 41.442 C 295.626 34.982,301.181 31.149,306.991 32.695 M287.688 33.887 C 288.008 36.026,287.150 37.101,284.566 37.795 C 283.650 38.041,282.878 38.262,282.851 38.287 C 282.687 38.436,285.630 51.915,285.944 52.454 C 287.389 54.936,289.307 53.468,289.269 49.907 C 289.246 47.750,289.267 47.629,289.669 47.524 C 290.367 47.341,290.483 47.698,290.491 50.052 C 290.504 53.829,289.118 55.459,285.867 55.487 C 282.651 55.516,282.066 54.483,280.261 45.591 C 279.536 42.021,278.924 39.075,278.900 39.045 C 278.856 38.988,273.155 40.178,273.071 40.262 C 273.045 40.288,273.282 41.477,273.599 42.905 C 275.911 53.341,275.058 58.603,271.056 58.599 C 269.951 58.598,269.127 58.001,268.528 56.767 C 267.996 55.670,267.332 53.202,267.568 53.197 C 267.640 53.196,267.897 53.142,268.139 53.077 C 268.499 52.980,268.630 53.085,268.871 53.662 C 269.765 55.802,271.669 55.691,272.534 53.448 C 273.376 51.265,272.354 40.600,271.302 40.600 C 269.118 40.600,267.200 41.809,267.200 43.186 C 267.200 43.695,266.249 44.000,265.981 43.577 C 265.580 42.944,266.194 40.076,266.914 39.220 C 268.276 37.601,269.182 37.345,280.500 35.382 C 285.609 34.496,286.324 34.274,286.516 33.507 C 286.626 33.070,287.099 32.771,287.427 32.933 C 287.497 32.967,287.614 33.396,287.688 33.887 M195.834 33.811 C 195.591 34.038,194.941 35.122,194.390 36.220 C 193.582 37.830,73.984 268.698,69.476 277.349 C 67.843 280.484,67.847 281.995,69.488 282.002 C 103.722 282.143,324.514 281.940,324.894 281.766 C 325.706 281.396,325.537 280.640,323.927 277.433 C 323.118 275.820,295.052 221.625,261.560 157.000 C 228.068 92.375,200.096 38.394,199.400 37.042 C 197.710 33.759,196.787 32.923,195.834 33.811 M336.234 34.076 C 343.056 36.882,343.312 45.402,336.842 54.300 C 331.684 61.394,326.483 63.884,321.730 61.534 C 315.769 58.588,315.231 51.900,320.288 43.600 C 325.040 35.801,331.316 32.053,336.234 34.076 M303.050 34.302 C 297.922 36.907,296.582 49.518,301.186 51.850 C 304.839 53.700,308.354 50.813,309.909 44.685 C 311.751 37.423,308.022 31.778,303.050 34.302 M333.382 35.578 C 331.240 36.416,325.400 42.318,325.400 43.644 C 325.400 43.826,334.312 49.800,334.583 49.800 C 335.124 49.800,337.847 44.541,338.606 42.030 C 339.972 37.514,337.196 34.086,333.382 35.578 M114.084 37.012 C 114.195 37.118,114.056 40.655,113.733 45.979 C 113.110 56.237,113.133 56.400,115.218 56.400 C 116.668 56.400,117.440 55.232,117.697 52.650 C 117.839 51.217,117.847 51.200,118.420 51.200 C 119.093 51.200,119.123 51.397,118.793 53.679 C 118.353 56.723,116.954 58.054,114.209 58.042 C 110.947 58.028,109.413 56.548,109.396 53.400 C 109.390 52.098,110.180 38.169,110.310 37.300 L 110.399 36.700 112.150 36.768 C 113.112 36.806,113.983 36.916,114.084 37.012 M252.397 37.970 C 254.197 38.936,254.105 40.160,252.253 39.883 C 250.313 39.592,247.052 42.121,246.608 44.262 C 245.910 47.623,247.883 50.870,256.440 60.441 C 260.687 65.191,260.909 65.307,263.028 63.881 C 264.034 63.204,264.703 63.131,264.629 63.707 C 264.545 64.366,255.086 72.339,254.744 72.039 C 254.408 71.744,254.431 71.683,255.171 70.914 C 257.272 68.729,257.238 68.649,251.536 62.248 C 241.913 51.445,238.718 49.781,234.872 53.567 C 233.733 54.689,233.000 56.009,233.000 56.941 C 233.000 58.371,231.894 58.748,231.265 57.532 C 229.697 54.500,232.781 49.552,236.693 48.821 C 238.958 48.398,243.389 50.253,246.381 52.878 C 246.850 53.289,246.848 53.276,246.314 52.400 C 242.943 46.868,242.756 42.768,245.730 39.589 C 247.517 37.678,250.501 36.953,252.397 37.970 M96.287 40.310 C 96.364 41.470,96.406 44.742,96.380 47.581 C 96.326 53.371,96.277 53.148,97.919 54.590 C 99.640 56.101,101.200 55.626,101.200 53.591 C 101.200 52.182,102.135 52.832,102.405 54.427 C 103.304 59.759,99.089 60.700,96.487 55.748 L 95.729 54.306 95.504 55.303 C 94.292 60.674,88.260 63.758,83.526 61.428 C 75.999 57.722,75.303 44.939,82.446 41.596 C 86.368 39.761,89.532 40.949,92.068 45.209 L 92.837 46.500 92.725 45.600 C 92.664 45.105,92.554 43.472,92.481 41.972 L 92.348 39.243 93.424 38.936 C 95.127 38.448,95.890 38.237,96.023 38.218 C 96.090 38.208,96.209 39.149,96.287 40.310 M85.017 42.235 C 82.529 42.672,81.498 44.430,81.519 48.200 C 81.563 55.922,85.062 61.312,89.425 60.376 C 96.682 58.820,92.341 40.950,85.017 42.235 M137.153 43.170 C 141.916 44.652,143.491 48.461,141.404 53.450 C 140.743 55.030,140.655 55.064,143.600 52.600 C 144.865 51.542,146.016 50.606,146.158 50.521 C 146.415 50.367,149.200 52.464,149.200 52.811 C 149.200 53.198,143.743 57.449,140.256 59.779 C 137.871 61.373,137.804 61.438,137.506 62.443 C 136.614 65.445,137.778 67.263,139.819 66.057 C 140.889 65.425,141.193 66.103,140.304 67.141 C 136.656 71.402,132.909 68.536,135.466 63.440 L 136.175 62.027 134.919 62.500 C 128.348 64.973,121.928 59.730,123.256 52.975 C 124.580 46.244,131.451 41.395,137.153 43.170 M323.523 46.440 C 319.423 52.732,318.395 57.004,320.462 59.168 C 323.612 62.465,327.528 60.410,332.791 52.697 L 333.984 50.948 329.542 48.016 C 327.099 46.403,324.989 45.015,324.852 44.931 C 324.685 44.828,324.254 45.317,323.523 46.440 M135.829 45.216 C 130.698 46.221,124.605 55.041,126.376 58.900 C 128.703 63.974,136.236 61.072,139.931 53.679 C 142.369 48.798,140.216 44.356,135.829 45.216 M65.405 53.405 C 67.057 55.174,65.816 57.238,62.883 57.602 C 61.311 57.797,60.899 58.120,60.498 59.468 C 60.191 60.504,59.656 65.922,59.843 66.109 C 60.068 66.334,73.571 68.650,74.800 68.674 C 75.897 68.696,76.252 68.611,77.072 68.129 C 77.907 67.638,78.083 67.597,78.325 67.839 C 78.567 68.081,78.056 68.607,74.691 71.582 C 71.074 74.781,70.756 75.016,70.508 74.676 C 70.272 74.354,70.310 74.227,70.819 73.647 C 71.754 72.583,71.600 72.423,69.175 71.922 C 67.124 71.498,59.578 70.355,59.480 70.453 C 59.437 70.496,61.030 72.369,63.019 74.616 L 66.636 78.700 65.468 79.748 C 64.826 80.325,64.201 80.775,64.080 80.748 C 63.960 80.722,61.425 77.947,58.448 74.581 C 51.828 67.098,51.246 66.741,48.944 68.761 C 48.624 69.042,48.556 69.042,48.281 68.767 C 48.005 68.491,48.090 68.300,49.109 66.880 C 49.734 66.011,50.646 64.605,51.137 63.755 L 52.029 62.210 55.052 65.626 C 58.486 69.507,58.264 69.470,58.483 66.200 C 59.062 57.570,60.098 54.369,62.700 53.176 C 63.917 52.617,64.734 52.687,65.405 53.405 M349.020 55.518 C 352.062 57.046,351.769 60.284,348.321 63.256 C 347.539 63.929,347.080 64.407,347.300 64.319 C 352.515 62.229,355.856 62.974,357.724 66.643 C 358.849 68.852,358.303 70.836,355.933 73.148 C 354.700 74.351,335.780 88.810,335.466 88.789 C 335.218 88.773,333.160 86.018,333.235 85.803 C 333.271 85.701,337.755 82.243,343.200 78.118 C 355.769 68.595,356.127 68.249,355.336 66.354 C 353.682 62.397,348.081 63.801,339.327 70.367 C 337.663 71.616,336.242 72.674,336.171 72.718 C 335.960 72.848,333.750 69.842,333.891 69.615 C 333.961 69.501,337.132 67.048,340.936 64.164 C 348.506 58.426,348.841 58.089,348.046 57.019 C 347.388 56.134,345.567 56.501,343.677 57.900 C 343.282 58.192,343.233 58.180,342.928 57.715 C 342.023 56.334,347.041 54.525,349.020 55.518 M48.427 84.999 C 56.556 89.102,56.820 89.207,57.782 88.709 C 59.716 87.709,58.849 85.410,55.972 83.909 C 54.929 83.365,54.860 83.286,55.054 82.860 C 55.522 81.833,59.043 83.922,59.905 85.738 C 61.258 88.589,58.686 92.540,55.591 92.366 C 54.329 92.294,41.981 86.557,39.053 84.681 L 38.606 84.394 39.447 82.697 C 39.910 81.764,40.337 81.000,40.395 80.999 C 40.453 80.999,44.067 82.799,48.427 84.999 M364.071 87.521 C 364.266 88.675,364.614 90.245,364.844 91.011 C 365.372 92.768,365.802 92.637,360.596 92.304 C 358.132 92.147,356.091 92.042,356.062 92.072 C 356.032 92.101,356.960 93.245,358.124 94.613 C 364.397 101.986,365.802 105.520,363.345 107.742 C 361.157 109.721,358.730 106.675,360.450 104.108 C 361.912 101.927,361.854 102.069,361.596 101.288 C 361.328 100.477,359.549 98.065,357.962 96.360 L 356.900 95.220 351.800 98.813 C 344.065 104.261,344.297 104.076,343.716 105.244 C 343.432 105.813,343.200 106.492,343.200 106.753 C 343.200 107.127,343.107 107.214,342.764 107.164 C 342.263 107.090,342.265 107.283,342.668 100.700 C 342.894 96.992,342.911 96.898,343.350 96.836 C 343.743 96.780,343.800 96.861,343.800 97.470 C 343.800 99.162,344.243 99.186,346.558 97.624 C 349.034 95.953,354.016 92.263,354.062 92.066 C 354.083 91.975,351.690 91.755,348.744 91.578 C 345.799 91.400,343.358 91.220,343.320 91.178 C 343.282 91.135,343.297 90.353,343.352 89.439 L 343.453 87.778 344.476 87.889 C 347.049 88.167,359.893 88.827,360.504 88.712 C 361.536 88.519,362.306 87.760,362.592 86.655 C 362.728 86.130,362.870 85.594,362.907 85.466 C 363.174 84.547,363.735 85.539,364.071 87.521 M54.773 108.420 C 56.343 116.130,57.599 122.460,57.564 122.486 C 57.405 122.601,24.744 114.824,24.543 114.623 C 24.374 114.454,24.416 114.325,24.708 114.118 C 24.924 113.965,31.040 109.470,38.300 104.129 C 45.560 98.789,51.594 94.415,51.709 94.410 C 51.827 94.404,53.165 100.523,54.773 108.420 M41.900 107.302 C 36.730 111.100,32.538 114.274,32.585 114.354 C 32.682 114.522,55.210 120.056,55.326 119.941 C 55.417 119.850,51.659 101.252,51.447 100.748 C 51.324 100.454,49.765 101.525,41.900 107.302 M359.260 117.600 C 361.715 117.600,361.187 115.487,358.400 114.156 C 357.685 113.814,357.073 113.515,357.040 113.491 C 356.741 113.272,357.305 112.406,357.673 112.518 C 361.443 113.666,363.217 116.281,362.017 118.923 C 361.132 120.873,359.171 121.426,355.994 120.622 C 354.045 120.129,353.919 120.161,354.992 120.871 C 361.036 124.871,360.076 132.513,353.531 132.493 L 351.300 132.486 339.400 128.519 C 332.855 126.337,327.422 124.481,327.328 124.394 C 327.192 124.269,327.993 121.365,328.328 120.767 C 328.369 120.693,334.050 122.517,340.952 124.820 C 355.620 129.713,355.895 129.767,357.096 127.934 C 359.374 124.458,354.654 120.422,344.300 116.993 C 340.381 115.695,340.686 116.026,341.412 113.860 L 342.023 112.039 350.359 114.820 C 354.943 116.349,358.949 117.600,359.260 117.600 M197.862 126.006 C 198.706 126.670,198.711 126.680,226.699 180.700 C 241.516 209.300,253.945 233.263,254.320 233.950 C 254.694 234.638,255.320 235.784,255.712 236.498 C 256.593 238.102,256.600 239.038,255.735 239.680 L 255.171 240.100 197.835 240.159 C 166.301 240.191,140.015 240.161,139.423 240.091 C 137.279 239.839,136.955 238.796,138.140 235.959 C 139.922 231.694,194.139 127.678,195.111 126.659 C 196.252 125.464,196.960 125.296,197.862 126.006 M195.881 149.986 C 195.576 150.309,192.826 155.506,189.768 161.536 L 184.208 172.500 184.204 202.250 L 184.200 232.000 198.000 232.000 L 211.800 232.000 211.792 203.550 L 211.784 175.100 205.416 163.006 C 197.748 148.444,197.568 148.199,195.881 149.986 M150.471 300.550 C 146.235 307.116,144.066 314.980,145.322 319.214 C 147.244 325.692,153.594 329.196,171.025 333.398 C 185.432 336.871,194.456 342.376,199.002 350.467 L 199.658 351.634 200.062 350.967 C 205.734 341.615,214.068 336.638,230.300 332.908 C 254.850 327.267,259.921 318.752,249.245 301.100 L 248.277 299.500 199.745 299.450 L 151.213 299.399 150.471 300.550 " stroke="none" fill="#fbfb04" fill-rule="evenodd"></path><path id="path2" d="M99.450 24.538 C 99.642 24.588,99.958 24.588,100.150 24.538 C 100.343 24.488,100.185 24.446,99.800 24.446 C 99.415 24.446,99.258 24.488,99.450 24.538 M287.646 34.600 C 287.646 34.985,287.688 35.143,287.738 34.950 C 287.788 34.758,287.788 34.443,287.738 34.250 C 287.688 34.057,287.646 34.215,287.646 34.600 M324.200 38.300 C 323.714 38.795,323.362 39.200,323.417 39.200 C 323.472 39.200,323.914 38.795,324.400 38.300 C 324.886 37.805,325.238 37.400,325.183 37.400 C 325.128 37.400,324.686 37.805,324.200 38.300 M310.460 40.800 C 310.460 41.405,310.497 41.653,310.543 41.350 C 310.589 41.048,310.589 40.553,310.543 40.250 C 310.497 39.948,310.460 40.195,310.460 40.800 M89.600 42.263 C 89.600 42.297,89.892 42.590,90.250 42.913 L 90.900 43.500 90.313 42.850 C 89.765 42.244,89.600 42.108,89.600 42.263 M298.257 45.300 C 298.259 45.850,298.298 46.051,298.344 45.747 C 298.389 45.443,298.388 44.993,298.341 44.747 C 298.293 44.501,298.256 44.750,298.257 45.300 M355.200 45.700 C 355.909 46.415,356.533 47.000,356.588 47.000 C 356.643 47.000,356.109 46.415,355.400 45.700 C 354.691 44.985,354.067 44.400,354.012 44.400 C 353.957 44.400,354.491 44.985,355.200 45.700 M274.846 52.400 C 274.846 52.785,274.888 52.942,274.938 52.750 C 274.988 52.558,274.988 52.242,274.938 52.050 C 274.888 51.858,274.846 52.015,274.846 52.400 M246.800 57.100 C 247.173 57.485,247.523 57.800,247.578 57.800 C 247.633 57.800,247.373 57.485,247.000 57.100 C 246.627 56.715,246.277 56.400,246.222 56.400 C 246.167 56.400,246.427 56.715,246.800 57.100 M286.154 62.145 C 286.513 62.189,287.053 62.189,287.354 62.143 C 287.654 62.097,287.360 62.061,286.700 62.062 C 286.040 62.063,285.794 62.100,286.154 62.145 M131.253 63.144 C 131.557 63.189,132.007 63.188,132.253 63.141 C 132.499 63.093,132.250 63.056,131.700 63.057 C 131.150 63.059,130.949 63.098,131.253 63.144 M139.789 67.550 L 139.100 68.300 139.850 67.611 C 140.548 66.969,140.692 66.800,140.539 66.800 C 140.506 66.800,140.168 67.138,139.789 67.550 M58.223 68.662 C 58.209 68.890,58.108 68.971,57.950 68.882 C 57.752 68.770,57.751 68.796,57.947 69.007 C 58.253 69.338,58.467 69.153,58.341 68.666 C 58.251 68.317,58.245 68.317,58.223 68.662 M332.646 97.200 C 332.646 97.585,332.688 97.743,332.738 97.550 C 332.788 97.358,332.788 97.043,332.738 96.850 C 332.688 96.658,332.646 96.815,332.646 97.200 M332.646 98.600 C 332.646 98.985,332.688 99.142,332.738 98.950 C 332.788 98.758,332.788 98.442,332.738 98.250 C 332.688 98.058,332.646 98.215,332.646 98.600 M286.053 104.544 C 286.357 104.589,286.807 104.588,287.053 104.541 C 287.299 104.493,287.050 104.456,286.500 104.457 C 285.950 104.459,285.749 104.498,286.053 104.544 M19.646 105.400 C 19.646 105.785,19.688 105.942,19.738 105.750 C 19.788 105.558,19.788 105.243,19.738 105.050 C 19.688 104.858,19.646 105.015,19.646 105.400 M296.200 117.900 C 296.573 118.285,296.923 118.600,296.978 118.600 C 297.033 118.600,296.773 118.285,296.400 117.900 C 296.027 117.515,295.677 117.200,295.622 117.200 C 295.567 117.200,295.827 117.515,296.200 117.900 M86.650 125.738 C 86.843 125.788,87.158 125.788,87.350 125.738 C 87.543 125.688,87.385 125.646,87.000 125.646 C 86.615 125.646,86.458 125.688,86.650 125.738 M88.250 125.738 C 88.442 125.788,88.758 125.788,88.950 125.738 C 89.142 125.688,88.985 125.646,88.600 125.646 C 88.215 125.646,88.058 125.688,88.250 125.738 M266.462 127.100 C 266.463 127.760,266.500 128.006,266.545 127.646 C 266.589 127.287,266.589 126.747,266.543 126.446 C 266.497 126.146,266.461 126.440,266.462 127.100 M275.500 150.000 C 275.930 150.440,276.326 150.800,276.381 150.800 C 276.436 150.800,276.130 150.440,275.700 150.000 C 275.270 149.560,274.874 149.200,274.819 149.200 C 274.764 149.200,275.070 149.560,275.500 150.000 M121.000 152.700 C 120.514 153.195,120.162 153.600,120.217 153.600 C 120.272 153.600,120.714 153.195,121.200 152.700 C 121.686 152.205,122.038 151.800,121.983 151.800 C 121.928 151.800,121.486 152.205,121.000 152.700 M103.800 170.500 C 104.173 170.885,104.523 171.200,104.578 171.200 C 104.633 171.200,104.373 170.885,104.000 170.500 C 103.627 170.115,103.277 169.800,103.222 169.800 C 103.167 169.800,103.427 170.115,103.800 170.500 M330.446 175.800 C 330.446 176.185,330.488 176.343,330.538 176.150 C 330.588 175.958,330.588 175.643,330.538 175.450 C 330.488 175.258,330.446 175.415,330.446 175.800 M293.400 185.463 C 293.400 185.497,293.693 185.790,294.050 186.113 L 294.700 186.700 294.113 186.050 C 293.565 185.444,293.400 185.308,293.400 185.463 M103.887 190.850 L 103.300 191.500 103.950 190.913 C 104.308 190.590,104.600 190.297,104.600 190.263 C 104.600 190.108,104.435 190.244,103.887 190.850 M311.352 192.741 C 311.601 192.789,311.961 192.787,312.152 192.737 C 312.344 192.687,312.140 192.648,311.700 192.650 C 311.260 192.653,311.104 192.694,311.352 192.741 M191.050 232.150 C 194.872 232.180,201.127 232.180,204.950 232.150 C 208.773 232.120,205.645 232.095,198.000 232.095 C 190.355 232.095,187.227 232.120,191.050 232.150 M144.860 316.200 C 144.860 316.805,144.897 317.053,144.943 316.750 C 144.989 316.447,144.989 315.953,144.943 315.650 C 144.897 315.348,144.860 315.595,144.860 316.200 M254.450 316.100 C 254.453 316.540,254.494 316.696,254.541 316.448 C 254.589 316.199,254.587 315.839,254.537 315.648 C 254.487 315.456,254.448 315.660,254.450 316.100 " stroke="none" fill="#9c9c32" fill-rule="evenodd"></path><path id="path3" d="M289.450 21.347 C 289.973 21.388,290.828 21.388,291.350 21.347 C 291.873 21.306,291.445 21.272,290.400 21.272 C 289.355 21.272,288.928 21.306,289.450 21.347 M297.487 35.250 L 296.900 35.900 297.550 35.313 C 298.156 34.765,298.292 34.600,298.137 34.600 C 298.103 34.600,297.810 34.893,297.487 35.250 M245.887 39.450 L 245.300 40.100 245.950 39.513 C 246.556 38.965,246.692 38.800,246.537 38.800 C 246.503 38.800,246.210 39.093,245.887 39.450 M339.050 39.500 C 339.053 39.940,339.094 40.096,339.141 39.848 C 339.189 39.599,339.187 39.239,339.137 39.048 C 339.087 38.856,339.048 39.060,339.050 39.500 M235.389 41.150 L 234.700 41.900 235.450 41.211 C 236.148 40.569,236.292 40.400,236.139 40.400 C 236.106 40.400,235.768 40.738,235.389 41.150 M247.687 42.050 L 247.100 42.700 247.750 42.113 C 248.356 41.565,248.492 41.400,248.337 41.400 C 248.303 41.400,248.010 41.693,247.687 42.050 M341.446 42.000 C 341.446 42.385,341.488 42.543,341.538 42.350 C 341.588 42.157,341.588 41.843,341.538 41.650 C 341.488 41.458,341.446 41.615,341.446 42.000 M96.246 42.400 C 96.246 42.785,96.288 42.943,96.338 42.750 C 96.388 42.558,96.388 42.243,96.338 42.050 C 96.288 41.858,96.246 42.015,96.246 42.400 M160.900 46.400 C 161.664 47.170,162.334 47.800,162.389 47.800 C 162.444 47.800,161.864 47.170,161.100 46.400 C 160.336 45.630,159.666 45.000,159.611 45.000 C 159.556 45.000,160.136 45.630,160.900 46.400 M126.687 46.450 L 126.100 47.100 126.750 46.513 C 127.108 46.190,127.400 45.897,127.400 45.863 C 127.400 45.708,127.235 45.844,126.687 46.450 M141.050 49.700 C 141.053 50.140,141.094 50.296,141.141 50.048 C 141.189 49.799,141.187 49.439,141.137 49.248 C 141.087 49.056,141.048 49.260,141.050 49.700 M290.450 50.300 C 290.453 50.740,290.494 50.896,290.541 50.648 C 290.589 50.399,290.587 50.039,290.537 49.848 C 290.487 49.656,290.448 49.860,290.450 50.300 M38.596 52.550 L 36.900 54.300 38.650 52.604 C 40.275 51.030,40.491 50.800,40.346 50.800 C 40.316 50.800,39.528 51.588,38.596 52.550 M319.246 56.400 C 319.246 56.785,319.288 56.942,319.338 56.750 C 319.388 56.558,319.388 56.242,319.338 56.050 C 319.288 55.858,319.246 56.015,319.246 56.400 M325.250 62.338 C 325.443 62.388,325.757 62.388,325.950 62.338 C 326.143 62.288,325.985 62.246,325.600 62.246 C 325.215 62.246,325.058 62.288,325.250 62.338 M137.046 64.400 C 137.046 64.785,137.088 64.942,137.138 64.750 C 137.188 64.558,137.188 64.242,137.138 64.050 C 137.088 63.858,137.046 64.015,137.046 64.400 M59.600 65.688 C 59.600 65.957,59.674 66.222,59.764 66.278 C 59.854 66.333,59.889 66.114,59.841 65.789 C 59.736 65.075,59.600 65.017,59.600 65.688 M256.492 75.250 L 255.500 76.300 256.550 75.308 C 257.127 74.762,257.600 74.289,257.600 74.258 C 257.600 74.108,257.415 74.274,256.492 75.250 M322.300 77.600 C 322.953 78.260,323.532 78.800,323.587 78.800 C 323.642 78.800,323.153 78.260,322.500 77.600 C 321.847 76.940,321.268 76.400,321.213 76.400 C 321.158 76.400,321.647 76.940,322.300 77.600 M74.789 80.750 L 74.100 81.500 74.850 80.811 C 75.263 80.432,75.600 80.094,75.600 80.061 C 75.600 79.908,75.431 80.052,74.789 80.750 M376.477 96.400 C 376.477 97.775,376.509 98.338,376.548 97.650 C 376.587 96.963,376.587 95.838,376.548 95.150 C 376.509 94.463,376.477 95.025,376.477 96.400 M343.238 96.924 C 343.423 96.979,343.618 97.222,343.670 97.462 C 343.750 97.829,343.760 97.819,343.733 97.402 C 343.711 97.064,343.572 96.891,343.300 96.864 C 343.012 96.834,342.995 96.851,343.238 96.924 M355.400 122.263 C 355.400 122.297,355.693 122.590,356.050 122.913 L 356.700 123.500 356.113 122.850 C 355.565 122.244,355.400 122.108,355.400 122.263 M266.446 129.000 C 266.446 129.385,266.488 129.542,266.538 129.350 C 266.588 129.157,266.588 128.843,266.538 128.650 C 266.488 128.458,266.446 128.615,266.446 129.000 M289.454 175.800 C 289.454 176.295,289.493 176.498,289.541 176.250 C 289.589 176.003,289.589 175.597,289.541 175.350 C 289.493 175.103,289.454 175.305,289.454 175.800 M211.897 203.700 C 211.897 219.430,211.921 225.895,211.950 218.066 C 211.979 210.237,211.979 197.367,211.950 189.466 C 211.921 181.565,211.897 187.970,211.897 203.700 M108.457 180.700 C 108.459 181.250,108.498 181.451,108.544 181.147 C 108.589 180.843,108.588 180.393,108.541 180.147 C 108.493 179.901,108.456 180.150,108.457 180.700 M86.056 197.347 C 86.582 197.389,87.392 197.388,87.856 197.346 C 88.320 197.304,87.890 197.270,86.900 197.271 C 85.910 197.272,85.530 197.306,86.056 197.347 M168.566 240.150 C 184.333 240.178,210.073 240.178,225.766 240.150 C 241.460 240.122,228.560 240.099,197.100 240.099 C 165.640 240.099,152.800 240.122,168.566 240.150 M134.834 282.150 C 169.227 282.178,225.567 282.178,260.034 282.150 C 294.500 282.122,266.360 282.099,197.500 282.099 C 128.640 282.099,100.440 282.122,134.834 282.150 M204.691 344.850 L 203.900 345.700 204.750 344.909 C 205.540 344.174,205.692 344.000,205.541 344.000 C 205.508 344.000,205.125 344.382,204.691 344.850 M194.000 344.263 C 194.000 344.297,194.293 344.590,194.650 344.913 L 195.300 345.500 194.713 344.850 C 194.165 344.244,194.000 344.108,194.000 344.263 " stroke="none" fill="#747444" fill-rule="evenodd"></path><path id="path4" d="M307.450 122.738 C 307.643 122.788,307.957 122.788,308.150 122.738 C 308.343 122.688,308.185 122.646,307.800 122.646 C 307.415 122.646,307.257 122.688,307.450 122.738 M130.860 130.600 C 130.860 131.205,130.897 131.453,130.943 131.150 C 130.989 130.847,130.989 130.353,130.943 130.050 C 130.897 129.748,130.860 129.995,130.860 130.600 " stroke="none" fill="#7c7c44" fill-rule="evenodd"></path></g></svg>